<svg width="512" height="534" viewBox="0 0 512 534" fill="none" xmlns="http://www.w3.org/2000/svg">
<g clip-path="url(#clip0_1616_25170)">
<path d="M356.94 65.1413L355.961 66.1675L423.136 129.989L424.116 128.962L356.94 65.1413Z" fill="#E6E6E6"/>
<path d="M424.217 122.042L422.799 122.128L423.227 129.1L416.226 129.016L416.211 130.433L424.737 130.534L424.217 122.042Z" fill="#E6E6E6"/>
<path d="M363.861 64.6955L363.845 66.1127L356.845 66.0288L357.273 73.0013L355.854 73.0869L355.336 64.5938L363.861 64.6955Z" fill="#E6E6E6"/>
<path d="M390.035 105.357C394.347 105.357 397.843 101.868 397.843 97.565C397.843 93.2616 394.347 89.7729 390.035 89.7729C385.722 89.7729 382.227 93.2616 382.227 97.565C382.227 101.868 385.722 105.357 390.035 105.357Z" fill="#E6E6E6"/>
<path d="M156.48 65.1413L89.3047 128.962L90.2837 129.989L157.459 66.1675L156.48 65.1413Z" fill="#E6E6E6"/>
<path d="M88.6797 130.534L97.206 130.433L97.1898 129.016L90.1899 129.1L90.618 122.128L89.1995 122.042L88.6797 130.534Z" fill="#E6E6E6"/>
<path d="M158.088 64.5938L157.569 73.0869L156.15 73.0013L156.578 66.0288L149.578 66.1127L149.562 64.6955L158.088 64.5938Z" fill="#E6E6E6"/>
<path d="M123.387 105.357C127.699 105.357 131.195 101.868 131.195 97.565C131.195 93.2616 127.699 89.7729 123.387 89.7729C119.074 89.7729 115.578 93.2616 115.578 97.565C115.578 101.868 119.074 105.357 123.387 105.357Z" fill="#E6E6E6"/>
<path d="M314.92 161.508H197.084C195.39 161.506 193.766 160.834 192.569 159.638C191.371 158.443 190.697 156.823 190.695 155.132V6.3753C190.697 4.68506 191.371 3.0646 192.569 1.86942C193.766 0.67423 195.39 0.00192484 197.084 0H314.92C316.614 0.00192484 318.238 0.67423 319.436 1.86942C320.633 3.0646 321.307 4.68506 321.309 6.3753V155.132C321.307 156.823 320.633 158.443 319.436 159.638C318.238 160.834 316.614 161.506 314.92 161.508ZM197.084 1.41674C195.767 1.41821 194.504 1.94111 193.572 2.8707C192.64 3.80029 192.116 5.06066 192.115 6.3753V155.132C192.116 156.447 192.64 157.707 193.572 158.637C194.504 159.567 195.767 160.09 197.084 160.091H314.92C316.238 160.09 317.501 159.567 318.432 158.637C319.364 157.707 319.888 156.447 319.889 155.132V6.3753C319.888 5.06066 319.364 3.80029 318.432 2.8707C317.501 1.94111 316.238 1.41821 314.92 1.41674H197.084Z" fill="#3F3D56"/>
<path d="M246.195 71.5038H220.257C219.41 71.5029 218.598 71.1668 217.999 70.5692C217.4 69.9716 217.063 69.1613 217.062 68.3162V37.7716C217.063 36.9265 217.4 36.1163 217.999 35.5187C218.598 34.9211 219.41 34.5849 220.257 34.584H246.195C247.042 34.5849 247.854 34.9211 248.453 35.5187C249.052 36.1163 249.388 36.9265 249.389 37.7716V68.3162C249.388 69.1613 249.052 69.9716 248.453 70.5692C247.854 71.1668 247.042 71.5029 246.195 71.5038Z" fill="#C081C1"/>
<path d="M296.601 85.6713H270.663C269.816 85.6704 269.004 85.3342 268.405 84.7366C267.807 84.139 267.47 83.3288 267.469 82.4837V51.9391C267.47 51.094 267.807 50.2837 268.405 49.6861C269.004 49.0885 269.816 48.7524 270.663 48.7515H296.601C297.448 48.7524 298.26 49.0885 298.859 49.6861C299.458 50.2837 299.795 51.094 299.796 51.9391V82.4837C299.795 83.3288 299.458 84.139 298.859 84.7366C298.26 85.3342 297.448 85.6704 296.601 85.6713Z" fill="#CCCCCC"/>
<path d="M256.133 128.882H230.194C229.347 128.881 228.536 128.545 227.937 127.947C227.338 127.349 227.001 126.539 227 125.694V95.1496C227.001 94.3044 227.338 93.4942 227.937 92.8966C228.536 92.299 229.347 91.9629 230.194 91.9619H256.133C256.979 91.9629 257.791 92.299 258.39 92.8966C258.989 93.4942 259.326 94.3044 259.327 95.1496V125.694C259.326 126.539 258.989 127.349 258.39 127.947C257.791 128.545 256.979 128.881 256.133 128.882Z" fill="#FF6584"/>
<path d="M505.108 314.467H387.272C385.578 314.465 383.954 313.792 382.756 312.597C381.558 311.402 380.885 309.782 380.883 308.091V159.334C380.885 157.644 381.558 156.024 382.756 154.828C383.954 153.633 385.578 152.961 387.272 152.959H505.108C506.802 152.961 508.425 153.633 509.623 154.828C510.821 156.024 511.495 157.644 511.497 159.334V308.091C511.495 309.782 510.821 311.402 509.623 312.597C508.425 313.793 506.802 314.465 505.108 314.467ZM387.272 154.376C385.954 154.377 384.691 154.9 383.76 155.83C382.828 156.759 382.304 158.02 382.303 159.334V308.091C382.304 309.406 382.828 310.666 383.76 311.596C384.691 312.526 385.954 313.049 387.272 313.05H505.108C506.425 313.049 507.688 312.526 508.62 311.596C509.551 310.666 510.075 309.406 510.077 308.091V159.334C510.075 158.02 509.551 156.759 508.62 155.83C507.688 154.9 506.425 154.377 505.108 154.376H387.272Z" fill="#3F3D56"/>
<path d="M466.426 185.898H425.964C425.211 185.898 424.489 185.599 423.957 185.068C423.424 184.537 423.125 183.816 423.125 183.064C423.125 182.313 423.424 181.592 423.957 181.061C424.489 180.529 425.211 180.231 425.964 180.231H466.426C467.179 180.231 467.902 180.529 468.434 181.061C468.967 181.592 469.266 182.313 469.266 183.064C469.266 183.816 468.967 184.537 468.434 185.068C467.902 185.599 467.179 185.898 466.426 185.898Z" fill="#C081C1"/>
<path d="M486.3 212.816H406.087C405.713 212.817 405.343 212.744 404.998 212.602C404.653 212.459 404.34 212.251 404.076 211.988C403.811 211.725 403.602 211.412 403.459 211.068C403.316 210.724 403.242 210.355 403.242 209.982C403.242 209.61 403.316 209.241 403.459 208.897C403.602 208.553 403.811 208.24 404.076 207.977C404.34 207.714 404.653 207.505 404.998 207.363C405.343 207.221 405.713 207.148 406.087 207.149H486.3C486.674 207.148 487.043 207.221 487.388 207.363C487.734 207.505 488.047 207.714 488.311 207.977C488.576 208.24 488.785 208.553 488.928 208.897C489.071 209.241 489.145 209.61 489.145 209.982C489.145 210.355 489.071 210.724 488.928 211.068C488.785 211.412 488.576 211.725 488.311 211.988C488.047 212.251 487.734 212.459 487.388 212.602C487.043 212.744 486.674 212.817 486.3 212.816Z" fill="#CCCCCC"/>
<path d="M486.3 227.692H406.087C405.713 227.692 405.343 227.62 404.998 227.478C404.653 227.335 404.34 227.127 404.076 226.864C403.811 226.6 403.602 226.288 403.459 225.944C403.316 225.6 403.242 225.231 403.242 224.858C403.242 224.486 403.316 224.117 403.459 223.773C403.602 223.429 403.811 223.116 404.076 222.853C404.34 222.59 404.653 222.381 404.998 222.239C405.343 222.097 405.713 222.024 406.087 222.025H486.3C486.674 222.024 487.043 222.097 487.388 222.239C487.734 222.381 488.047 222.59 488.311 222.853C488.576 223.116 488.785 223.429 488.928 223.773C489.071 224.117 489.145 224.486 489.145 224.858C489.145 225.231 489.071 225.6 488.928 225.944C488.785 226.288 488.576 226.6 488.311 226.864C488.047 227.127 487.734 227.335 487.388 227.478C487.043 227.62 486.674 227.692 486.3 227.692Z" fill="#CCCCCC"/>
<path d="M486.3 242.567H406.087C405.713 242.568 405.343 242.495 404.998 242.353C404.653 242.211 404.34 242.002 404.076 241.739C403.811 241.476 403.602 241.163 403.459 240.819C403.316 240.475 403.242 240.106 403.242 239.734C403.242 239.361 403.316 238.992 403.459 238.648C403.602 238.304 403.811 237.992 404.076 237.729C404.34 237.465 404.653 237.257 404.998 237.115C405.343 236.973 405.713 236.9 406.087 236.9H486.3C486.674 236.9 487.043 236.973 487.388 237.115C487.734 237.257 488.047 237.465 488.311 237.729C488.576 237.992 488.785 238.304 488.928 238.648C489.071 238.992 489.145 239.361 489.145 239.734C489.145 240.106 489.071 240.475 488.928 240.819C488.785 241.163 488.576 241.476 488.311 241.739C488.047 242.002 487.734 242.211 487.388 242.353C487.043 242.495 486.674 242.568 486.3 242.567Z" fill="#CCCCCC"/>
<path d="M486.3 257.443H406.087C405.713 257.444 405.343 257.371 404.998 257.229C404.653 257.087 404.34 256.878 404.076 256.615C403.811 256.352 403.602 256.039 403.459 255.695C403.316 255.351 403.242 254.982 403.242 254.61C403.242 254.237 403.316 253.868 403.459 253.524C403.602 253.18 403.811 252.868 404.076 252.605C404.34 252.341 404.653 252.133 404.998 251.991C405.343 251.849 405.713 251.776 406.087 251.776H486.3C486.674 251.776 487.043 251.849 487.388 251.991C487.734 252.133 488.047 252.341 488.311 252.605C488.576 252.868 488.785 253.18 488.928 253.524C489.071 253.868 489.145 254.237 489.145 254.61C489.145 254.982 489.071 255.351 488.928 255.695C488.785 256.039 488.576 256.352 488.311 256.615C488.047 256.878 487.734 257.087 487.388 257.229C487.043 257.371 486.674 257.444 486.3 257.443Z" fill="#CCCCCC"/>
<path d="M486.3 272.319H406.087C405.713 272.319 405.343 272.247 404.998 272.105C404.653 271.962 404.34 271.754 404.076 271.491C403.811 271.227 403.602 270.915 403.459 270.571C403.316 270.227 403.242 269.858 403.242 269.485C403.242 269.113 403.316 268.744 403.459 268.4C403.602 268.056 403.811 267.743 404.076 267.48C404.34 267.217 404.653 267.008 404.998 266.866C405.343 266.724 405.713 266.651 406.087 266.652H486.3C486.674 266.651 487.043 266.724 487.388 266.866C487.734 267.008 488.047 267.217 488.311 267.48C488.576 267.743 488.785 268.056 488.928 268.4C489.071 268.744 489.145 269.113 489.145 269.485C489.145 269.858 489.071 270.227 488.928 270.571C488.785 270.915 488.576 271.227 488.311 271.491C488.047 271.754 487.734 271.962 487.388 272.105C487.043 272.247 486.674 272.319 486.3 272.319Z" fill="#CCCCCC"/>
<path d="M486.3 287.194H406.087C405.713 287.195 405.343 287.122 404.998 286.98C404.653 286.838 404.34 286.629 404.076 286.366C403.811 286.103 403.602 285.79 403.459 285.446C403.316 285.102 403.242 284.733 403.242 284.361C403.242 283.988 403.316 283.619 403.459 283.275C403.602 282.931 403.811 282.619 404.076 282.356C404.34 282.092 404.653 281.884 404.998 281.742C405.343 281.6 405.713 281.527 406.087 281.527H486.3C486.674 281.527 487.043 281.6 487.388 281.742C487.734 281.884 488.047 282.092 488.311 282.356C488.576 282.619 488.785 282.931 488.928 283.275C489.071 283.619 489.145 283.988 489.145 284.361C489.145 284.733 489.071 285.102 488.928 285.446C488.785 285.79 488.576 286.103 488.311 286.366C488.047 286.629 487.734 286.838 487.388 286.98C487.043 287.122 486.674 287.195 486.3 287.194Z" fill="#CCCCCC"/>
<path d="M124.725 314.467H6.88871C5.19491 314.465 3.57103 313.793 2.37333 312.597C1.17563 311.402 0.501927 309.782 0.5 308.091V159.334C0.501927 157.644 1.17563 156.024 2.37333 154.828C3.57103 153.633 5.19491 152.961 6.88871 152.959H124.725C126.419 152.961 128.043 153.633 129.24 154.828C130.438 156.024 131.112 157.644 131.114 159.334V308.091C131.112 309.782 130.438 311.402 129.24 312.597C128.043 313.792 126.419 314.465 124.725 314.467ZM6.88871 154.376C5.5713 154.377 4.30828 154.9 3.37674 155.83C2.44519 156.759 1.92118 158.02 1.9197 159.334V308.091C1.92118 309.406 2.44519 310.666 3.37674 311.596C4.30828 312.526 5.5713 313.049 6.88871 313.05H124.725C126.042 313.049 127.305 312.526 128.237 311.596C129.169 310.666 129.692 309.406 129.694 308.091V159.334C129.692 158.02 129.169 156.759 128.237 155.83C127.305 154.9 126.042 154.377 124.725 154.376H6.88871Z" fill="#3F3D56"/>
<path d="M106.035 188.081H70.5426C69.7895 188.081 69.0673 187.782 68.5348 187.251C68.0023 186.719 67.7031 185.999 67.7031 185.247C67.7031 184.496 68.0023 183.775 68.5348 183.243C69.0673 182.712 69.7895 182.414 70.5426 182.414H106.035C106.788 182.414 107.511 182.712 108.043 183.243C108.576 183.775 108.875 184.496 108.875 185.247C108.875 185.999 108.576 186.719 108.043 187.251C107.511 187.782 106.788 188.081 106.035 188.081Z" fill="#3F3D56"/>
<path d="M106.035 202.956H70.5426C69.7895 202.956 69.0673 202.657 68.5348 202.126C68.0023 201.595 67.7031 200.874 67.7031 200.123C67.7031 199.371 68.0023 198.65 68.5348 198.119C69.0673 197.588 69.7895 197.289 70.5426 197.289H106.035C106.788 197.289 107.511 197.588 108.043 198.119C108.576 198.65 108.875 199.371 108.875 200.123C108.875 200.874 108.576 201.595 108.043 202.126C107.511 202.657 106.788 202.956 106.035 202.956Z" fill="#3F3D56"/>
<path d="M52.3357 211.427H26.3975C25.5506 211.426 24.7386 211.09 24.1398 210.492C23.5409 209.894 23.2041 209.084 23.2031 208.239V177.694C23.2041 176.849 23.5409 176.039 24.1398 175.442C24.7386 174.844 25.5506 174.508 26.3975 174.507H52.3357C53.1826 174.508 53.9945 174.844 54.5934 175.442C55.1923 176.039 55.5291 176.849 55.53 177.694V208.239C55.5291 209.084 55.1923 209.894 54.5934 210.492C53.9945 211.09 53.1826 211.426 52.3357 211.427Z" fill="#C081C1"/>
<path d="M105.793 233.416H25.5787C25.2054 233.417 24.8357 233.344 24.4906 233.202C24.1455 233.06 23.8319 232.851 23.5678 232.588C23.3036 232.325 23.094 232.012 22.951 231.668C22.808 231.324 22.7344 230.955 22.7344 230.582C22.7344 230.21 22.808 229.841 22.951 229.497C23.094 229.153 23.3036 228.84 23.5678 228.577C23.8319 228.314 24.1455 228.105 24.4906 227.963C24.8357 227.821 25.2054 227.748 25.5787 227.749H105.793C106.166 227.748 106.536 227.821 106.881 227.963C107.226 228.105 107.539 228.314 107.804 228.577C108.068 228.84 108.277 229.153 108.42 229.497C108.563 229.841 108.637 230.21 108.637 230.582C108.637 230.955 108.563 231.324 108.42 231.668C108.277 232.012 108.068 232.325 107.804 232.588C107.539 232.851 107.226 233.06 106.881 233.202C106.536 233.344 106.166 233.417 105.793 233.416Z" fill="#CCCCCC"/>
<path d="M105.793 248.292H25.5787C25.2054 248.293 24.8357 248.22 24.4906 248.078C24.1455 247.936 23.8319 247.727 23.5678 247.464C23.3036 247.201 23.094 246.888 22.951 246.544C22.808 246.2 22.7344 245.831 22.7344 245.458C22.7344 245.086 22.808 244.717 22.951 244.373C23.094 244.029 23.3036 243.716 23.5678 243.453C23.8319 243.19 24.1455 242.981 24.4906 242.839C24.8357 242.697 25.2054 242.624 25.5787 242.625H105.793C106.166 242.624 106.536 242.697 106.881 242.839C107.226 242.981 107.539 243.19 107.804 243.453C108.068 243.716 108.277 244.029 108.42 244.373C108.563 244.717 108.637 245.086 108.637 245.458C108.637 245.831 108.563 246.2 108.42 246.544C108.277 246.888 108.068 247.201 107.804 247.464C107.539 247.727 107.226 247.936 106.881 248.078C106.536 248.22 106.166 248.293 105.793 248.292Z" fill="#CCCCCC"/>
<path d="M105.793 263.167H25.5787C25.2054 263.168 24.8357 263.095 24.4906 262.953C24.1455 262.811 23.8319 262.602 23.5678 262.339C23.3036 262.076 23.094 261.764 22.951 261.419C22.808 261.075 22.7344 260.706 22.7344 260.334C22.7344 259.961 22.808 259.593 22.951 259.249C23.094 258.904 23.3036 258.592 23.5678 258.329C23.8319 258.066 24.1455 257.857 24.4906 257.715C24.8357 257.573 25.2054 257.5 25.5787 257.5H105.793C106.166 257.5 106.536 257.573 106.881 257.715C107.226 257.857 107.539 258.066 107.804 258.329C108.068 258.592 108.277 258.904 108.42 259.249C108.563 259.593 108.637 259.961 108.637 260.334C108.637 260.706 108.563 261.075 108.42 261.419C108.277 261.764 108.068 262.076 107.804 262.339C107.539 262.602 107.226 262.811 106.881 262.953C106.536 263.095 106.166 263.168 105.793 263.167Z" fill="#CCCCCC"/>
<path d="M105.793 278.043H25.5787C25.2054 278.044 24.8357 277.971 24.4906 277.829C24.1455 277.687 23.8319 277.478 23.5678 277.215C23.3036 276.952 23.094 276.639 22.951 276.295C22.808 275.951 22.7344 275.582 22.7344 275.21C22.7344 274.837 22.808 274.469 22.951 274.124C23.094 273.78 23.3036 273.468 23.5678 273.205C23.8319 272.941 24.1455 272.733 24.4906 272.591C24.8357 272.449 25.2054 272.376 25.5787 272.376H105.793C106.166 272.376 106.536 272.449 106.881 272.591C107.226 272.733 107.539 272.941 107.804 273.205C108.068 273.468 108.277 273.78 108.42 274.124C108.563 274.469 108.637 274.837 108.637 275.21C108.637 275.582 108.563 275.951 108.42 276.295C108.277 276.639 108.068 276.952 107.804 277.215C107.539 277.478 107.226 277.687 106.881 277.829C106.536 277.971 106.166 278.044 105.793 278.043Z" fill="#CCCCCC"/>
<path d="M105.793 292.919H25.5787C25.2054 292.92 24.8357 292.847 24.4906 292.705C24.1455 292.563 23.8319 292.354 23.5678 292.091C23.3036 291.828 23.094 291.515 22.951 291.171C22.808 290.827 22.7344 290.458 22.7344 290.085C22.7344 289.713 22.808 289.344 22.951 289C23.094 288.656 23.3036 288.343 23.5678 288.08C23.8319 287.817 24.1455 287.608 24.4906 287.466C24.8357 287.324 25.2054 287.251 25.5787 287.252H105.793C106.166 287.251 106.536 287.324 106.881 287.466C107.226 287.608 107.539 287.817 107.804 288.08C108.068 288.343 108.277 288.656 108.42 289C108.563 289.344 108.637 289.713 108.637 290.085C108.637 290.458 108.563 290.827 108.42 291.171C108.277 291.515 108.068 291.828 107.804 292.091C107.539 292.354 107.226 292.563 106.881 292.705C106.536 292.847 106.166 292.92 105.793 292.919Z" fill="#CCCCCC"/>
<path d="M169.273 400.685V370.141C169.274 369.296 169.611 368.485 170.21 367.888C170.809 367.29 171.621 366.954 172.468 366.953H198.406C199.253 366.954 200.065 367.29 200.664 367.888C201.263 368.485 201.599 369.296 201.6 370.141V400.685C201.599 401.53 201.263 402.341 200.664 402.938C200.065 403.536 199.253 403.872 198.406 403.873H172.468C171.621 403.872 170.809 403.536 170.21 402.938C169.611 402.341 169.274 401.53 169.273 400.685Z" fill="#E6E6E6"/>
<path d="M178.617 390.514V359.969C178.618 359.124 178.955 358.314 179.554 357.716C180.153 357.119 180.965 356.783 181.812 356.782H207.75C208.597 356.783 209.409 357.119 210.007 357.716C210.606 358.314 210.943 359.124 210.944 359.969V390.514C210.943 391.359 210.606 392.169 210.007 392.767C209.409 393.364 208.597 393.701 207.75 393.702H181.812C180.965 393.701 180.153 393.364 179.554 392.767C178.955 392.169 178.618 391.359 178.617 390.514Z" fill="#C081C1"/>
<path d="M294.89 380.741C293.914 380.178 293.073 379.408 292.427 378.486C291.782 377.564 291.346 376.512 291.152 375.404C290.958 374.296 291.01 373.159 291.303 372.073C291.597 370.987 292.126 369.979 292.853 369.119L284.812 310.474L301.561 311.294L304.19 368.496C305.557 369.81 306.393 371.578 306.541 373.467C306.688 375.355 306.137 377.231 304.99 378.741C303.844 380.25 302.182 381.287 300.321 381.656C298.459 382.025 296.527 381.699 294.89 380.741Z" fill="#A0616A"/>
<path d="M303.858 312.075C303.515 312.479 303.075 312.789 302.58 312.978L287.529 318.71C286.773 318.998 285.935 318.986 285.188 318.676C284.441 318.366 283.841 317.782 283.512 317.045L270.179 287.145C268.899 284.371 268.681 281.226 269.567 278.303C270.222 276.217 271.428 274.345 273.059 272.886C274.69 271.427 276.686 270.434 278.835 270.011C280.488 269.672 282.195 269.696 283.838 270.082C285.807 270.52 287.635 271.441 289.157 272.761C290.679 274.081 291.847 275.76 292.556 277.644L304.41 308.913C304.609 309.441 304.663 310.013 304.566 310.569C304.469 311.125 304.225 311.645 303.858 312.075Z" fill="#CCCCCC"/>
<path d="M225.424 523.88H215.01L211.234 483.608L225.425 483.798L225.424 523.88Z" fill="#A0616A"/>
<path d="M207.575 520.91H227.658V533.529H194.93C194.93 531.872 195.257 530.231 195.892 528.7C196.528 527.169 197.459 525.778 198.633 524.606C199.807 523.434 201.201 522.505 202.736 521.871C204.27 521.237 205.914 520.91 207.575 520.91Z" fill="#2F2E41"/>
<path d="M273.844 523.88H263.43L258.477 483.797L273.846 483.798L273.844 523.88Z" fill="#A0616A"/>
<path d="M255.989 520.91H276.072V533.529H243.344C243.344 531.872 243.671 530.231 244.306 528.7C244.942 527.169 245.873 525.778 247.047 524.606C248.222 523.434 249.616 522.505 251.15 521.871C252.684 521.237 254.328 520.91 255.989 520.91Z" fill="#2F2E41"/>
<path d="M275.156 509.619L258.801 508.41C257.871 508.34 256.998 507.934 256.347 507.267C255.696 506.601 255.312 505.72 255.266 504.79L251.619 429.581C251.584 428.859 251.286 428.175 250.781 427.657C250.276 427.138 249.6 426.822 248.878 426.766C248.156 426.711 247.438 426.92 246.86 427.355C246.282 427.79 245.882 428.421 245.737 429.129L230.523 503.217C230.335 504.128 229.819 504.94 229.074 505.499C228.328 506.058 227.404 506.326 226.474 506.253L211.689 505.073C211.183 505.032 210.689 504.891 210.238 504.658C209.786 504.425 209.386 504.105 209.06 503.715C208.734 503.326 208.49 502.876 208.34 502.391C208.191 501.906 208.14 501.396 208.191 500.892L221.907 364.021C221.96 363.486 222.127 362.968 222.395 362.502C222.663 362.036 223.027 361.631 223.463 361.315C223.898 360.999 224.396 360.779 224.924 360.668C225.451 360.557 225.996 360.559 226.522 360.674L278.68 371.988C279.544 372.177 280.316 372.659 280.864 373.351C281.413 374.044 281.705 374.904 281.69 375.787L279.261 505.886C279.241 506.884 278.832 507.834 278.119 508.534C277.406 509.233 276.447 509.627 275.448 509.629C275.351 509.629 275.254 509.625 275.156 509.619Z" fill="#2F2E41"/>
<path d="M260.847 249.58C272.368 249.58 281.709 240.259 281.709 228.762C281.709 217.264 272.368 207.943 260.847 207.943C249.325 207.943 239.984 217.264 239.984 228.762C239.984 240.259 249.325 249.58 260.847 249.58Z" fill="#A0616A"/>
<path d="M228.474 374.576C226.468 372.781 224.875 370.573 223.806 368.105C222.736 365.637 222.215 362.968 222.279 360.28C222.279 330.358 248.233 263.509 249.046 261.423C249.126 260.92 249.811 260.703 253.403 258.281C256.998 255.858 262.182 255.485 268.811 257.175C269.485 257.347 270.098 257.7 270.585 258.196C271.072 258.692 271.413 259.312 271.571 259.987L272.805 261.765C272.912 262.216 273.124 262.636 273.423 262.99C273.722 263.344 274.101 263.623 274.528 263.805C279.874 266.052 296.866 276.416 291.076 315.418C285.697 351.648 283.514 372.955 282.826 380.435C282.745 381.322 282.354 382.153 281.722 382.783C281.09 383.412 280.257 383.801 279.367 383.88C276.746 384.115 272.248 384.426 266.89 384.426C254.471 384.426 237.436 382.754 228.474 374.576Z" fill="#CCCCCC"/>
<path d="M203.545 363.491C203.049 362.481 202.781 361.374 202.759 360.25C202.738 359.125 202.964 358.009 203.421 356.981C203.879 355.953 204.557 355.038 205.407 354.299C206.257 353.561 207.26 353.017 208.343 352.707L234.414 299.54L247.863 309.534L218.105 358.495C218.506 360.346 218.213 362.279 217.281 363.929C216.349 365.579 214.843 366.83 213.049 367.446C211.254 368.062 209.295 368 207.544 367.27C205.792 366.541 204.369 365.196 203.545 363.491Z" fill="#A0616A"/>
<path d="M249.334 311.461C248.823 311.605 248.285 311.618 247.768 311.499L232.07 307.89C231.281 307.709 230.592 307.233 230.145 306.56C229.697 305.888 229.525 305.069 229.664 304.274L235.289 272.032C235.775 269.018 237.35 266.285 239.718 264.35C241.426 262.982 243.473 262.099 245.642 261.794C247.812 261.489 250.023 261.774 252.044 262.619C253.606 263.256 255.01 264.225 256.159 265.459C257.549 266.917 258.553 268.698 259.079 270.641C259.606 272.584 259.639 274.627 259.175 276.586L251.558 309.142C251.428 309.691 251.154 310.196 250.763 310.604C250.372 311.012 249.878 311.308 249.334 311.461Z" fill="#CCCCCC"/>
<path d="M255.963 247.572C254.947 246.538 254.198 245.274 253.778 243.889C253.358 242.504 253.28 241.037 253.551 239.615C254.278 235.818 254.706 233.334 254.787 232.43C255.064 229.339 251.932 226.836 248.832 226.437C248.712 226.422 248.612 226.411 248.528 226.405C248.607 226.482 248.691 226.561 248.766 226.631C249.355 227.182 250.087 227.87 249.913 228.578C249.808 229.005 249.417 229.308 248.718 229.503C243.871 230.857 240.139 229.614 236.971 225.59C236.08 224.447 235.468 223.112 235.182 221.693C234.048 216.137 237.071 211.4 239.808 208.406C242.065 205.937 245.723 202.94 250.336 202.683C253.923 202.483 258.189 204.543 259.466 208.255C260.068 207.365 260.87 206.626 261.808 206.098C262.746 205.571 263.794 205.269 264.869 205.215C267.318 205.163 269.729 205.832 271.799 207.139C281.914 212.921 286.262 226.696 281.292 237.219C278.166 243.838 271.393 248.766 263.617 250.079C263.13 250.162 262.637 250.203 262.143 250.203C260.988 250.202 259.846 249.968 258.784 249.515C257.722 249.063 256.763 248.402 255.963 247.572Z" fill="#2F2E41"/>
<path d="M158.131 534H323.764C323.989 534 324.205 533.911 324.365 533.752C324.524 533.593 324.613 533.377 324.613 533.152C324.613 532.928 324.524 532.712 324.365 532.553C324.205 532.394 323.989 532.305 323.764 532.305H158.131C157.905 532.305 157.689 532.394 157.53 532.553C157.371 532.712 157.281 532.928 157.281 533.152C157.281 533.377 157.371 533.593 157.53 533.752C157.689 533.911 157.905 534 158.131 534Z" fill="#3F3D56"/>
</g>
<defs>
<clipPath id="clip0_1616_25170">
<rect width="511" height="534" fill="white" transform="translate(0.5)"/>
</clipPath>
</defs>
</svg>
