<svg width="160" height="111" viewBox="0 0 160 111" fill="none" xmlns="http://www.w3.org/2000/svg">
<path d="M159.308 70.2568C159.769 70.0705 160 70.1637 160 70.5363C160 70.7226 159.723 71.0952 159.169 71.6541C158.061 72.9581 155.8 74.5882 152.384 76.5444C149.707 78.1279 147.076 79.5251 144.492 80.736C137.568 83.9031 131.983 85.114 127.737 84.3688C119.983 82.9716 117.259 75.1006 119.567 60.7557C119.752 59.2653 120.121 57.2626 120.675 54.7476C121.321 52.1394 121.737 50.5093 121.921 49.8573C122.014 49.2984 122.198 48.2272 122.475 46.6437C122.475 46.5505 122.475 46.3177 122.475 45.9451C122.567 45.4793 122.66 45.1533 122.752 44.967C122.844 44.5944 122.798 44.315 122.614 44.1287C122.521 43.9424 122.291 43.9424 121.921 44.1287C121.644 44.2218 121.137 44.4547 120.398 44.8273C118.921 45.7588 116.659 47.5286 113.613 50.1368C110.29 53.0244 107.936 55.0736 106.551 56.2846C101.382 60.6625 96.5816 64.5282 92.1506 67.8815C89.7505 69.7445 87.8581 71.0952 86.4734 71.9335C83.2425 73.9828 81.3039 74.2156 80.6577 72.6321C80.2885 71.7006 80.1962 70.3034 80.3808 68.4404C80.4731 67.1364 80.7039 65.646 81.0731 63.9693C81.627 61.5474 82.4578 58.5201 83.5656 54.8873C84.6733 51.6271 85.9657 47.8546 87.4427 43.5698C89.012 39.1918 90.5351 34.907 92.0121 30.7153C93.4891 26.4305 94.7815 22.6114 95.8892 19.258C97.1816 15.2526 97.9663 12.3185 98.2432 10.4555C98.5201 8.40622 98.2893 7.24186 97.5508 6.96241C96.3508 6.49667 94.92 6.54324 93.2583 7.10213C91.2275 7.84732 88.8273 9.3377 86.058 11.5733C84.1194 13.2499 81.9501 15.2992 79.55 17.7211C73.3651 24.1483 65.5185 33.6495 56.0104 46.2245C48.3485 56.3777 41.2404 66.5775 34.6863 76.8238C33.6708 78.5005 32.5631 80.3634 31.363 82.4127C35.8863 75.3334 40.0865 69.0459 43.9637 63.5501C47.7485 58.1475 53.4256 50.5093 60.9952 40.6356C67.734 31.9728 73.8728 24.8004 79.4115 19.1183C83.4732 15.1129 87.0273 12.1322 90.0736 10.176C92.0121 8.9651 93.5814 8.26649 94.7815 8.0802C95.6123 8.0802 96.2123 8.17334 96.5816 8.35964C96.8585 8.54594 96.9508 8.96511 96.8585 9.61714C96.8585 10.2692 96.6739 11.2938 96.3046 12.691C95.6584 15.2061 94.5045 18.7457 92.8429 23.31C92.6583 23.5894 91.9198 25.499 90.6274 29.0386C89.3351 32.5783 88.3658 35.233 87.7196 37.0028C83.0117 49.671 80.15 58.7064 79.1346 64.109C78.5807 66.9035 78.3499 69.139 78.4422 70.8157C78.6269 73.6102 79.5038 75.2403 81.0731 75.706C82.4578 76.0786 84.581 75.4731 87.4427 73.8896C89.012 72.865 90.9505 71.5143 93.2583 69.8377C95.4738 68.161 97.7816 66.3446 100.182 64.3885C102.674 62.4324 105.49 60.1502 108.628 57.5421C111.767 54.8408 114.075 52.8846 115.552 51.6737C116.567 50.8354 117.259 50.2765 117.629 49.997C118.367 49.4381 118.875 49.1121 119.152 49.019C119.337 49.019 119.429 49.1587 119.429 49.4381C119.337 49.6244 119.244 49.9039 119.152 50.2765C119.06 50.6491 119.013 50.8819 119.013 50.9751C117.998 55.1668 117.259 59.0324 116.798 62.5721C115.413 73.2842 116.983 80.5032 121.506 84.2291C123.998 86.2784 127.322 87.1633 131.476 86.8838C133.506 86.6975 135.722 86.2784 138.122 85.6263C138.307 85.5332 138.722 85.3935 139.368 85.2072C140.107 84.9277 140.707 84.7414 141.168 84.6483C142.276 84.3688 143.061 84.2291 143.522 84.2291C144.168 84.2291 144.076 84.5086 143.245 85.0674C142.784 85.44 142.091 85.8126 141.168 86.1852C139.23 87.0236 137.06 87.629 134.66 88.0016C132.26 88.4674 130.045 88.6071 128.014 88.4208C124.044 87.955 120.906 86.325 118.598 83.5305C116.383 80.8292 115.09 77.1964 114.721 72.6321C114.352 68.9993 114.49 64.8542 115.136 60.1968C115.321 59.1722 115.506 58.0078 115.69 56.7037C116.059 54.7476 116.244 53.7695 116.244 53.7695C116.152 53.7695 116.013 53.8627 115.829 54.049C115.644 54.2353 115.413 54.4682 115.136 54.7476C114.952 54.9339 114.813 55.0736 114.721 55.1668C106.044 62.7118 100.043 67.7884 96.72 70.3966C92.6583 73.6568 89.4735 75.8923 87.1657 77.1032C84.8579 78.3142 82.9194 78.8265 81.3501 78.6402C79.3192 78.4539 77.796 77.3827 76.7806 75.4266C75.7652 73.6568 75.4421 71.0952 75.8113 67.7418C76.1806 64.6679 77.1037 60.616 78.5807 55.5859C79.8731 51.208 82.6424 43.0575 86.8888 31.1345C88.9197 25.4524 90.3505 21.4004 91.1813 18.9786C92.0121 16.3704 92.6583 14.2746 93.1199 12.691C93.2122 12.2253 93.2583 11.9924 93.2583 11.9924C93.2583 11.8993 93.0737 11.9459 92.7045 12.1322C90.3967 13.3431 87.258 15.8115 83.2886 19.5375C80.5193 22.2388 77.6114 25.2661 74.5651 28.6194C69.3033 34.6741 63.9954 41.3342 58.6413 48.5998C56.7027 51.208 53.9795 55.0736 50.4717 60.1968C46.9638 65.32 44.8868 68.3939 44.2406 69.4185C38.8865 77.0567 34.1786 84.1825 30.1168 90.7961C29.0091 92.7522 27.9937 94.4754 27.0705 95.9658C26.7013 97.1767 26.3782 98.2945 26.1013 99.3192C24.9935 102.952 24.0242 105.56 23.1934 107.144C22.3626 108.82 21.3472 109.938 20.1471 110.497C19.1317 111.056 18.0701 111.149 16.9624 110.776C15.8546 110.497 15.0238 109.845 14.4699 108.82C13.6391 107.423 13.6391 105.607 14.4699 103.371C15.1161 101.508 16.3162 98.9931 18.0701 95.8261C18.7163 94.6152 19.5009 93.2645 20.4241 91.7741C21.7164 87.303 22.7319 83.5771 23.4704 80.5963C25.132 74.0759 26.609 66.5775 27.9013 58.1009C29.286 49.5313 30.0707 41.7068 30.2553 34.6275C30.5322 25.0332 29.6091 17.7211 27.4859 12.691C26.0089 9.24455 24.0704 7.00899 21.6703 5.98436C18.624 4.68028 15.3469 5.23917 11.839 7.66103C11.2852 7.94047 10.7313 8.31307 10.1774 8.77881C9.25429 9.71029 7.96192 11.2007 6.3003 13.2499C4.63868 15.2061 3.66941 16.3238 3.39247 16.6033C1.45392 18.8388 0.346171 19.4443 0.0692341 18.4197C-0.023078 18.2334 -0.023078 18.0005 0.0692341 17.7211C0.253858 16.0444 1.13082 13.8554 2.70013 11.1541C5.93105 5.56519 10.0389 2.07212 15.0238 0.674885C20.101 -0.815488 24.5319 0.162572 28.3167 3.60907C30.5322 5.75148 32.3323 8.68566 33.717 12.4116C35.3786 16.8827 36.3941 22.0059 36.7633 27.7811C36.9479 32.718 36.7633 38.7261 36.2094 45.8053C35.6556 51.6737 34.9171 57.6352 33.9939 63.6899C33.5324 66.7638 33.0247 69.6979 32.4708 72.4924C39.6711 61.594 46.4561 51.9531 52.8256 43.5698C62.1491 31.4605 69.7187 22.3785 75.5344 16.3238C80.7039 11.1075 85.1349 7.42816 88.8273 5.28574C90.9505 4.07481 92.9352 3.3762 94.7815 3.1899C98.1047 2.8173 100.274 3.74879 101.289 5.98436C101.936 7.66103 101.797 10.3158 100.874 13.9486C100.689 14.6006 100.413 15.5321 100.043 16.743C98.8432 20.8415 97.0431 26.1044 94.643 32.5317C94.3661 33.2769 93.3506 35.9316 91.5967 40.4959C89.8428 44.967 88.6427 48.0875 87.9965 49.8573C87.4427 51.534 86.658 54.0956 85.6426 57.5421C84.7195 60.8954 84.0733 63.9693 83.704 66.7638C83.5194 67.8815 83.4271 68.6267 83.4271 68.9993C83.3348 69.6514 83.4732 70.024 83.8425 70.1171C84.0271 70.1171 84.3041 70.024 84.6733 69.8377C85.9657 69.0925 88.135 67.6021 91.1813 65.3665C93.2122 63.783 97.8739 59.9639 105.167 53.9093C105.813 53.4435 106.505 52.8846 107.244 52.2326C108.074 51.5806 108.813 51.0217 109.459 50.5559C110.105 49.997 110.798 49.3916 111.536 48.7395C112.275 48.0875 112.967 47.5286 113.613 47.0629C116.198 44.9204 118.09 43.5698 119.29 43.0109C120.398 42.3589 121.552 42.0328 122.752 42.0328C123.491 42.0328 123.952 42.2191 124.137 42.5917C124.137 42.6849 124.183 43.0109 124.275 43.5698C124.46 44.5013 124.552 45.1533 124.552 45.5259C124.46 45.619 124.414 45.7588 124.414 45.9451C124.414 46.1314 124.414 46.3177 124.414 46.504C124.414 46.6903 124.414 46.83 124.414 46.9231C124.321 47.3889 123.767 49.6244 122.752 53.6298C121.921 56.7969 121.367 59.6845 121.09 62.2926C120.721 65.1802 120.629 67.7884 120.813 70.1171C121.09 76.3581 122.844 80.2237 126.075 81.7141C127.829 82.5524 130.091 82.7853 132.86 82.4127C135.353 82.2264 138.168 81.4812 141.307 80.1771C146.199 78.3142 151.369 75.5197 156.815 71.7938C158.2 70.8623 159.031 70.35 159.308 70.2568Z" fill="#C26499"/>
</svg>
