<svg width="309" height="130" viewBox="0 0 309 130" fill="none" xmlns="http://www.w3.org/2000/svg">
<path d="M111.18 50.224C111.5 50.096 111.66 50.16 111.66 50.416C111.66 50.544 111.468 50.8 111.083 51.184C110.316 52.08 108.748 53.2 106.38 54.544C104.524 55.632 102.7 56.592 100.908 57.424C96.1075 59.6 92.2355 60.432 89.2915 59.92C83.9155 58.96 82.0275 53.552 83.6275 43.696C83.7555 42.672 84.0115 41.296 84.3955 39.568C84.8435 37.776 85.1315 36.656 85.2595 36.208C85.3235 35.824 85.4515 35.088 85.6435 34C85.6435 33.936 85.6435 33.776 85.6435 33.52C85.7075 33.2 85.7715 32.976 85.8355 32.848C85.8995 32.592 85.8675 32.4 85.7395 32.272C85.6755 32.144 85.5155 32.144 85.2595 32.272C85.0675 32.336 84.7155 32.496 84.2035 32.752C83.1795 33.392 81.6115 34.608 79.4995 36.4C77.1955 38.384 75.5635 39.792 74.6035 40.624C71.0195 43.632 67.6915 46.288 64.6195 48.592C62.9555 49.872 61.6435 50.8 60.6835 51.376C58.4435 52.784 57.0995 52.944 56.6515 51.856C56.3955 51.216 56.3315 50.256 56.4595 48.976C56.5235 48.08 56.6835 47.056 56.9395 45.904C57.3235 44.24 57.8995 42.16 58.6675 39.664C59.4355 37.424 60.3315 34.832 61.3555 31.888C62.4435 28.88 63.4995 25.936 64.5235 23.056C65.5475 20.112 66.4435 17.488 67.2115 15.184C68.1075 12.432 68.6515 10.416 68.8435 9.136C69.0355 7.728 68.8755 6.928 68.3635 6.736C67.5315 6.416 66.5395 6.448 65.3875 6.832C63.9795 7.344 62.3155 8.368 60.3955 9.904C59.0515 11.056 57.5475 12.464 55.8835 14.128C51.5955 18.544 46.1555 25.072 39.5635 33.712C34.2515 40.688 29.3235 47.696 24.7795 54.736C24.0755 55.888 23.3075 57.168 22.4755 58.576C25.6115 53.712 28.5235 49.392 31.2115 45.616C33.8355 41.904 37.7715 36.656 43.0195 29.872C47.6915 23.92 51.9475 18.992 55.7875 15.088C58.6035 12.336 61.0675 10.288 63.1795 8.944C64.5235 8.112 65.6115 7.632 66.4435 7.504C67.0195 7.504 67.4355 7.568 67.6915 7.696C67.8835 7.824 67.9475 8.112 67.8835 8.56C67.8835 9.008 67.7555 9.712 67.4995 10.672C67.0515 12.4 66.2515 14.832 65.0995 17.968C64.9715 18.16 64.4595 19.472 63.5635 21.904C62.6675 24.336 61.9955 26.16 61.5475 27.376C58.2835 36.08 56.2995 42.288 55.5955 46C55.2115 47.92 55.0515 49.456 55.1155 50.608C55.2435 52.528 55.8515 53.648 56.9395 53.968C57.8995 54.224 59.3715 53.808 61.3555 52.72C62.4435 52.016 63.7875 51.088 65.3875 49.936C66.9235 48.784 68.5235 47.536 70.1875 46.192C71.9155 44.848 73.8675 43.28 76.0435 41.488C78.2195 39.632 79.8195 38.288 80.8435 37.456C81.5475 36.88 82.0275 36.496 82.2835 36.304C82.7955 35.92 83.1475 35.696 83.3395 35.632C83.4675 35.632 83.5315 35.728 83.5315 35.92C83.4675 36.048 83.4035 36.24 83.3395 36.496C83.2755 36.752 83.2435 36.912 83.2435 36.976C82.5395 39.856 82.0275 42.512 81.7075 44.944C80.7475 52.304 81.8355 57.264 84.9715 59.824C86.6995 61.232 89.0035 61.84 91.8835 61.648C93.2915 61.52 94.8275 61.232 96.4915 60.784C96.6195 60.72 96.9075 60.624 97.3555 60.496C97.8675 60.304 98.2835 60.176 98.6035 60.112C99.3715 59.92 99.9155 59.824 100.236 59.824C100.684 59.824 100.62 60.016 100.044 60.4C99.7235 60.656 99.2435 60.912 98.6035 61.168C97.2595 61.744 95.7555 62.16 94.0915 62.416C92.4275 62.736 90.8915 62.832 89.4835 62.704C86.7315 62.384 84.5555 61.264 82.9555 59.344C81.4195 57.488 80.5235 54.992 80.2675 51.856C80.0115 49.36 80.1075 46.512 80.5555 43.312C80.6835 42.608 80.8115 41.808 80.9395 40.912C81.1955 39.568 81.3235 38.896 81.3235 38.896C81.2595 38.896 81.1635 38.96 81.0355 39.088C80.9075 39.216 80.7475 39.376 80.5555 39.568C80.4275 39.696 80.3315 39.792 80.2675 39.856C74.2515 45.04 70.0915 48.528 67.7875 50.32C64.9715 52.56 62.7635 54.096 61.1635 54.928C59.5635 55.76 58.2195 56.112 57.1315 55.984C55.7235 55.856 54.6675 55.12 53.9635 53.776C53.2595 52.56 53.0355 50.8 53.2915 48.496C53.5475 46.384 54.1875 43.6 55.2115 40.144C56.1075 37.136 58.0275 31.536 60.9715 23.344C62.3795 19.44 63.3715 16.656 63.9475 14.992C64.5235 13.2 64.9715 11.76 65.2915 10.672C65.3555 10.352 65.3875 10.192 65.3875 10.192C65.3875 10.128 65.2595 10.16 65.0035 10.288C63.4035 11.12 61.2275 12.816 58.4755 15.376C56.5555 17.232 54.5395 19.312 52.4275 21.616C48.7795 25.776 45.0995 30.352 41.3875 35.344C40.0435 37.136 38.1555 39.792 35.7235 43.312C33.2915 46.832 31.8515 48.944 31.4035 49.648C27.6915 54.896 24.4275 59.792 21.6115 64.336C20.8435 65.68 20.1395 66.864 19.4995 67.888C19.2435 68.72 19.0195 69.488 18.8275 70.192C18.0595 72.688 17.3875 74.48 16.8115 75.568C16.2355 76.72 15.5315 77.488 14.6995 77.872C13.9955 78.256 13.2595 78.32 12.4915 78.064C11.7235 77.872 11.1475 77.424 10.7635 76.72C10.1875 75.76 10.1875 74.512 10.7635 72.976C11.2115 71.696 12.0435 69.968 13.2595 67.792C13.7075 66.96 14.2515 66.032 14.8915 65.008C15.7875 61.936 16.4915 59.376 17.0035 57.328C18.1555 52.848 19.1795 47.696 20.0755 41.872C21.0355 35.984 21.5795 30.608 21.7075 25.744C21.8995 19.152 21.2595 14.128 19.7875 10.672C18.7635 8.304 17.4195 6.768 15.7555 6.064C13.6435 5.168 11.3715 5.552 8.9395 7.216C8.5555 7.408 8.1715 7.664 7.7875 7.984C7.1475 8.624 6.2515 9.648 5.0995 11.056C3.9475 12.4 3.2755 13.168 3.0835 13.36C1.7395 14.896 0.9715 15.312 0.7795 14.608C0.7155 14.48 0.7155 14.32 0.7795 14.128C0.9075 12.976 1.5155 11.472 2.6035 9.616C4.8435 5.776 7.6915 3.376 11.1475 2.41599C14.6675 1.392 17.7395 2.064 20.3635 4.432C21.8995 5.904 23.1475 7.92 24.1075 10.48C25.2595 13.552 25.9635 17.072 26.2195 21.04C26.3475 24.432 26.2195 28.56 25.8355 33.424C25.4515 37.456 24.9395 41.552 24.2995 45.712C23.9795 47.824 23.6275 49.84 23.2435 51.76C28.2355 44.272 32.9395 37.648 37.3555 31.888C43.8195 23.568 49.0675 17.328 53.0995 13.168C56.6835 9.584 59.7555 7.056 62.3155 5.584C63.7875 4.752 65.1635 4.272 66.4435 4.144C68.7475 3.88799 70.2515 4.528 70.9555 6.064C71.4035 7.216 71.3075 9.04 70.6675 11.536C70.5395 11.984 70.3475 12.624 70.0915 13.456C69.2595 16.272 68.0115 19.888 66.3475 24.304C66.1555 24.816 65.4515 26.64 64.2355 29.776C63.0195 32.848 62.1875 34.992 61.7395 36.208C61.3555 37.36 60.8115 39.12 60.1075 41.488C59.4675 43.792 59.0195 45.904 58.7635 47.824C58.6355 48.592 58.5715 49.104 58.5715 49.36C58.5075 49.808 58.6035 50.064 58.8595 50.128C58.9875 50.128 59.1795 50.064 59.4355 49.936C60.3315 49.424 61.8355 48.4 63.9475 46.864C65.3555 45.776 68.5875 43.152 73.6435 38.992C74.0915 38.672 74.5715 38.288 75.0835 37.84C75.6595 37.392 76.1715 37.008 76.6195 36.688C77.0675 36.304 77.5475 35.888 78.0595 35.44C78.5715 34.992 79.0515 34.608 79.4995 34.288C81.2915 32.816 82.6035 31.888 83.4355 31.504C84.2035 31.056 85.0035 30.832 85.8355 30.832C86.3475 30.832 86.6675 30.96 86.7955 31.216C86.7955 31.28 86.8275 31.504 86.8915 31.888C87.0195 32.528 87.0835 32.976 87.0835 33.232C87.0195 33.296 86.9875 33.392 86.9875 33.52C86.9875 33.648 86.9875 33.776 86.9875 33.904C86.9875 34.032 86.9875 34.128 86.9875 34.192C86.9235 34.512 86.5395 36.048 85.8355 38.8C85.2595 40.976 84.8755 42.96 84.6835 44.752C84.4275 46.736 84.3635 48.528 84.4915 50.128C84.6835 54.416 85.8995 57.072 88.1395 58.096C89.3555 58.672 90.9235 58.832 92.8435 58.576C94.5715 58.448 96.5235 57.936 98.6995 57.04C102.092 55.76 105.676 53.84 109.452 51.28C110.412 50.64 110.988 50.288 111.18 50.224ZM140.399 60.208C140.527 59.952 140.719 59.824 140.975 59.824C141.231 59.824 141.359 60.016 141.359 60.4C141.359 60.528 141.199 60.944 140.879 61.648C140.687 62.032 140.495 62.416 140.303 62.8C139.855 63.632 139.407 64.4 138.959 65.104C137.871 66.768 136.751 67.984 135.599 68.752C132.975 70.48 130.415 70.512 127.919 68.848C125.231 67.056 123.663 64.08 123.215 59.92C123.151 59.792 123.119 59.664 123.119 59.536C123.119 59.408 123.119 59.28 123.119 59.152C123.119 58.96 123.119 58.8 123.119 58.672C123.119 58.544 123.119 58.416 123.119 58.288C123.119 58.096 123.087 57.968 123.023 57.904C123.023 57.776 122.991 57.712 122.927 57.712C122.927 57.712 122.863 57.776 122.735 57.904C122.415 58.224 122.223 58.448 122.159 58.576C120.815 59.856 119.823 60.848 119.183 61.552C118.031 62.832 117.007 63.792 116.111 64.432C114.959 65.264 113.807 65.712 112.655 65.776C110.863 65.84 109.455 65.104 108.431 63.568C107.087 61.584 106.927 58.928 107.951 55.6C108.399 54.192 109.071 52.816 109.967 51.472C110.799 50.256 112.015 49.104 113.615 48.016C117.007 45.776 120.239 45.04 123.311 45.808C124.847 46.256 126.287 47.024 127.631 48.112C128.975 49.2 129.999 50.48 130.703 51.952C130.767 52.144 130.831 52.304 130.895 52.432C130.959 52.688 131.023 52.944 131.087 53.2C131.279 53.968 131.183 54.608 130.799 55.12C130.607 55.44 130.319 55.632 129.935 55.696C129.551 55.696 129.231 55.568 128.975 55.312C128.783 55.12 128.591 54.896 128.399 54.64C128.399 54.768 128.367 54.96 128.303 55.216C128.303 55.472 128.303 55.696 128.303 55.888C128.303 56.08 128.271 56.304 128.207 56.56C128.207 56.816 128.207 57.04 128.207 57.232C128.207 57.872 128.367 58.992 128.687 60.592C129.007 62.448 129.615 63.824 130.511 64.72C131.151 65.232 131.823 65.424 132.527 65.296C133.231 65.168 133.839 64.784 134.351 64.144C134.543 63.888 134.767 63.536 135.023 63.088C135.343 62.64 135.535 62.352 135.599 62.224C135.727 62.032 135.887 61.84 136.079 61.648C136.271 61.392 136.431 61.136 136.559 60.88C136.751 60.624 136.911 60.432 137.039 60.304C137.295 59.984 138.095 58.448 139.439 55.696C139.567 55.44 139.727 55.312 139.919 55.312C140.111 55.248 140.271 55.344 140.399 55.6C140.463 55.92 140.271 56.592 139.823 57.616C138.927 59.536 138.127 61.104 137.423 62.32C136.335 63.984 135.279 65.2 134.255 65.968C132.719 67.056 131.279 67.216 129.935 66.448C128.911 65.808 127.983 64.528 127.151 62.608C126.511 61.008 126.223 59.376 126.287 57.712C126.351 57.456 126.415 56.944 126.479 56.176C126.543 55.408 126.575 54.8 126.575 54.352C126.575 53.712 126.319 53.168 125.807 52.72C125.359 52.272 124.815 52.144 124.175 52.336C123.791 52.4 123.151 52.944 122.255 53.968C121.359 55.056 120.847 55.664 120.719 55.792C119.503 57.328 118.799 58.192 118.607 58.384C118.479 58.576 118.223 58.896 117.839 59.344C117.519 59.792 117.231 60.144 116.975 60.4C116.783 60.656 116.495 60.944 116.111 61.264C115.791 61.584 115.471 61.872 115.151 62.128C113.423 63.344 112.015 63.44 110.927 62.416C110.223 61.712 109.807 60.624 109.679 59.152C109.679 59.536 109.711 59.92 109.775 60.304C109.967 61.904 110.735 62.896 112.079 63.28C112.527 63.28 112.879 63.312 113.135 63.376C113.455 63.44 113.807 63.376 114.191 63.184C114.639 62.928 114.991 62.736 115.247 62.608C115.503 62.416 115.791 62.16 116.111 61.84C116.495 61.52 116.783 61.264 116.975 61.072C117.167 60.816 117.423 60.528 117.743 60.208C118.063 59.824 118.319 59.536 118.511 59.344C120.367 57.424 121.391 56.336 121.583 56.08C121.647 56.016 121.871 55.76 122.255 55.312C122.895 54.544 123.343 54.128 123.599 54.064C123.919 53.936 124.239 53.968 124.559 54.16C124.879 54.352 125.071 54.64 125.135 55.024C125.199 55.152 125.167 55.6 125.039 56.368C124.975 56.816 124.943 57.2 124.943 57.52C124.879 58.544 125.103 60.112 125.615 62.224C126.063 64.144 126.863 65.68 128.015 66.832C128.527 67.344 129.071 67.76 129.647 68.08C130.223 68.4 130.863 68.592 131.567 68.656C133.039 68.72 134.543 68.048 136.079 66.64C137.231 65.616 138.287 64.24 139.247 62.512C139.311 62.384 139.471 62.032 139.727 61.456C139.983 60.88 140.207 60.464 140.399 60.208ZM119.855 53.008C121.135 51.6 122.031 50.768 122.543 50.512C122.671 50.448 122.799 50.416 122.927 50.416C122.415 50.224 121.903 50.128 121.391 50.128C119.215 50 117.167 51.024 115.247 53.2C114.415 54.224 113.743 55.504 113.231 57.04C112.911 58.064 112.751 58.8 112.751 59.248C112.687 59.76 112.751 60.048 112.943 60.112C113.071 60.112 113.295 59.984 113.615 59.728C113.871 59.536 114.159 59.28 114.479 58.96C114.863 58.576 115.375 58 116.015 57.232C116.719 56.464 117.135 56.048 117.263 55.984C118.095 55.024 118.959 54.032 119.855 53.008ZM166.63 58.384C166.822 58.576 166.758 58.992 166.438 59.632C166.246 60.144 165.99 60.72 165.67 61.36C164.262 64.304 162.95 66.8 161.734 68.848C160.006 71.664 158.342 73.776 156.742 75.184C154.63 76.976 152.582 77.616 150.598 77.104C147.206 76.336 145.67 72.944 145.99 66.928C146.118 64.368 146.598 61.648 147.43 58.768C147.878 57.296 148.326 56.048 148.774 55.024C148.774 54.96 148.838 54.832 148.966 54.64C149.094 54.384 149.19 54.16 149.254 53.968C149.382 53.776 149.446 53.648 149.446 53.584C149.446 53.584 149.35 53.68 149.158 53.872C149.158 53.808 149.158 53.712 149.158 53.584C149.222 53.456 149.254 53.392 149.254 53.392C149.254 53.392 149.094 53.52 148.774 53.776L148.294 54.16C147.782 54.544 147.494 54.768 147.43 54.832C146.726 55.344 145.638 56.016 144.166 56.848C140.774 58.768 138.438 58.736 137.158 56.752C136.454 55.536 136.166 54.256 136.294 52.912C136.358 51.568 136.742 50.288 137.446 49.072C138.022 47.92 138.822 47.024 139.846 46.384C140.87 45.744 141.894 45.744 142.918 46.384C144.39 47.28 144.614 48.848 143.59 51.088C143.718 51.024 143.878 50.896 144.07 50.704C144.902 50 146.054 48.944 147.526 47.536C149.062 46.064 150.086 45.104 150.598 44.656C152.39 43.056 153.766 42.16 154.726 41.968C156.39 41.648 157.542 42.064 158.182 43.216C158.63 44.112 158.47 45.616 157.702 47.728C157.51 48.368 157.126 49.264 156.55 50.416C155.974 51.568 155.622 52.272 155.494 52.528C154.854 54.064 154.31 55.408 153.862 56.56C152.838 59.312 152.006 62.544 151.366 66.256C150.982 68.624 151.046 70.352 151.558 71.44C151.878 72.144 152.582 72.048 153.67 71.152C154.822 70.192 156.006 68.976 157.222 67.504C158.438 65.968 159.334 64.496 159.91 63.088C160.294 62.256 161.19 60.72 162.598 58.48C162.918 58.032 163.206 57.552 163.462 57.04C163.782 56.528 164.07 55.952 164.326 55.312C164.646 54.672 164.934 54.16 165.19 53.776C165.446 53.328 165.702 53.136 165.958 53.2C166.15 53.328 166.214 53.584 166.15 53.968C166.15 54.224 165.958 54.704 165.574 55.408C165.51 55.6 165.286 56.048 164.902 56.752C164.326 57.904 163.846 58.896 163.462 59.728C162.182 62.096 161.094 63.984 160.198 65.392C160.07 65.648 159.686 66.288 159.046 67.312C158.406 68.272 157.958 68.944 157.702 69.328C157.446 69.712 157.03 70.256 156.454 70.96C155.878 71.728 155.302 72.304 154.726 72.688C154.15 73.136 153.51 73.488 152.806 73.744C151.782 74.192 150.95 74.096 150.31 73.456C149.734 72.88 149.382 71.92 149.254 70.576C149.19 69.296 149.158 68.208 149.158 67.312C149.222 66.416 149.318 65.52 149.446 64.624C149.894 60.784 150.694 57.296 151.846 54.16C152.486 52.432 153.382 50.48 154.534 48.304C155.238 46.96 155.622 46 155.686 45.424C155.75 44.656 155.142 44.816 153.862 45.904C153.35 46.288 152.774 46.8 152.134 47.44C152.198 47.376 152.294 47.312 152.422 47.248C152.55 47.12 152.678 47.024 152.806 46.96C153.638 46.256 154.214 45.84 154.534 45.712C154.854 45.52 155.046 45.552 155.11 45.808C155.174 46 155.142 46.224 155.014 46.48C154.822 47.056 154.246 48.208 153.286 49.936C152.39 51.6 151.462 53.68 150.502 56.176C150.118 57.136 149.51 59.28 148.678 62.608C147.782 65.872 147.526 68.592 147.91 70.768C148.294 73.456 149.414 74.992 151.27 75.376C152.934 75.76 154.95 74.736 157.318 72.304C158.406 71.28 159.558 69.712 160.774 67.6C161.03 67.28 161.382 66.736 161.83 65.968C162.342 65.136 162.726 64.528 162.982 64.144C163.494 63.184 164.134 61.936 164.902 60.4C164.902 60.4 164.934 60.336 164.998 60.208C165.062 60.016 165.126 59.856 165.19 59.728C165.254 59.6 165.318 59.44 165.382 59.248C165.51 59.056 165.606 58.928 165.67 58.864C165.798 58.736 165.894 58.608 165.958 58.48C166.086 58.352 166.182 58.288 166.246 58.288C166.374 58.288 166.502 58.32 166.63 58.384ZM186.759 46.672C186.823 47.056 186.791 47.728 186.663 48.688C185.895 52.976 185.287 56.144 184.839 58.192C184.647 59.216 184.423 60.336 184.167 61.552C183.911 62.704 183.655 63.856 183.399 65.008C183.207 66.16 183.015 67.28 182.823 68.368C182.631 69.392 182.407 70.512 182.151 71.728C181.959 73.008 181.767 74.16 181.575 75.184C181.447 75.632 181.255 76.4 180.999 77.488C180.807 78.576 180.679 79.376 180.615 79.888C180.423 80.656 180.103 81.84 179.655 83.44C179.271 85.104 179.015 86.352 178.887 87.184C178.759 87.824 178.599 88.72 178.407 89.872C178.279 91.024 178.183 91.824 178.119 92.272C178.055 92.656 177.703 94.416 177.062 97.552C176.551 99.856 175.783 103.216 174.759 107.632C174.183 110 173.831 111.696 173.703 112.72C173.447 115.216 173.191 116.912 172.935 117.808C172.871 118.128 172.679 118.864 172.359 120.016C172.039 121.232 171.815 122.192 171.687 122.896C171.623 123.024 171.463 123.728 171.207 125.008C170.951 126.288 170.727 127.28 170.535 127.984C170.407 128.752 170.183 129.04 169.863 128.848C169.543 128.72 169.447 128.24 169.575 127.408C169.575 127.152 169.607 126.864 169.671 126.544C169.735 126.224 169.799 125.872 169.863 125.488C169.991 125.168 170.055 124.912 170.055 124.72C170.183 124.144 170.375 123.248 170.631 122.032C171.655 116.848 172.359 113.264 172.743 111.28C172.935 110.256 173.191 108.656 173.511 106.48C173.831 104.368 174.087 102.768 174.279 101.68C174.343 101.296 174.503 100.56 174.759 99.472C175.015 98.384 175.175 97.552 175.239 96.976C175.303 96.784 175.559 95.216 176.007 92.272C176.135 91.376 176.391 90.032 176.775 88.24C177.159 86.512 177.415 85.296 177.543 84.592C177.607 84.08 177.735 83.312 177.927 82.288C178.119 81.328 178.215 80.72 178.215 80.464C178.535 78.864 178.919 76.432 179.367 73.168C179.879 69.968 180.263 67.536 180.519 65.872C181.159 62.288 181.767 59.12 182.343 56.368C182.471 55.728 182.599 54.928 182.727 53.968C182.471 54.416 182.343 54.672 182.343 54.736C181.511 58.64 180.935 61.36 180.615 62.896C180.423 63.856 180.135 65.296 179.751 67.216C179.367 69.072 179.079 70.48 178.887 71.44C178.311 74.64 177.735 77.392 177.159 79.696C176.327 83.152 175.719 85.968 175.335 88.144C175.271 88.528 175.207 88.976 175.143 89.488C175.079 90 174.983 90.512 174.855 91.024C174.791 91.536 174.727 91.984 174.663 92.368C174.599 92.688 174.311 94.128 173.799 96.688C172.583 102.128 171.975 104.912 171.975 105.04C171.911 105.36 171.847 105.712 171.783 106.096C171.719 106.48 171.655 106.832 171.591 107.152C171.591 107.472 171.559 107.824 171.495 108.208C171.431 108.592 171.367 108.944 171.303 109.264C171.239 109.904 170.983 111.28 170.535 113.392C170.279 114.672 170.023 116.048 169.767 117.52C169.319 120.336 169.063 121.776 168.999 121.84C168.871 122.416 168.679 122.736 168.423 122.8C168.167 122.8 168.007 122.64 167.943 122.32C167.943 122.128 168.039 121.456 168.23 120.304C168.295 119.856 168.391 119.184 168.519 118.288C168.647 117.456 168.775 116.528 168.903 115.504C169.095 114.544 169.255 113.52 169.383 112.432C169.575 111.344 169.735 110.416 169.863 109.648C169.991 108.944 170.119 108.048 170.247 106.96C170.439 105.872 170.599 104.816 170.727 103.792C170.919 102.832 171.079 101.936 171.207 101.104C174.023 85.168 176.199 73.84 177.734 67.12C178.055 65.584 178.567 62.896 179.271 59.056C179.271 59.056 179.239 59.088 179.174 59.152C178.343 60.24 177.159 61.52 175.623 62.992C172.807 65.808 170.247 66.928 167.943 66.352C166.343 65.968 165.223 65.04 164.582 63.568C163.942 62.032 163.686 60.368 163.814 58.576C164.006 55.248 164.742 51.792 166.023 48.208C166.151 48.016 166.247 47.792 166.311 47.536C166.503 47.024 166.727 46.576 166.983 46.192C167.175 45.872 167.431 45.552 167.751 45.232C168.071 44.912 168.423 44.656 168.807 44.464C169.255 44.272 169.607 44.368 169.863 44.752C170.055 45.072 170.087 45.584 169.959 46.288C169.895 46.544 169.831 46.8 169.767 47.056C169.703 47.248 169.607 47.504 169.479 47.824C169.415 48.08 169.383 48.304 169.383 48.496C169.191 49.2 168.903 50.864 168.519 53.488C168.263 55.728 168.135 57.456 168.135 58.672C168.199 59.696 168.327 60.528 168.519 61.168C168.711 61.808 169.063 62.032 169.575 61.84C170.151 61.52 170.887 60.912 171.783 60.016C172.743 59.056 173.799 57.744 174.951 56.08C175.719 54.992 176.743 53.36 178.023 51.184C179.367 49.008 180.199 47.728 180.519 47.344C180.583 47.216 180.679 47.056 180.807 46.864C180.935 46.608 181.031 46.448 181.095 46.384C181.159 46.256 181.255 46.096 181.383 45.904C181.575 45.648 181.703 45.488 181.767 45.424C181.831 45.36 181.959 45.232 182.151 45.04C182.343 44.848 182.471 44.752 182.535 44.752C182.663 44.688 182.823 44.592 183.015 44.464C183.271 44.336 183.463 44.304 183.591 44.368C183.783 44.368 184.007 44.368 184.263 44.368C184.903 44.432 185.447 44.688 185.895 45.136C186.343 45.52 186.631 46.032 186.759 46.672ZM224.031 58.384C224.287 58.192 224.543 58.064 224.799 58C225.055 57.872 225.215 57.936 225.279 58.192C225.215 58.704 224.639 59.344 223.551 60.112C221.119 61.84 219.135 62.8 217.599 62.992C216.511 63.056 215.615 62.832 214.911 62.32C214.207 61.744 213.695 60.912 213.375 59.824C213.055 58.672 212.831 57.712 212.703 56.944C212.639 56.112 212.575 55.152 212.511 54.064C212.383 51.76 212.191 50.352 211.935 49.84C211.167 48.304 209.631 48.496 207.327 50.416C206.687 50.992 205.727 51.92 204.447 53.2C202.783 54.928 201.439 56.496 200.415 57.904C199.903 58.544 199.263 59.44 198.495 60.592C197.727 61.68 197.183 62.416 196.863 62.8C196.735 63.504 196.607 64.08 196.479 64.528C196.287 65.232 196.127 65.808 195.999 66.256C196.383 65.808 196.895 65.104 197.535 64.144C198.239 63.12 198.783 62.352 199.167 61.84C201.151 59.216 203.071 56.912 204.927 54.928C205.951 53.84 206.911 52.912 207.807 52.144C209.215 51.056 210.111 50.832 210.495 51.472C210.623 51.728 210.719 52.592 210.783 54.064C210.847 55.024 210.911 55.856 210.975 56.56C211.359 60.144 212.415 62.544 214.143 63.76C215.231 64.464 216.511 64.72 217.983 64.528C218.047 64.528 218.175 64.496 218.367 64.432C218.623 64.368 218.879 64.304 219.135 64.24C219.391 64.176 219.647 64.144 219.903 64.144C220.159 64.08 220.383 64.08 220.575 64.144C220.767 64.144 220.863 64.208 220.863 64.336C220.927 64.656 220.479 64.976 219.519 65.296C219.327 65.36 219.071 65.424 218.751 65.488C217.407 65.808 216.127 65.776 214.911 65.392C212.671 64.56 211.103 62.48 210.207 59.152C209.887 58 209.663 56.624 209.535 55.024C209.535 54.896 209.503 54.768 209.439 54.64C209.439 54.448 209.439 54.256 209.439 54.064C209.439 53.872 209.407 53.712 209.343 53.584C209.343 53.328 209.343 53.168 209.343 53.104C209.215 52.976 209.023 53.072 208.767 53.392C208.639 53.456 208.447 53.616 208.191 53.872C207.999 54.064 207.871 54.192 207.807 54.256C206.975 55.152 206.015 56.272 204.927 57.616C203.775 58.896 201.983 61.232 199.551 64.624C198.527 66.032 197.663 67.152 196.959 67.984C196.255 68.944 195.743 69.552 195.423 69.808C194.719 70.32 193.919 70.48 193.023 70.288C192.127 70.16 191.454 69.712 191.006 68.944C190.878 68.688 190.782 68.4 190.718 68.08C190.654 67.76 190.654 67.44 190.718 67.12C190.718 66.8 190.75 66.512 190.814 66.256C190.814 66 190.878 65.68 191.006 65.296C191.07 64.912 191.134 64.624 191.198 64.432C191.39 63.408 191.678 61.904 192.062 59.92C192.447 57.936 192.735 56.496 192.927 55.6C193.247 53.872 193.599 52.048 193.983 50.128C194.431 48.144 194.911 45.968 195.423 43.6C195.935 41.232 196.351 39.376 196.671 38.032C197.503 34.064 198.111 31.152 198.495 29.296C198.815 27.504 199.583 24.656 200.799 20.752C201.951 16.912 202.911 14.096 203.679 12.304C204.767 9.68 205.823 7.696 206.847 6.352C208.447 4.24 210.079 3.216 211.743 3.27999C212.575 3.27999 213.311 3.59999 213.951 4.23999C214.591 4.81599 215.039 5.456 215.295 6.16C215.615 6.864 215.871 7.664 216.062 8.56C216.255 10.096 216.255 11.856 216.062 13.84C215.743 16.592 215.103 19.408 214.143 22.288C213.311 24.528 212.031 26.992 210.303 29.68C208.703 32.24 207.007 34.48 205.215 36.4C205.023 36.592 204.831 36.784 204.639 36.976C204.063 37.616 203.487 38.128 202.911 38.512C202.655 38.704 202.303 38.896 201.855 39.088C201.343 41.392 200.831 43.696 200.319 46C200.191 46.768 199.423 50.768 198.015 58C200.767 54.48 203.167 51.824 205.215 50.032C206.559 48.88 207.679 48.112 208.575 47.728C209.471 47.344 210.335 47.312 211.167 47.632C212.063 47.888 212.703 48.464 213.087 49.36C213.407 50 213.599 51.344 213.663 53.392C213.727 55.376 214.111 57.264 214.815 59.056C215.263 60.336 215.743 61.136 216.255 61.456C216.831 61.84 217.631 61.872 218.655 61.552C219.935 61.168 221.727 60.112 224.031 58.384ZM209.631 12.208C208.095 15.664 206.815 19.28 205.791 23.056C204.831 26.384 203.903 29.968 203.007 33.808C203.583 32.976 204.447 31.6 205.599 29.68C206.687 27.888 207.583 26.224 208.287 24.688C210.079 20.784 211.103 17.104 211.359 13.648C211.423 12.688 211.423 11.76 211.359 10.864C211.359 9.96799 211.295 9.51999 211.167 9.51999C211.103 9.51999 210.943 9.712 210.687 10.096C210.367 10.672 210.015 11.376 209.631 12.208ZM194.655 67.984C194.719 67.92 194.815 67.824 194.943 67.696C194.431 67.568 194.079 67.504 193.887 67.504C194.015 67.12 194.111 66.736 194.175 66.352C193.919 66.736 193.663 66.992 193.407 67.12C193.279 66.928 193.023 66.672 192.639 66.352V66.448L192.543 66.64C192.415 67.344 192.415 67.824 192.543 68.08C192.863 68.464 193.215 68.624 193.599 68.56C193.983 68.496 194.335 68.304 194.655 67.984ZM194.943 61.936C195.199 60.592 195.775 57.232 196.671 51.856C197.567 46.48 198.303 42.32 198.879 39.376C199.455 36.496 200.351 32.624 201.567 27.76C201.695 27.056 202.175 25.168 203.007 22.096C203.199 21.52 203.423 20.688 203.679 19.6C203.167 21.072 202.527 23.216 201.759 26.032C200.415 30.96 199.647 33.904 199.455 34.864C197.919 41.392 196.671 47.216 195.711 52.336C195.519 53.488 195.167 55.12 194.655 57.232C194.207 59.28 193.919 60.592 193.791 61.168C193.535 62.192 193.279 63.376 193.023 64.72C193.023 64.72 193.663 63.792 194.943 61.936ZM193.503 67.504C193.567 67.44 193.695 67.44 193.887 67.504C193.887 67.504 193.823 67.504 193.695 67.504C193.631 67.504 193.567 67.504 193.503 67.504ZM193.503 67.408C193.503 67.408 193.471 67.344 193.407 67.216V67.12C193.471 67.248 193.503 67.344 193.503 67.408ZM234.406 39.856C234.726 41.136 234.182 42 232.774 42.448C231.43 42.832 230.374 42.512 229.606 41.488C228.902 40.592 228.806 39.568 229.318 38.416C229.83 37.2 230.662 36.592 231.814 36.592C232.198 36.592 232.646 36.752 233.158 37.072C233.67 37.328 234.022 37.616 234.214 37.936C234.534 38.448 234.598 38.928 234.406 39.376C234.342 39.568 234.182 39.536 233.926 39.28C233.926 38.896 233.798 38.544 233.542 38.224C233.35 37.84 233.03 37.648 232.582 37.648C232.07 37.52 231.59 37.584 231.142 37.84C230.694 38.096 230.406 38.608 230.278 39.376C230.15 40.144 230.406 40.624 231.046 40.816C230.534 40.24 230.438 39.632 230.758 38.992C231.142 38.352 231.686 38.192 232.39 38.512C233.158 38.832 233.286 39.024 232.774 39.088C232.262 39.152 232.006 39.184 232.006 39.184C231.558 39.44 231.526 39.696 231.91 39.952C231.974 40.016 232.23 39.984 232.678 39.856C233.126 39.664 233.478 39.536 233.734 39.472C234.054 39.408 234.278 39.536 234.406 39.856ZM245.35 57.232C245.414 57.36 245.286 57.68 244.966 58.192C244.902 58.256 244.806 58.352 244.678 58.48C244.614 58.608 244.518 58.736 244.39 58.864C244.326 58.992 244.262 59.12 244.198 59.248C242.342 61.872 241.286 63.344 241.03 63.664C239.43 65.456 238.214 66.64 237.382 67.216C234.566 69.328 231.846 70.256 229.222 70C227.878 69.808 226.758 69.456 225.862 68.944C225.158 68.56 224.454 67.92 223.75 67.024C223.366 66.576 223.046 66.16 222.79 65.776C222.534 65.136 222.374 64.24 222.31 63.088C222.246 61.04 222.438 59.248 222.886 57.712C222.95 57.52 223.046 57.328 223.174 57.136C223.238 56.88 223.334 56.688 223.462 56.56C223.526 56.368 223.622 56.176 223.75 55.984C223.814 55.728 223.878 55.504 223.942 55.312C224.006 55.12 224.134 54.736 224.326 54.16C224.582 53.52 224.742 53.04 224.806 52.72C224.998 52.08 225.382 51.312 225.958 50.416C226.086 50.096 226.278 49.68 226.534 49.168C226.854 48.592 227.046 48.24 227.11 48.112C227.11 48.048 227.142 47.984 227.206 47.92C227.27 47.792 227.302 47.696 227.302 47.632C227.622 47.184 228.102 47.024 228.742 47.152C229.446 47.216 229.894 47.504 230.086 48.016C230.214 48.208 230.246 48.56 230.182 49.072C230.182 49.2 230.15 49.424 230.086 49.744C230.086 50 230.086 50.128 230.086 50.128C230.086 50.64 229.926 51.376 229.606 52.336C229.222 53.808 228.838 55.312 228.454 56.848C228.198 58.064 228.038 58.864 227.974 59.248C227.974 59.504 227.942 59.888 227.878 60.4C227.878 60.912 227.846 61.296 227.782 61.552C227.718 62.192 227.782 62.864 227.974 63.568C228.166 64.08 228.39 64.368 228.646 64.432C229.414 64.752 230.438 64.688 231.718 64.24C231.846 64.24 232.038 64.208 232.294 64.144C232.614 64.016 232.838 63.952 232.966 63.952C233.478 63.76 233.99 63.376 234.502 62.8C234.758 62.544 235.878 61.584 237.862 59.92C238.374 59.472 238.918 58.992 239.494 58.48C239.686 58.288 239.878 58 240.07 57.616C240.326 57.168 240.486 56.912 240.55 56.848C240.678 56.592 240.934 56.304 241.318 55.984C241.766 55.664 242.022 55.504 242.086 55.504C242.278 55.312 242.502 55.024 242.758 54.64C243.078 54.256 243.302 54 243.43 53.872C243.622 53.68 243.814 53.648 244.006 53.776C244.198 53.904 244.326 54.064 244.39 54.256C244.39 54.384 244.262 54.608 244.006 54.928C243.878 55.056 243.654 55.344 243.334 55.792C243.142 56.048 242.854 56.4 242.47 56.848C242.15 57.232 241.926 57.52 241.798 57.712C241.606 57.904 241.35 58.192 241.03 58.576C240.71 58.896 240.454 59.152 240.262 59.344C240.134 59.536 239.942 59.856 239.686 60.304C239.43 60.688 239.206 60.976 239.014 61.168C238.886 61.36 238.63 61.616 238.246 61.936C237.862 62.256 237.574 62.512 237.382 62.704C237.254 62.832 237.062 63.088 236.806 63.472C236.55 63.792 236.326 64.016 236.134 64.144C236.006 64.272 235.878 64.4 235.75 64.528C235.622 64.592 235.494 64.656 235.366 64.72C235.238 64.784 235.078 64.88 234.886 65.008C234.694 65.136 234.566 65.232 234.502 65.296C233.606 65.872 232.998 66.224 232.678 66.352C230.758 67.12 229.286 67.408 228.262 67.216C227.046 67.024 226.15 66.384 225.574 65.296C225.254 64.656 225.03 63.952 224.902 63.184C224.902 62.992 224.838 62.704 224.71 62.32C224.646 63.6 224.87 64.72 225.382 65.68C225.894 66.704 226.886 67.408 228.358 67.792C229.126 67.92 230.566 67.824 232.678 67.504C233.51 67.312 234.374 66.992 235.27 66.544C235.782 66.224 236.39 65.712 237.094 65.008C237.414 64.688 238.022 64.176 238.918 63.472C239.878 62.704 240.55 62.064 240.934 61.552C241.83 60.336 242.342 59.664 242.47 59.536C242.918 59.024 243.462 58.32 244.102 57.424C244.358 57.04 244.582 56.848 244.774 56.848C245.094 56.848 245.286 56.976 245.35 57.232ZM284.999 52.72C285.511 52.272 285.863 52.144 286.055 52.336C286.247 52.528 286.183 52.848 285.863 53.296C285.735 53.488 285.223 54 284.327 54.832C284.263 54.96 284.167 55.088 284.039 55.216C283.975 55.28 283.879 55.376 283.751 55.504C283.687 55.568 283.591 55.632 283.463 55.696C283.399 55.76 283.303 55.856 283.175 55.984C283.047 56.112 282.951 56.208 282.887 56.272C281.671 57.424 280.583 58.384 279.623 59.152C278.471 60.176 277.479 61.008 276.647 61.648C275.751 62.352 274.983 62.832 274.343 63.088C273.639 63.344 273.127 63.248 272.807 62.8C272.615 62.544 272.487 62 272.423 61.168C272.359 60.656 272.327 59.952 272.327 59.056C272.391 58.416 272.455 57.424 272.519 56.08C272.647 54.736 272.711 53.712 272.711 53.008C272.711 52.24 272.679 51.6 272.615 51.088C272.487 50.256 272.295 49.744 272.039 49.552C271.463 49.04 270.439 49.456 268.967 50.8C268.583 51.12 267.719 51.984 266.375 53.392C265.543 54.16 264.743 54.992 263.975 55.888C262.695 57.424 261.767 58.384 261.191 58.768C260.423 59.344 259.975 59.312 259.847 58.672C259.783 58.288 259.847 57.616 260.039 56.656C260.103 56.144 260.423 54.768 260.999 52.528C261.575 50.352 261.895 48.976 261.959 48.4C262.023 46.608 261.575 45.424 260.615 44.848C259.719 44.336 258.599 44.592 257.255 45.616C256.423 46.192 255.527 47.152 254.567 48.496C253.799 49.584 253.127 50.736 252.551 51.952C252.295 52.4 252.071 52.912 251.879 53.488C252.199 52.784 252.551 52.144 252.935 51.568C254.343 49.008 255.751 47.184 257.159 46.096C258.375 45.2 259.399 44.912 260.231 45.232C261.063 45.552 261.479 46.48 261.479 48.016C261.415 48.848 261.031 50.288 260.327 52.336C259.367 55.216 258.887 57.552 258.887 59.344C258.887 60.176 259.079 60.656 259.463 60.784C259.719 60.912 260.167 60.784 260.807 60.4C261.639 59.952 262.535 59.312 263.495 58.48C264.327 57.712 265.639 56.304 267.431 54.256C267.559 54.128 267.719 53.968 267.911 53.776C268.103 53.52 268.263 53.296 268.391 53.104C268.583 52.912 268.743 52.72 268.871 52.528C269.063 52.336 269.255 52.176 269.447 52.048C269.639 51.856 269.831 51.728 270.023 51.664C270.343 51.536 270.567 51.504 270.695 51.568C270.887 51.632 271.015 51.792 271.079 52.048C271.143 52.24 271.175 52.464 271.175 52.72C271.175 52.976 271.175 53.232 271.175 53.488C271.175 53.616 271.175 53.68 271.175 53.68C271.175 54.192 271.111 54.896 270.983 55.792C270.727 58.096 270.599 59.504 270.599 60.016C270.535 62.832 271.111 64.496 272.327 65.008C273.479 65.392 275.143 64.848 277.319 63.376C278.407 62.608 279.751 61.456 281.351 59.92C281.479 59.792 281.703 59.568 282.023 59.248C282.343 58.928 282.599 58.704 282.791 58.576C283.239 58.128 283.591 57.936 283.847 58C284.103 58.256 284.135 58.512 283.943 58.768C283.815 59.024 283.559 59.312 283.175 59.632C281.319 61.488 279.655 62.992 278.183 64.144C275.623 66.128 273.511 66.832 271.847 66.256C270.183 65.616 269.287 63.856 269.159 60.976C269.159 60.016 269.191 58.8 269.255 57.328C269.319 57.136 269.351 56.688 269.351 55.984C269.351 55.216 269.351 54.832 269.351 54.832C269.351 54.832 269.287 54.896 269.159 55.024C269.095 55.152 269.063 55.216 269.063 55.216C268.743 55.536 267.879 56.464 266.471 58C265.575 59.024 264.903 59.76 264.455 60.208C262.983 61.744 261.735 62.64 260.711 62.896C259.111 63.216 257.927 62.736 257.159 61.456C256.583 60.432 256.487 58.96 256.871 57.04C257.127 55.696 257.607 54 258.311 51.952C258.951 50.16 259.303 49.136 259.367 48.88C259.431 48.752 259.463 48.432 259.463 47.92C259.463 47.408 259.303 47.216 258.983 47.344C258.919 47.408 258.631 47.728 258.119 48.304C257.031 49.584 256.039 50.96 255.143 52.432C254.503 53.456 253.735 55.056 252.839 57.232C252.135 58.96 251.431 60.592 250.727 62.128C249.831 64.048 248.999 65.648 248.231 66.928C247.335 68.336 246.631 69.2 246.119 69.52C245.607 69.904 245.031 70.064 244.391 70C243.815 69.936 243.335 69.68 242.951 69.232C242.439 68.656 242.215 67.792 242.279 66.64C242.343 65.616 242.663 63.92 243.239 61.552C244.007 58.096 244.423 56.336 244.487 56.272C244.615 55.76 244.775 55.216 244.967 54.64C245.159 54 245.351 53.36 245.543 52.72C245.735 52.08 245.895 51.536 246.023 51.088C247.047 47.632 247.591 45.84 247.655 45.712C247.655 45.584 247.719 45.424 247.847 45.232C248.039 44.4 248.327 43.696 248.711 43.12C249.159 42.416 249.639 42.064 250.151 42.064C250.727 42 251.079 42.32 251.207 43.024C251.271 43.344 251.143 44.56 250.823 46.672C250.823 46.8 250.759 47.248 250.631 48.016C250.503 48.784 250.407 49.392 250.343 49.84C252.007 46.704 253.735 44.496 255.527 43.216C256.871 42.256 258.215 41.776 259.559 41.776C261.223 41.776 262.567 42.48 263.591 43.888C264.935 45.872 265.127 48.368 264.167 51.376C264.103 51.44 264.039 51.6 263.975 51.856C263.911 52.048 263.847 52.208 263.783 52.336C263.719 52.528 263.687 52.656 263.687 52.72C263.751 52.72 263.879 52.688 264.071 52.624C264.391 52.56 264.615 52.464 264.743 52.336C264.935 52.144 265.127 51.92 265.319 51.664C265.575 51.344 265.767 51.12 265.895 50.992C267.303 49.392 268.487 48.336 269.447 47.824C270.151 47.44 270.919 47.312 271.751 47.44C272.583 47.568 273.223 47.984 273.671 48.688C274.183 49.456 274.439 50.544 274.439 51.952C274.503 53.488 274.407 55.216 274.151 57.136C274.151 57.52 274.055 58.416 273.863 59.824C273.799 60.784 273.863 61.328 274.055 61.456C274.311 61.648 274.791 61.392 275.495 60.688C275.751 60.496 276.135 60.176 276.647 59.728C277.031 59.472 277.479 59.152 277.991 58.768C278.567 58.32 279.079 57.904 279.527 57.52C280.039 57.136 280.487 56.784 280.871 56.464C281.319 56.144 281.767 55.76 282.215 55.312C282.727 54.864 283.207 54.416 283.655 53.968C284.167 53.456 284.615 53.04 284.999 52.72ZM308.306 58.096C308.434 58.288 308.21 58.768 307.634 59.536C307.25 59.92 306.802 60.4 306.29 60.976C305.074 62.32 304.082 63.344 303.314 64.048C301.906 65.264 300.914 66.096 300.338 66.544C299.314 67.248 298.162 67.888 296.882 68.464C293.874 69.808 291.186 70.256 288.818 69.808C285.874 69.36 283.762 68.016 282.482 65.776C281.202 63.6 280.882 60.912 281.522 57.712C281.65 57.008 282.002 55.696 282.578 53.776C283.154 52.048 283.666 50.832 284.114 50.128C285.65 47.696 287.314 46.032 289.106 45.136C291.41 43.984 293.554 43.792 295.538 44.56C296.626 45.008 297.298 45.68 297.554 46.576C297.938 47.664 297.842 49.04 297.266 50.704C296.37 53.2 295.218 55.152 293.81 56.56C291.378 58.992 289.17 59.568 287.186 58.288C287.058 58.224 286.93 58.096 286.802 57.904C286.354 59.568 286.354 61.008 286.802 62.224C287.058 62.992 287.602 63.664 288.434 64.24C289.266 64.816 290.258 64.976 291.41 64.72C293.714 64.208 295.826 63.472 297.746 62.512C298.642 62.064 299.57 61.488 300.53 60.784C300.786 60.592 301.01 60.368 301.202 60.112C301.458 59.856 301.714 59.568 301.97 59.248C302.29 58.928 302.514 58.672 302.642 58.48C302.834 58.288 303.058 58.096 303.314 57.904C303.634 57.648 303.954 57.424 304.274 57.232C304.594 56.976 304.85 56.752 305.042 56.56C305.362 56.24 305.778 55.792 306.29 55.216C306.866 54.576 307.218 54.16 307.346 53.968C307.666 53.648 307.922 53.648 308.114 53.968C308.306 54.224 308.274 54.576 308.018 55.024C306.93 56.368 305.362 58.032 303.314 60.016C302.93 60.336 302.386 60.784 301.682 61.36C301.042 61.872 300.69 62.16 300.626 62.224C299.346 63.312 298.514 63.984 298.13 64.24C297.81 64.432 296.818 64.88 295.154 65.584C293.682 66.224 292.69 66.608 292.178 66.736C291.41 66.864 290.322 66.8 288.914 66.544C287.762 66.352 286.834 65.936 286.13 65.296C284.466 63.824 283.698 61.84 283.826 59.344C283.89 58.32 284.082 57.2 284.402 55.984C284.53 55.6 284.978 54.576 285.746 52.912C286.066 52.016 286.61 51.024 287.378 49.936C287.442 49.872 287.506 49.776 287.57 49.648C287.698 49.456 287.794 49.296 287.858 49.168C286.898 50.128 285.874 51.728 284.786 53.968C284.274 54.992 283.858 56.272 283.538 57.808C283.218 59.408 283.122 60.784 283.25 61.936C283.506 63.28 284.05 64.496 284.882 65.584C285.714 66.608 286.77 67.344 288.05 67.792C289.33 68.24 290.642 68.336 291.986 68.08C293.394 67.76 294.706 67.376 295.922 66.928C297.394 66.416 298.674 65.808 299.762 65.104C299.89 65.04 300.914 64.208 302.834 62.608C304.114 61.584 305.138 60.656 305.906 59.824C305.97 59.76 306.162 59.504 306.482 59.056C306.866 58.608 307.154 58.288 307.346 58.096C307.73 57.776 308.05 57.776 308.306 58.096ZM290.93 50.416C290.162 50.992 289.49 51.824 288.914 52.912C288.594 53.552 288.274 54.192 287.954 54.832C287.954 54.896 287.954 54.928 287.954 54.928C288.018 54.928 288.05 54.928 288.05 54.928C288.626 55.248 289.074 55.28 289.394 55.024C289.522 54.96 289.714 54.768 289.97 54.448C290.61 53.744 291.186 52.912 291.698 51.952C292.018 51.312 292.274 50.736 292.466 50.224C292.594 49.904 292.594 49.712 292.466 49.648C292.402 49.584 292.242 49.616 291.986 49.744C291.922 49.872 291.762 50 291.506 50.128C291.25 50.256 291.058 50.352 290.93 50.416Z" fill="#C26499"/>
</svg>
