<svg width="100" height="101" viewBox="0 0 100 101" fill="none" xmlns="http://www.w3.org/2000/svg">
<g id="adobe-photoshop-svgrepo-com 1">
<path id="Vector" d="M6.25 38.4166C6.25 27.3323 6.25 21.7901 8.40716 17.5564C10.3047 13.8324 13.3324 10.8047 17.0564 8.90716C21.2901 6.75 26.8323 6.75 37.9166 6.75H62.0834C73.1678 6.75 78.71 6.75 82.9434 8.90716C86.6675 10.8047 89.6953 13.8324 91.5928 17.5564C93.75 21.7901 93.75 27.3323 93.75 38.4166V62.5834C93.75 73.6678 93.75 79.21 91.5928 83.4434C89.6953 87.1675 86.6675 90.1953 82.9434 92.0928C78.71 94.25 73.1678 94.25 62.0834 94.25H37.9166C26.8323 94.25 21.2901 94.25 17.0564 92.0928C13.3324 90.1953 10.3047 87.1675 8.40716 83.4434C6.25 79.21 6.25 73.6678 6.25 62.5834V38.4166Z" fill="#001E36"/>
<path id="Vector_2" d="M25 70.8631V32.3856C25 32.1241 25.1094 31.9744 25.3646 31.9744C29.1322 31.9744 32.8981 31.75 36.6666 31.75C42.7819 31.75 49.4031 33.8409 51.7241 40.2381C52.2709 41.8087 52.5625 43.4166 52.5625 45.0994C52.5625 48.3153 51.8334 50.97 50.375 53.0641C46.3013 58.9134 39.2406 58.8225 32.9116 58.8225V70.8259C32.9609 71.1812 32.6581 71.3494 32.3647 71.3494H25.4375C25.1458 71.3494 25 71.1997 25 70.8631ZM32.9478 39.1912V51.7553C35.4575 51.9391 38.0834 51.9591 40.4947 51.1572C43.1569 50.3891 44.6147 48.085 44.6147 45.3238C44.6884 42.9709 43.4066 40.7134 41.2241 39.8644C38.8419 38.8737 35.5194 38.8144 32.9478 39.1912Z" fill="#31A8FF"/>
<path id="Vector_3" d="M75.3015 49.2732C74.1983 48.6917 73.0233 48.2664 71.8087 48.0089C70.248 47.6417 64.0924 46.3554 64.0899 49.5742C64.1446 51.371 66.9971 52.2514 68.2574 52.7648C72.6821 54.2839 77.689 56.9992 77.5905 62.4576C77.7258 69.2526 71.1421 71.9692 65.4987 71.9698C62.5608 72.0001 59.5002 71.5451 56.8115 70.2839C56.5546 70.1479 56.3896 69.8576 56.4005 69.5614V63.0595C56.3715 62.7989 56.6515 62.5711 56.8702 62.7586C59.5046 64.3517 62.6271 65.1254 65.6749 65.1667C67.0202 65.1667 69.6865 65.0364 69.6665 63.0595C69.6665 61.1626 66.4768 60.2904 65.2052 59.8085C63.3621 59.1507 61.6146 58.2392 60.0105 57.0995C57.7686 55.5004 56.3624 52.9367 56.4005 50.116C56.3874 43.7179 62.4477 40.846 67.9055 40.8448C70.4568 40.8235 73.1968 41.0126 75.5718 42.0489C75.9133 42.1492 75.984 42.5092 75.9827 42.8314V48.912C76.0043 49.2895 75.5852 49.4179 75.3015 49.2732Z" fill="#31A8FF"/>
</g>
</svg>
