<svg width="100" height="101" viewBox="0 0 100 101" fill="none" xmlns="http://www.w3.org/2000/svg">
<g id="adobe-illustrator-svgrepo-com 1">
<path id="Vector" d="M6.25 38.4166C6.25 27.3323 6.25 21.7901 8.40716 17.5564C10.3047 13.8324 13.3324 10.8047 17.0564 8.90716C21.2901 6.75 26.8323 6.75 37.9166 6.75H62.0834C73.1678 6.75 78.71 6.75 82.9434 8.90716C86.6675 10.8047 89.6953 13.8324 91.5928 17.5564C93.75 21.7901 93.75 27.3323 93.75 38.4166V62.5834C93.75 73.6678 93.75 79.21 91.5928 83.4434C89.6953 87.1675 86.6675 90.1953 82.9434 92.0928C78.71 94.25 73.1678 94.25 62.0834 94.25H37.9166C26.8323 94.25 21.2901 94.25 17.0564 92.0928C13.3324 90.1953 10.3047 87.1675 8.40716 83.4434C6.25 79.21 6.25 73.6678 6.25 62.5834V38.4166Z" fill="#330000"/>
<path id="Vector_2" d="M48.6521 61.7385H35.093L32.3343 70.5282C32.2577 70.8547 31.9571 71.086 31.6299 71.0697H24.7622C24.3706 71.0697 24.2336 70.8491 24.3514 70.4075L36.0909 35.7307C36.2084 35.3694 36.3259 34.9582 36.443 34.4966C36.5968 33.6932 36.6752 32.8769 36.678 32.0585C36.6443 31.8166 36.8568 31.603 37.0887 31.6369H46.4218C46.6952 31.6369 46.8515 31.7372 46.8912 31.9378L60.2159 70.4679C60.333 70.8694 60.2159 71.07 59.8637 71.0697H52.2327C51.9652 71.1004 51.7096 70.9169 51.6459 70.6485L48.6521 61.7385ZM37.2062 54.1528H46.4805C44.9568 48.946 43.2371 43.8075 41.8434 38.5604C40.3396 43.8166 38.699 49.0516 37.2062 54.1528Z" fill="#FF9A00"/>
<path id="Vector_3" d="M68.139 38.0181C67.5402 38.0428 66.9433 37.9375 66.3868 37.7094C65.8305 37.4813 65.3274 37.135 64.9105 36.6938C64.4949 36.2331 64.1718 35.6931 63.9602 35.1041C63.7486 34.5153 63.6527 33.8894 63.6777 33.2622C63.6565 32.6413 63.763 32.0228 63.9905 31.447C64.2183 30.8713 64.5618 30.3513 64.9987 29.9209C65.4312 29.495 65.9418 29.1613 66.5011 28.9391C67.0602 28.7169 67.6568 28.6107 68.2561 28.6265C69.6652 28.6265 70.7705 29.058 71.5727 29.9209C71.9777 30.3693 72.2924 30.8953 72.499 31.4686C72.7052 32.0419 72.7996 32.6516 72.7758 33.2622C72.8005 33.8916 72.7015 34.52 72.4846 35.1094C72.268 35.6988 71.9377 36.2375 71.514 36.6938C71.0711 37.1416 70.5424 37.4903 69.9618 37.7184C69.3808 37.9463 68.7602 38.0484 68.139 38.0181ZM64.0886 70.4675V41.6906C64.0886 41.3294 64.2446 41.1488 64.5583 41.1488H71.7783C72.0908 41.1488 72.2474 41.3294 72.2477 41.6906V70.4675C72.2477 70.8694 72.0912 71.07 71.7783 71.0697H64.6171C64.2649 71.0697 64.0886 70.8691 64.0886 70.4675Z" fill="#FF9A00"/>
</g>
</svg>
