<svg width="100" height="101" viewBox="0 0 100 101" fill="none" xmlns="http://www.w3.org/2000/svg">
<g id="adobe-premiere-svgrepo-com 2">
<path id="Vector" d="M6.25 38.4166C6.25 27.3323 6.25 21.7901 8.40716 17.5564C10.3047 13.8324 13.3324 10.8047 17.0564 8.90716C21.2901 6.75 26.8323 6.75 37.9166 6.75H62.0834C73.1678 6.75 78.71 6.75 82.9434 8.90716C86.6675 10.8047 89.6953 13.8324 91.5928 17.5564C93.75 21.7901 93.75 27.3323 93.75 38.4166V62.5834C93.75 73.6678 93.75 79.21 91.5928 83.4434C89.6953 87.1675 86.6675 90.1953 82.9434 92.0928C78.71 94.25 73.1678 94.25 62.0834 94.25H37.9166C26.8323 94.25 21.2901 94.25 17.0564 92.0928C13.3324 90.1953 10.3047 87.1675 8.40716 83.4434C6.25 79.21 6.25 73.6678 6.25 62.5834V38.4166Z" fill="#00005B"/>
<path id="Vector_2" d="M25 68.6116V29.2749C25 29.0073 25.1097 28.8544 25.3657 28.8544C29.1445 28.8544 32.9216 28.625 36.7016 28.625C42.8347 28.625 49.4759 30.7626 51.8037 37.3028C52.3522 38.9084 52.6447 40.5522 52.6447 42.2725C52.6447 45.56 51.9134 48.2741 50.4506 50.415C46.365 56.395 39.2831 56.3022 32.935 56.3022V68.5731C32.9847 68.9366 32.6809 69.1084 32.3866 69.1084H25.4388C25.1463 69.1084 25 68.9556 25 68.6116ZM32.9716 36.2325V49.0769C35.4888 49.265 38.1225 49.2853 40.5409 48.4653C43.2109 47.6803 44.6731 45.3247 44.6731 42.5019C44.7475 40.0966 43.4616 37.7884 41.2725 36.9206C38.8831 35.9078 35.5509 35.8472 32.9716 36.2325Z" fill="#9999FF"/>
<path id="Vector_3" d="M57.6021 38.6623H64.0196C64.3733 38.6658 64.6911 38.9211 64.7846 39.2779C65.2549 40.3695 65.313 41.6861 65.3146 42.8645C66.4152 41.5248 67.7421 40.4089 69.2296 39.5717C70.8249 38.6283 72.6333 38.1498 74.4658 38.187C74.7702 38.1414 75.0393 38.4229 74.9958 38.7408V46.1879C74.9958 46.4758 74.7989 46.6189 74.4071 46.6189C71.6908 46.4229 67.4621 47.0939 65.4883 49.327V68.6908C65.4883 69.0601 65.3314 69.2448 65.0174 69.2448H58.1321C57.7939 69.2954 57.4955 68.9773 57.5433 68.6292V47.6036C57.5433 44.7864 57.6017 41.8842 57.1902 39.0933C57.1267 38.8364 57.3618 38.5976 57.6021 38.6623Z" fill="#9999FF"/>
</g>
</svg>
