<svg width="100" height="101" viewBox="0 0 100 101" fill="none" xmlns="http://www.w3.org/2000/svg">
<g id="adobe-after-effects-svgrepo-com 2">
<path id="Vector" d="M6.25 38.4166C6.25 27.3323 6.25 21.7901 8.40716 17.5564C10.3047 13.8324 13.3324 10.8047 17.0564 8.90716C21.2901 6.75 26.8323 6.75 37.9166 6.75H62.0834C73.1678 6.75 78.71 6.75 82.9434 8.90716C86.6675 10.8047 89.6953 13.8324 91.5928 17.5564C93.75 21.7901 93.75 27.3323 93.75 38.4166V62.5834C93.75 73.6678 93.75 79.21 91.5928 83.4434C89.6953 87.1675 86.6675 90.1953 82.9434 92.0928C78.71 94.25 73.1678 94.25 62.0834 94.25H37.9166C26.8323 94.25 21.2901 94.25 17.0564 92.0928C13.3324 90.1953 10.3047 87.1675 8.40716 83.4434C6.25 79.21 6.25 73.6678 6.25 62.5834V38.4166Z" fill="#00005B"/>
<path id="Vector_2" d="M43.0916 61.6368H29.5325L26.7737 70.4434C26.6971 70.7699 26.3964 71.0012 26.0693 70.9852H19.2017C18.8101 70.9852 18.6731 70.7646 18.7908 70.3231L30.5303 35.7893C30.6478 35.4284 30.7651 35.0752 30.8826 34.6134C31.0361 33.8099 31.1147 32.9937 31.1174 32.1752C31.0837 31.9334 31.2925 31.7191 31.5281 31.7537H40.8612C41.1347 31.7537 41.2909 31.854 41.3306 32.0546L54.6553 70.3831C54.7725 70.7849 54.655 70.9856 54.3031 70.9852H46.6722C46.4047 71.0156 46.1491 70.8321 46.0853 70.5637L43.0916 61.6368ZM31.6456 54.2115H40.92C39.3962 49.0046 37.6766 43.8665 36.2828 38.619C34.7034 44.0621 33.245 49.1102 31.6456 54.2115Z" fill="#9999FF"/>
<path id="Vector_3" d="M64.5652 58.2367C65.1049 62.7083 68.8599 64.8401 73.0177 64.7492C75.3624 64.7033 77.868 64.3392 80.059 63.4526C80.254 63.2929 80.3524 63.3926 80.3524 63.7539V69.4729C80.3709 69.7705 80.2465 70.0364 80.0002 70.1954C77.2771 71.4323 74.1515 71.8054 71.198 71.7579C62.3924 71.7579 56.3452 65.5536 56.3477 56.5267C56.3246 47.9723 61.8743 40.7554 70.4937 40.7554C77.8002 40.5661 82.8587 46.4158 82.879 53.6973C82.879 55.0233 82.8049 56.3542 82.6443 57.6705C82.613 57.9417 82.3821 58.1523 82.1159 58.1523C76.2805 58.1523 70.4168 58.2367 64.5652 58.2367ZM64.5652 52.7523C67.8174 52.7523 71.0884 52.8673 74.3384 52.7223C74.8268 52.6723 75.1896 52.5795 75.1896 52.0717C75.1218 49.3723 72.8437 47.152 70.2002 47.2555C67.0065 47.0573 64.9624 49.7536 64.5652 52.7523Z" fill="#9999FF"/>
</g>
</svg>
