<svg width="100" height="100" viewBox="0 0 100 100" fill="none" xmlns="http://www.w3.org/2000/svg">
<path fill-rule="evenodd" clip-rule="evenodd" d="M18.4614 27.1333C19.5846 25.8229 21.5574 25.6712 22.8678 26.7944L50.0007 50.0512L77.1337 26.7944C78.444 25.6712 80.4169 25.8229 81.5401 27.1333C82.6633 28.4437 82.5115 30.4165 81.2011 31.5397L52.0344 56.5397C50.8642 57.5428 49.1373 57.5428 47.967 56.5397L18.8003 31.5397C17.4899 30.4165 17.3382 28.4437 18.4614 27.1333ZM18.4614 43.8C19.5846 42.4896 21.5574 42.3378 22.8678 43.461L50.0007 66.7178L77.1337 43.461C78.444 42.3378 80.4169 42.4896 81.5401 43.8C82.6633 45.1104 82.5115 47.0832 81.2011 48.2064L52.0344 73.2064C50.8642 74.2095 49.1373 74.2095 47.967 73.2064L18.8003 48.2064C17.4899 47.0832 17.3382 45.1104 18.4614 43.8Z" fill="#8C4C6F"/>
</svg>
