<svg width="100" height="101" viewBox="0 0 100 101" fill="none" xmlns="http://www.w3.org/2000/svg">
<g id="bootstrap-svgrepo-com 1" clip-path="url(#clip0_796_23290)">
<g id="Group">
<path id="Vector" d="M0 87.6059C0 94.7279 5.77286 100.5 12.8941 100.5H87.1059C94.2279 100.5 100 94.7271 100 87.6059V13.3941C100 6.27208 94.2271 0.5 87.1059 0.5H12.8941C5.77208 0.5 0 6.27286 0 13.3941V87.6059Z" fill="#563D7C"/>
<path id="Vector_2" d="M41.4678 44.7336V30.5721H53.9334C55.1206 30.5721 56.2653 30.671 57.3677 30.8689C58.4701 31.0668 59.4453 31.4201 60.2933 31.9289C61.1413 32.4377 61.8197 33.1444 62.3285 34.0489C62.8373 34.9534 63.0917 36.1123 63.0917 37.5257C63.0917 40.0697 62.3285 41.907 60.8021 43.0376C59.2757 44.1683 57.3254 44.7336 54.951 44.7336H41.4678ZM28.1543 20.2266V80.7734H57.4949C60.2085 80.7734 62.8514 80.4342 65.4237 79.7558C67.996 79.0774 70.2855 78.0316 72.2925 76.6183C74.2994 75.2049 75.8964 73.3818 77.0836 71.1487C78.2708 68.9156 78.8644 66.2727 78.8644 63.2199C78.8644 59.4322 77.9458 56.1957 76.1084 53.5104C74.2711 50.8251 71.4869 48.9453 67.7557 47.8712C70.4693 46.5709 72.5186 44.9032 73.9037 42.868C75.2887 40.8328 75.9812 38.2889 75.9812 35.2361C75.9812 32.4094 75.5149 30.0351 74.5821 28.1129C73.6493 26.1908 72.3349 24.6503 70.6389 23.4913C68.9429 22.3324 66.9077 21.4986 64.5333 20.9898C62.1589 20.481 59.5301 20.2266 56.6469 20.2266H28.1543ZM41.4678 70.4279V53.8072H55.9686C58.8517 53.8072 61.1696 54.4714 62.9221 55.8C64.6746 57.1285 65.5509 59.3474 65.5509 62.4567C65.5509 64.0397 65.2824 65.3399 64.7453 66.3575C64.2082 67.3751 63.4874 68.1807 62.5829 68.7743C61.6784 69.3679 60.6325 69.7919 59.4453 70.0463C58.2581 70.3007 57.0144 70.4279 55.7142 70.4279H41.4678Z" fill="white"/>
</g>
</g>
<defs>
<clipPath id="clip0_796_23290">
<rect width="100" height="100" fill="white" transform="translate(0 0.5)"/>
</clipPath>
</defs>
</svg>
