<svg width="100" height="101" viewBox="0 0 100 101" fill="none" xmlns="http://www.w3.org/2000/svg">
<g id="canva-svgrepo-com 1" clip-path="url(#clip0_752_27191)">
<path id="Vector" d="M50 0.5C22.3781 0.5 0 22.8781 0 50.5C0 78.1219 22.3781 100.5 50 100.5C77.6219 100.5 100 78.1219 100 50.5C100 22.8781 77.6219 0.5 50 0.5ZM29.0031 32.5C32.1437 32.5 34.5875 34.7906 34.8625 37.4969C35.1594 39.9375 34.1469 42.0719 31.4469 43.3563C30.0125 44.0719 29.4438 44.0719 29.15 43.6469C29.0031 43.3563 29.15 43.0812 29.4406 42.7844C32.0156 40.6562 32.0156 38.9313 31.7187 36.5063C31.5719 34.9281 30.4344 33.9313 29.2937 33.9313C24.2812 33.9313 17.1531 45.0656 18.1438 53.2188C18.5844 56.3594 20.4406 60.0719 24.4281 60.0719C25.7156 60.0719 27.15 59.6469 28.4312 59.0812C30.5156 57.9719 31.7688 57.1281 33.0063 55.7437C32.6969 52.0469 35.9344 47.2156 40.7188 47.2156C42.8687 47.2156 44.5781 48.0781 44.7219 49.6562C45 51.7906 43.1437 52.0813 42.575 52.0813C42.0031 52.0813 40.9969 51.9344 40.9969 51.3656C40.8688 50.7938 42.2812 51.075 42.15 49.7875C42.0031 48.925 41.1406 48.65 40.2969 48.65C37.2844 48.65 35.575 52.8 36 55.3531C36.1469 56.5062 36.7125 57.65 37.8719 57.65C38.7188 57.65 40.0062 56.3625 40.425 54.5094C40.7156 53.2219 41.8594 52.3594 42.8656 52.3594C43.2906 52.3594 43.5656 52.5062 43.7125 53.075V53.6469C43.5844 54.2188 43.1406 55.9437 43.2906 56.3625C43.2906 56.6594 43.4375 57.0781 44.0031 57.0781C44.3781 57.0781 45.8125 56.3281 47.2438 55.1562C47.7156 52.6969 48.2844 49.7531 48.2844 49.5094C48.4313 48.5 48.8563 47.5062 50.8563 47.5062C51.2938 47.5062 51.5719 47.6531 51.7187 48.2219V48.7938L51.1469 51.3656C53.0063 48.9406 55.7219 47.2313 57.4313 47.2313C58.1469 47.2313 58.7188 47.6531 58.7188 48.3687C58.7188 48.7938 58.7188 49.5094 58.4219 50.2281C57.8563 51.7906 57.1375 54.2312 56.7125 56.3625C56.7125 56.9344 56.8594 57.5031 57.575 57.5031C58.2906 57.5031 60.425 56.6562 62.1344 54.3625L62.1687 54.3469C62.1687 54.0688 62.1344 53.7937 62.1344 53.5187C62.1344 51.7937 62.2812 50.3781 62.575 49.3687C62.8656 48.2281 64.2844 47.2344 65.1469 47.2344C65.5687 47.2344 66.0094 47.5094 66.0094 47.9344C66.0094 48.0812 66.0094 48.3719 65.8625 48.5063C65.2906 50.3781 64.85 52.0844 64.85 53.7938C64.85 54.8031 65 56.2188 65.2906 57.0813C65.2906 57.2281 65.4188 57.3719 65.5656 57.3719C65.8625 57.3719 67.8625 55.5187 69.2781 53.075C67.9906 52.2281 67.275 50.7969 67.275 49.0875C67.275 46.0781 69.15 44.5125 70.8594 44.5125C72.2937 44.5125 73.4312 45.5094 73.4312 47.5094C73.4312 48.7969 73.0063 50.2312 72.2938 51.5125H72.7156C73.6281 51.5469 74.525 51.1719 75.1406 50.5219C75.2875 50.2938 75.4813 50.1312 75.7125 50.0344C77.1125 48.2594 79.1625 46.9438 81.5875 46.9438C83.5875 46.9438 85.4281 47.8062 85.575 49.3687C85.8656 51.5156 83.9969 51.9406 83.425 51.9406C82.8594 51.9406 81.85 51.7938 81.85 51.225C81.85 50.6562 83.1344 50.9344 83.0031 49.6625C82.8563 48.8 81.9938 48.5094 81.1312 48.5094C78.2812 48.5094 76.4281 52.2188 76.8469 55.2313C76.9938 56.3688 77.5625 57.6563 78.7063 57.6563C79.5688 57.6563 80.8531 56.3687 81.4219 54.5156C81.6969 53.3781 82.8562 52.3656 83.8469 52.3656C84.2844 52.3656 84.5625 52.5125 84.7094 53.0812C84.7094 53.3781 84.7094 53.9438 84.1375 55.8031C83.4219 57.0875 83.4219 57.8031 83.5719 58.375C83.7 59.5125 84.2719 60.375 84.8562 60.8C84.9844 60.9469 85.1344 61.2219 85.1344 61.2219C85.1344 61.5187 84.9844 61.8094 84.5625 61.8094C84.4156 61.8094 84.2844 61.8094 84.1375 61.6625C81.9906 60.8 81.1281 59.3656 80.85 57.9344C79.9875 58.9437 78.9969 59.5125 77.8406 59.5125C75.9813 59.5125 74.1437 57.8031 73.8531 55.6531C73.7687 54.7438 73.8656 53.8156 74.1625 52.9531C73.3156 53.4906 72.4031 53.8 71.5594 53.8H70.8594C68.9875 56.5156 66.9844 58.375 65.5687 59.2219C65.0813 59.4813 64.5437 59.6312 63.9906 59.6594C63.7156 59.6594 63.2781 59.5125 63.1437 59.2219C62.7406 58.5875 62.4937 57.5938 62.3312 56.4562C60.3281 58.6344 57.5594 59.8063 56.2781 59.8063C54.8438 59.8063 54 58.9438 53.8531 57.5156V55.9531C54.275 52.8125 55.4313 50.9406 55.4313 50.3688C55.4156 50.2219 55.2969 50.0906 55.1344 50.0781C54.1437 50.0781 50.8562 53.5125 50.2844 55.8063L49.8469 57.6594C49.5688 58.9438 48.2844 59.8063 47.4219 59.8063C46.9969 59.8063 46.7062 59.6594 46.575 59.0938V58.5219L46.7531 57.5469C44.9438 58.8312 43.1375 59.6594 42.275 59.6594C40.9906 59.6594 40.275 58.9437 40.1469 57.9344C39.2844 59.0938 38.2875 59.6594 37.0062 59.6594C35.5219 59.6594 34.0938 58.65 33.4094 57.1875C32.3812 58.3406 31.225 59.4969 29.8594 60.375C27.8594 61.6625 25.5812 62.6531 22.8594 62.6531C20.4344 62.6531 18.2875 61.3656 17.1469 60.2281C15.4219 58.65 14.4313 56.225 14.2844 53.9437C13.4375 46.9469 17.7188 37.9438 24.275 33.9406C25.8531 33.0781 27.4344 32.5125 28.9969 32.5125L29.0031 32.5ZM69.7094 46.2219C69.2875 46.2219 68.9969 46.9375 68.9969 47.6344C68.9969 48.7938 69.5625 50.075 70.2812 50.7938C70.5781 50.0156 70.7063 49.1844 70.7219 48.3531C70.7219 46.9406 70.15 46.225 69.7094 46.225V46.2219Z" fill="#00C4CC"/>
</g>
<defs>
<clipPath id="clip0_752_27191">
<rect width="100" height="100" fill="white" transform="translate(0 0.5)"/>
</clipPath>
</defs>
</svg>
