<svg width="101" height="99" viewBox="0 0 101 99" fill="none" xmlns="http://www.w3.org/2000/svg">
<g clip-path="url(#clip0_1549_24984)">
<path d="M54.6688 30.6717C54.6688 30.6717 62.7436 29.506 64.5937 33.8538C66.4438 38.2015 67.2763 40.8841 63.3911 43.1042C59.5059 45.3243 36.2872 54.9449 36.2872 54.9449C36.2872 54.9449 18.8038 62.0677 7.88825 47.5445C-3.02732 33.0212 8.8133 22.1981 8.8133 22.1981C8.8133 22.1981 12.6985 18.1279 22.319 14.3352C31.9395 10.5426 48.2203 4.71475 48.2203 4.71475C48.2203 4.71475 63.3911 1.38456 74.4917 5.5473C85.5923 9.71001 92.8077 18.498 92.8077 18.498C92.8077 18.498 100.948 27.3784 100.578 38.479C100.2 49.8331 97.1554 51.8922 97.1554 51.8922C97.1554 51.8922 91.2351 64.5654 76.8968 69.8381C62.5586 75.1109 59.0434 77.146 59.0434 77.146L65.3337 87.044C65.3337 87.044 68.9414 94.3519 61.541 96.572C54.1407 98.7922 50.533 93.5194 50.533 93.5194L35.3622 71.0407L73.3817 54.2973C73.3817 54.2973 85.5923 45.7869 84.3897 37.0914C83.2338 28.7333 78.7469 23.1232 72.7341 19.793C65.7038 15.4453 59.5059 16.5554 59.5059 16.5554C59.5059 16.5554 52.7531 17.5729 44.7977 20.9031C35.9172 24.2333 24.7241 29.2285 24.7241 29.2285C24.7241 29.2285 17.9713 31.3561 19.9139 36.7214C21.8565 42.0867 27.6843 41.6242 27.6843 41.6242L54.6688 30.6717Z" fill="#26273B"/>
</g>
<defs>
<clipPath id="clip0_1549_24984">
<rect width="100" height="97.4359" fill="white" transform="translate(0.5 0.961426)"/>
</clipPath>
</defs>
</svg>
