<svg width="100" height="99" viewBox="0 0 100 99" fill="none" xmlns="http://www.w3.org/2000/svg">
<g id="Clip_studio_file_logo_SVG 1" clip-path="url(#clip0_752_27201)">
<g id="layer2">
<path id="path21" d="M54.1728 30.4925C54.1728 30.4925 62.2475 29.3268 64.0976 33.6746C65.9477 38.0223 66.7803 40.7049 62.8951 42.925C59.0098 45.1452 35.7911 54.7657 35.7911 54.7657C35.7911 54.7657 18.3077 61.8885 7.39216 47.3653C-3.52341 32.842 8.31721 22.019 8.31721 22.019C8.31721 22.019 12.2024 17.9487 21.8229 14.156C31.4434 10.3634 47.7243 4.53555 47.7243 4.53555C47.7243 4.53555 62.895 1.20536 73.9956 5.3681C85.0962 9.53082 92.3116 18.3188 92.3116 18.3188C92.3116 18.3188 100.452 27.1992 100.082 38.2998C99.7035 49.6539 96.6593 51.713 96.6593 51.713C96.6593 51.713 90.739 64.3862 76.4007 69.659C62.0625 74.9317 58.5473 76.9668 58.5473 76.9668L64.8376 86.8648C64.8376 86.8648 68.4453 94.1727 61.0449 96.3929C53.6446 98.613 50.0369 93.3402 50.0369 93.3402L34.8661 70.8615L72.8856 54.1181C72.8856 54.1181 85.0962 45.6077 83.8936 36.9122C82.7377 28.5541 78.2508 22.944 72.238 19.6138C65.2077 15.2661 59.0098 16.3762 59.0098 16.3762C59.0098 16.3762 52.257 17.3937 44.3016 20.7239C35.4211 24.0541 24.228 29.0493 24.228 29.0493C24.228 29.0493 17.4752 31.1769 19.4178 36.5422C21.3604 41.9075 27.1882 41.445 27.1882 41.445L54.1728 30.4925Z" fill="white"/>
</g>
</g>
<defs>
<clipPath id="clip0_752_27201">
<rect width="100" height="97.4359" fill="white" transform="translate(0 0.782227)"/>
</clipPath>
</defs>
</svg>
