<svg width="100" height="101" viewBox="0 0 100 101" fill="none" xmlns="http://www.w3.org/2000/svg">
<g id="css-3-svgrepo-com 1" clip-path="url(#clip0_796_23270)">
<g id="Group">
<path id="Vector" d="M49.9565 100.247L21.0972 92.2356L14.666 20.1025H85.3335L78.8955 92.2244L49.9565 100.247Z" fill="#264DE4"/>
<path id="Vector_2" d="M73.3841 87.6319L78.8858 26.0005H50V94.1149L73.3841 87.6319Z" fill="#2965F1"/>
<path id="Vector_3" d="M29.4102 52.7539L30.2031 61.6006H50.0006V52.7539H29.4102Z" fill="#EBEBEB"/>
<path id="Vector_4" d="M27.8164 34.8477L28.6206 43.6946H50.0001V34.8477H27.8164Z" fill="#EBEBEB"/>
<path id="Vector_5" d="M49.9999 75.7298L49.9611 75.7401L40.1083 73.0797L39.4785 66.0239H30.5977L31.8371 79.9147L49.9592 84.9455L49.9999 84.9342V75.7298Z" fill="#EBEBEB"/>
<path id="Vector_6" d="M31.2969 0.5H42.0119V4.98084H35.7777V9.46168H42.0119V13.9425H31.2969V0.5Z" fill="black"/>
<path id="Vector_7" d="M44.1543 0.5H54.8693V4.39638H48.6351V5.17566H54.8693V14.1373H44.1543V10.0461H50.3885V9.26686H44.1543V0.5Z" fill="black"/>
<path id="Vector_8" d="M57.0137 0.5H67.7287V4.39638H61.4945V5.17566H67.7287V14.1373H57.0137V10.0461H63.2479V9.26686H57.0137V0.5Z" fill="black"/>
<path id="Vector_9" d="M70.5331 52.7539L72.1302 34.8477H49.9688V43.6946H62.4348L61.6298 52.7539H49.9688V61.6006H60.8626L59.8357 73.0743L49.9688 75.7374V84.9415L68.1052 79.915L68.2383 78.4203L70.3172 55.1295L70.5331 52.7539Z" fill="white"/>
</g>
</g>
<defs>
<clipPath id="clip0_796_23270">
<rect width="100" height="100" fill="white" transform="translate(0 0.5)"/>
</clipPath>
</defs>
</svg>
