<svg width="100" height="101" viewBox="0 0 100 101" fill="none" xmlns="http://www.w3.org/2000/svg">
<g id="figma-svgrepo-com 1" clip-path="url(#clip0_752_27176)">
<g id="Group">
<path id="Vector" d="M66.6667 67.1668C75.8714 67.1668 83.3333 59.7049 83.3333 50.5002C83.3333 41.2954 75.8714 33.8335 66.6667 33.8335C57.4619 33.8335 50 41.2954 50 50.5002C50 59.7049 57.4619 67.1668 66.6667 67.1668Z" fill="#19BCFE"/>
<path id="Vector_2" fill-rule="evenodd" clip-rule="evenodd" d="M33.3327 100.5C42.5374 100.5 49.9993 93.0379 49.9993 83.8332C49.9993 81.3204 49.9993 75.7649 49.9993 67.1665C42.512 67.1665 36.9565 67.1665 33.3327 67.1665C24.1279 67.1665 16.666 74.6284 16.666 83.8332C16.666 93.0379 24.1279 100.5 33.3327 100.5Z" fill="#09CF83"/>
<path id="Vector_3" fill-rule="evenodd" clip-rule="evenodd" d="M33.3327 67.1668C36.4009 67.1668 41.9565 67.1668 49.9993 67.1668V33.8335C41.9565 33.8335 36.4009 33.8335 33.3327 33.8335C24.1279 33.8335 16.666 41.2954 16.666 50.5002C16.666 59.7049 24.1279 67.1668 33.3327 67.1668Z" fill="#A259FF"/>
<path id="Vector_4" fill-rule="evenodd" clip-rule="evenodd" d="M33.3327 33.8333C36.4009 33.8333 41.9565 33.8333 49.9993 33.8333V0.5C41.9565 0.5 36.4009 0.5 33.3327 0.5C24.1279 0.5 16.666 7.96192 16.666 17.1667C16.666 26.3714 24.1279 33.8333 33.3327 33.8333Z" fill="#F24E1E"/>
<path id="Vector_5" fill-rule="evenodd" clip-rule="evenodd" d="M66.6667 33.8333H50V0.5H66.6667C75.8714 0.5 83.3333 7.96192 83.3333 17.1667C83.3333 26.3714 75.8714 33.8333 66.6667 33.8333Z" fill="#FF7262"/>
</g>
</g>
<defs>
<clipPath id="clip0_752_27176">
<rect width="100" height="100" fill="white" transform="translate(0 0.5)"/>
</clipPath>
</defs>
</svg>
