<svg width="32" height="33" viewBox="0 0 32 33" fill="none" xmlns="http://www.w3.org/2000/svg">
<g id="fiverr-icon 1" clip-path="url(#clip0_1355_24067)">
<path id="Vector" d="M16 32.5C24.8366 32.5 32 25.3366 32 16.5C32 7.66344 24.8366 0.5 16 0.5C7.16344 0.5 0 7.66344 0 16.5C0 25.3366 7.16344 32.5 16 32.5Z" fill="#1DBF73"/>
<path id="Vector_2" d="M19.9035 12.4089C20.8382 12.4089 21.596 11.6511 21.596 10.7163C21.596 9.78158 20.8382 9.0238 19.9035 9.0238C18.9687 9.0238 18.2109 9.78158 18.2109 10.7163C18.2109 11.6511 18.9687 12.4089 19.9035 12.4089Z" fill="white"/>
<path id="Vector_3" d="M21.6728 13.5187H13.925V13.011C13.925 12.0139 14.9222 11.995 15.4299 11.995C16.0125 11.995 16.2764 12.0517 16.2764 12.0517V9.30536C15.8646 9.25405 15.4499 9.22901 15.0349 9.2304C13.4173 9.2304 10.4266 9.68141 10.4266 13.1049V13.5402H9.01562V16.0793H10.4266V21.4397H9.11011V23.9788H15.4664V21.4372H13.9238V16.0767H18.1535V21.4372H16.8389V23.9763H22.9899V21.4372H21.6728V13.5187Z" fill="white"/>
</g>
<defs>
<clipPath id="clip0_1355_24067">
<rect width="32" height="32" fill="white" transform="translate(0 0.5)"/>
</clipPath>
</defs>
</svg>
