<svg width="100" height="100" viewBox="0 0 100 100" fill="none" xmlns="http://www.w3.org/2000/svg">
<path d="M41.698 53.0357L44.3388 47.3741C45.7973 44.2474 49.5152 42.8946 52.643 44.3526C55.7708 45.8106 57.124 49.5274 55.6655 52.6542L53.0245 58.3159L47.3613 55.6757L41.698 53.0357ZM80.8688 71.2957L64.3511 63.5957L66.9921 57.9344C67.9183 55.9486 68.4625 53.8836 68.6625 51.8202C69.2065 46.2001 67.166 40.5954 63.1355 36.6398C61.6558 35.1876 59.9111 33.9554 57.9246 33.0294C55.9383 32.1036 53.8727 31.5594 51.8088 31.3598C46.1868 30.8158 40.5805 32.8556 36.6237 36.8849C35.171 38.3643 33.9385 40.1084 33.0122 42.0941L30.3713 47.7556L25.301 58.6259C25.1842 58.8761 25.2925 59.1732 25.5427 59.2899L36.4163 64.3587L42.0797 66.9989L47.743 69.6389L59.0696 74.919L71.5125 80.7195C60.686 88.284 46.1583 89.9137 33.3942 83.6175C15.0299 74.5592 7.34287 52.2207 16.2139 33.7696C25.095 15.297 47.216 7.35963 65.8473 16.0448C80.5301 22.8894 88.6913 38.0296 87.3579 53.2799C87.3398 53.4889 87.4524 53.6867 87.6424 53.7754L98.5688 58.8689C98.8664 59.0077 99.2179 58.8269 99.2739 58.5032C103.042 36.7273 91.9359 14.2688 70.851 4.59313C45.7952 -6.90485 16.3462 3.91564 4.69521 28.8948C-6.97211 53.9089 3.85354 83.6425 28.8753 95.3067C47.8888 104.17 69.6258 100.047 84.0894 86.5822C87.0661 83.811 89.7359 80.6455 92.0093 77.1145C92.1729 76.8602 92.0723 76.5184 91.7981 76.3905L80.8688 71.2957Z" fill="#1B212B"/>
</svg>
