<svg width="32" height="33" viewBox="0 0 32 33" fill="none" xmlns="http://www.w3.org/2000/svg">
<g clip-path="url(#clip0_1355_24060)">
<path fill-rule="evenodd" clip-rule="evenodd" d="M16 0.534302C24.8368 0.534302 32 7.87819 32 16.939C32 24.1854 27.4208 30.3326 21.0672 32.5038C20.256 32.6654 19.968 32.1531 19.968 31.7163C19.968 31.1755 19.9872 29.4092 19.9872 27.214C19.9872 25.6844 19.4752 24.6861 18.9008 24.1773C22.464 23.7709 26.208 22.3835 26.208 16.0827C26.208 14.2907 25.5872 12.8284 24.56 11.6796C24.7264 11.2652 25.2752 9.59663 24.4032 7.33743C24.4032 7.33743 23.0624 6.89786 20.008 9.01946C18.7296 8.65626 17.36 8.47351 16 8.46711C14.64 8.47351 13.272 8.65626 11.9952 9.01946C8.9376 6.89786 7.5936 7.33743 7.5936 7.33743C6.7248 9.59663 7.2736 11.2652 7.4384 11.6796C6.416 12.8284 5.79041 14.2907 5.79041 16.0827C5.79041 22.3675 9.52641 23.7762 13.08 24.1906C12.6224 24.6002 12.208 25.3227 12.064 26.3835C11.152 26.8027 8.8352 27.5282 7.408 25.021C7.408 25.021 6.5616 23.4448 4.9552 23.3296C4.9552 23.3296 3.3952 23.3089 4.8464 24.3265C4.8464 24.3265 5.8944 24.8305 6.6224 26.7265C6.6224 26.7265 7.5616 29.6544 12.0128 28.6624C12.0208 30.0336 12.0352 31.3259 12.0352 31.7163C12.0352 32.1499 11.7408 32.6574 10.9424 32.5054C4.584 30.3374 0 24.187 0 16.939C0 7.87819 7.1648 0.534302 16 0.534302Z" fill="black"/>
</g>
<defs>
<clipPath id="clip0_1355_24060">
<rect width="32" height="32" fill="white" transform="translate(0 0.534302)"/>
</clipPath>
</defs>
</svg>
