<svg width="100" height="100" viewBox="0 0 100 100" fill="none" xmlns="http://www.w3.org/2000/svg">
<g clip-path="url(#clip0_1549_24987)">
<path fill-rule="evenodd" clip-rule="evenodd" d="M50 0C77.615 0 100 22.9496 100 51.2646C100 73.9096 85.69 93.1198 65.835 99.9048C63.3 100.41 62.4 98.8088 62.4 97.4438C62.4 95.7538 62.46 90.234 62.46 83.374C62.46 78.594 60.86 75.4743 59.065 73.8843C70.2 72.6143 81.9 68.2789 81.9 48.5889C81.9 42.9889 79.96 38.4191 76.75 34.8291C77.27 33.5341 78.985 28.3198 76.26 21.2598C76.26 21.2598 72.07 19.8861 62.525 26.5161C58.53 25.3811 54.25 24.81 50 24.79C45.75 24.81 41.475 25.3811 37.485 26.5161C27.93 19.8861 23.73 21.2598 23.73 21.2598C21.015 28.3198 22.73 33.5341 23.245 34.8291C20.05 38.4191 18.095 42.9889 18.095 48.5889C18.095 68.2289 29.77 72.6308 40.875 73.9258C39.445 75.2058 38.15 77.4638 37.7 80.7788C34.85 82.0888 27.61 84.356 23.15 76.521C23.15 76.521 20.505 71.5954 15.485 71.2354C15.485 71.2354 10.61 71.1706 15.145 74.3506C15.145 74.3506 18.42 75.9256 20.695 81.8506C20.695 81.8506 23.63 91.0004 37.54 87.9004C37.565 92.1854 37.61 96.2238 37.61 97.4438C37.61 98.7988 36.69 100.385 34.195 99.9097C14.325 93.1347 0 73.9146 0 51.2646C0 22.9496 22.39 0 50 0Z" fill="black"/>
</g>
<defs>
<clipPath id="clip0_1549_24987">
<rect width="100" height="100" fill="white"/>
</clipPath>
</defs>
</svg>
