<svg width="100" height="101" viewBox="0 0 100 101" fill="none" xmlns="http://www.w3.org/2000/svg">
<g id="github-142-svgrepo-com 1" clip-path="url(#clip0_797_23382)">
<g id="Page-1">
<g id="Dribbble-Light-Preview">
<g id="icons">
<path id="github-[#142]" fill-rule="evenodd" clip-rule="evenodd" d="M50 0.5C77.615 0.5 100 23.4496 100 51.7646C100 74.4096 85.69 93.6198 65.835 100.405C63.3 100.91 62.4 99.3088 62.4 97.9438C62.4 96.2538 62.46 90.734 62.46 83.874C62.46 79.094 60.86 75.9743 59.065 74.3843C70.2 73.1143 81.9 68.7789 81.9 49.0889C81.9 43.4889 79.96 38.9191 76.75 35.3291C77.27 34.0341 78.985 28.8198 76.26 21.7598C76.26 21.7598 72.07 20.3861 62.525 27.0161C58.53 25.8811 54.25 25.31 50 25.29C45.75 25.31 41.475 25.8811 37.485 27.0161C27.93 20.3861 23.73 21.7598 23.73 21.7598C21.015 28.8198 22.73 34.0341 23.245 35.3291C20.05 38.9191 18.095 43.4889 18.095 49.0889C18.095 68.7289 29.77 73.1308 40.875 74.4258C39.445 75.7058 38.15 77.9638 37.7 81.2788C34.85 82.5888 27.61 84.856 23.15 77.021C23.15 77.021 20.505 72.0954 15.485 71.7354C15.485 71.7354 10.61 71.6706 15.145 74.8506C15.145 74.8506 18.42 76.4256 20.695 82.3506C20.695 82.3506 23.63 91.5004 37.54 88.4004C37.565 92.6854 37.61 96.7238 37.61 97.9438C37.61 99.2988 36.69 100.885 34.195 100.41C14.325 93.6347 0 74.4146 0 51.7646C0 23.4496 22.39 0.5 50 0.5Z" fill="white"/>
</g>
</g>
</g>
</g>
<defs>
<clipPath id="clip0_797_23382">
<rect width="100" height="100" fill="white" transform="translate(0 0.5)"/>
</clipPath>
</defs>
</svg>
