<svg width="32" height="25" viewBox="0 0 32 25" fill="none" xmlns="http://www.w3.org/2000/svg">
<g id="gmail-icon-logo-svgrepo-com 1" clip-path="url(#clip0_1355_24071)">
<path id="Vector" d="M29.3743 0.924072C30.816 0.924072 31.9958 2.10377 31.9958 3.54556V4.30553L28.3537 6.90715L15.9542 15.4485L3.55477 6.82051V24.0758H2.62151C1.17973 24.0758 0 22.8962 0 21.4544V3.54629C0 2.10448 1.17973 0.924774 2.62151 0.924774L15.9542 10.8099L29.3735 0.924774L29.3743 0.924072Z" fill="#E75A4D"/>
<path id="Vector_2" d="M2.625 0.924072L15.9577 10.8092L29.3777 0.924072H2.625Z" fill="url(#paint0_linear_1355_24071)"/>
<path id="Vector_3" d="M3.55469 6.82056V24.0759H28.3543V6.9072L15.9541 15.4486L3.55469 6.82056Z" fill="#E7E4D7"/>
<path id="Vector_4" d="M3.55469 24.0759L15.9541 15.4486L15.898 15.4088L3.55469 23.8862V24.0759Z" fill="#B8B7AE"/>
<path id="Vector_5" d="M28.3533 6.90723L28.3604 24.0759L15.9531 15.4486L28.3533 6.90723Z" fill="#B7B6AD"/>
<path id="Vector_6" d="M31.993 4.30551L31.9972 21.4565C31.9347 23.3628 31.1087 24.0432 28.3587 24.0751L28.3516 6.90643L31.9937 4.30481L31.993 4.30551Z" fill="#B2392F"/>
<path id="Vector_7" d="M2.625 0.924072L15.9577 10.8092L29.3777 0.924072H2.625Z" fill="url(#paint1_linear_1355_24071)"/>
<path id="Vector_8" d="M2.625 0.924072L15.9577 10.8092L29.3777 0.924072H2.625Z" fill="url(#paint2_linear_1355_24071)"/>
<path id="Vector_9" d="M2.625 0.924072L15.9577 10.8092L29.3777 0.924072H2.625Z" fill="url(#paint3_linear_1355_24071)"/>
<path id="Vector_10" d="M2.625 0.924072L15.9577 10.8092L29.3777 0.924072H2.625Z" fill="url(#paint4_linear_1355_24071)"/>
<path id="Vector_11" d="M2.625 0.924072L15.9577 10.8092L29.3777 0.924072H2.625Z" fill="url(#paint5_linear_1355_24071)"/>
<path id="Vector_12" d="M2.625 0.924072L15.9577 10.8092L29.3777 0.924072H2.625Z" fill="url(#paint6_linear_1355_24071)"/>
<path id="Vector_13" d="M2.625 0.924072L15.9577 10.8092L29.3777 0.924072H2.625Z" fill="url(#paint7_linear_1355_24071)"/>
<path id="Vector_14" d="M2.625 0.924072L15.9577 10.8092L29.3777 0.924072H2.625Z" fill="#F7F5ED"/>
</g>
<defs>
<linearGradient id="paint0_linear_1355_24071" x1="7.43839" y1="5.8675" x2="24.5318" y2="5.8675" gradientUnits="userSpaceOnUse">
<stop stop-color="#F8F6EF"/>
<stop offset="1" stop-color="#E7E4D6"/>
</linearGradient>
<linearGradient id="paint1_linear_1355_24071" x1="7.43839" y1="5.8675" x2="24.5318" y2="5.8675" gradientUnits="userSpaceOnUse">
<stop stop-color="#F8F6EF"/>
<stop offset="1" stop-color="#E7E4D6"/>
</linearGradient>
<linearGradient id="paint2_linear_1355_24071" x1="7.43839" y1="5.8675" x2="24.5318" y2="5.8675" gradientUnits="userSpaceOnUse">
<stop stop-color="#F8F6EF"/>
<stop offset="1" stop-color="#E7E4D6"/>
</linearGradient>
<linearGradient id="paint3_linear_1355_24071" x1="7.43839" y1="5.8675" x2="24.5318" y2="5.8675" gradientUnits="userSpaceOnUse">
<stop stop-color="#F8F6EF"/>
<stop offset="1" stop-color="#E7E4D6"/>
</linearGradient>
<linearGradient id="paint4_linear_1355_24071" x1="7.43839" y1="5.8675" x2="24.5318" y2="5.8675" gradientUnits="userSpaceOnUse">
<stop stop-color="#F8F6EF"/>
<stop offset="1" stop-color="#E7E4D6"/>
</linearGradient>
<linearGradient id="paint5_linear_1355_24071" x1="7.43839" y1="5.8675" x2="24.5318" y2="5.8675" gradientUnits="userSpaceOnUse">
<stop stop-color="#F8F6EF"/>
<stop offset="1" stop-color="#E7E4D6"/>
</linearGradient>
<linearGradient id="paint6_linear_1355_24071" x1="7.43839" y1="5.8675" x2="24.5318" y2="5.8675" gradientUnits="userSpaceOnUse">
<stop stop-color="#F8F6EF"/>
<stop offset="1" stop-color="#E7E4D6"/>
</linearGradient>
<linearGradient id="paint7_linear_1355_24071" x1="7.43839" y1="5.8675" x2="24.5318" y2="5.8675" gradientUnits="userSpaceOnUse">
<stop stop-color="#F8F6EF"/>
<stop offset="1" stop-color="#E7E4D6"/>
</linearGradient>
<clipPath id="clip0_1355_24071">
<rect width="32" height="24" fill="white" transform="translate(0 0.5)"/>
</clipPath>
</defs>
</svg>
