<svg width="100" height="101" viewBox="0 0 100 101" fill="none" xmlns="http://www.w3.org/2000/svg">
<g id="html-5-svgrepo-com 1" clip-path="url(#clip0_796_23258)">
<g id="Group">
<path id="Vector" d="M85.3335 20.1025L78.8955 92.2244L49.9565 100.247L21.0972 92.2356L14.666 20.1025H85.3335Z" fill="#E44D26"/>
<path id="Vector_2" d="M50 94.1154L73.3841 87.6324L78.8858 26.001H50V94.1154Z" fill="#F16529"/>
<path id="Vector_3" d="M37.4849 43.6946H50.0001V34.8477H27.8164L28.0282 37.2211L30.2026 61.6006H50.0001V52.7539H38.2934L37.4849 43.6946Z" fill="#EBEBEB"/>
<path id="Vector_4" d="M39.4785 66.0244H30.5977L31.8371 79.9152L49.9592 84.946L49.9999 84.9347V75.7303L49.9611 75.7406L40.1083 73.0802L39.4785 66.0244Z" fill="#EBEBEB"/>
<path id="Vector_5" d="M21.2402 0.5H25.7361V4.94187H29.8487V0.5H34.3447V13.9511H29.8489V9.44687H25.7363V13.9511H21.2404L21.2402 0.5Z" fill="black"/>
<path id="Vector_6" d="M40.2587 4.96058H36.3008V0.5H48.7147V4.96058H44.755V13.9511H40.2589L40.2587 4.96058Z" fill="black"/>
<path id="Vector_7" d="M50.6836 0.5H55.3715L58.2552 5.22631L61.136 0.5H65.8257V13.9511H61.3484V7.28399L58.2552 12.0666H58.1779L55.0826 7.28399V13.9511H50.6836V0.5Z" fill="black"/>
<path id="Vector_8" d="M68.0645 0.5H72.5617V9.50493H78.8841V13.9511H68.0645V0.5Z" fill="black"/>
<path id="Vector_9" d="M49.9688 61.6006H60.8626L59.8357 73.0743L49.9688 75.7375V84.9415L68.1052 79.915L68.2383 78.4203L70.3172 55.1295L70.5331 52.7539H49.9688V61.6006Z" fill="white"/>
<path id="Vector_10" d="M49.9688 43.673V43.6946H71.3381L71.5155 41.7061L71.9186 37.2211L72.1302 34.8477H49.9688V43.673Z" fill="white"/>
</g>
</g>
<defs>
<clipPath id="clip0_796_23258">
<rect width="100" height="100" fill="white" transform="translate(0 0.5)"/>
</clipPath>
</defs>
</svg>
