<svg width="32" height="32" viewBox="0 0 32 32" fill="none" xmlns="http://www.w3.org/2000/svg">
<g id="Instagram">
<rect width="32" height="32" rx="16" fill="url(#paint0_linear_852_27306)"/>
<path id="Vector" d="M16.0017 8.13034C18.5668 8.13034 18.8679 8.14178 19.8818 8.18751C20.8195 8.22944 21.3264 8.38571 21.6656 8.51912C22.1154 8.69445 22.4356 8.90027 22.771 9.23569C23.1064 9.5711 23.316 9.89127 23.4875 10.341C23.6171 10.6803 23.7772 11.1872 23.8191 12.1248C23.8649 13.1387 23.8763 13.4398 23.8763 16.005C23.8763 18.5701 23.8649 18.8713 23.8191 19.8851C23.7772 20.8228 23.6209 21.3297 23.4875 21.6689C23.3122 22.1187 23.1064 22.4389 22.771 22.7743C22.4356 23.1097 22.1154 23.3193 21.6656 23.4908C21.3264 23.6204 20.8195 23.7805 19.8818 23.8225C18.8679 23.8682 18.5668 23.8796 16.0017 23.8796C13.4365 23.8796 13.1354 23.8682 12.1215 23.8225C11.1839 23.7805 10.6769 23.6243 10.3377 23.4908C9.88795 23.3155 9.56778 23.1097 9.23237 22.7743C8.89695 22.4389 8.68732 22.1187 8.5158 21.6689C8.3862 21.3297 8.22612 20.8228 8.18419 19.8851C8.13845 18.8713 8.12702 18.5701 8.12702 16.005C8.12702 13.4398 8.13845 13.1387 8.18419 12.1248C8.22612 11.1872 8.38239 10.6803 8.5158 10.341C8.69113 9.89127 8.89695 9.5711 9.23237 9.23569C9.56778 8.90027 9.88795 8.69064 10.3377 8.51912C10.6769 8.38953 11.1839 8.22944 12.1215 8.18751C13.1354 8.13796 13.4403 8.13034 16.0017 8.13034ZM16.0017 6.3999C13.3946 6.3999 13.0668 6.41134 12.0415 6.45708C11.02 6.50281 10.3225 6.66671 9.71262 6.90303C9.07991 7.14696 8.54629 7.47857 8.01267 8.01218C7.47906 8.5458 7.15126 9.08323 6.90351 9.71213C6.6672 10.322 6.5033 11.0195 6.45756 12.0448C6.41183 13.0663 6.40039 13.3941 6.40039 16.0012C6.40039 18.6083 6.41183 18.9361 6.45756 19.9614C6.5033 20.9829 6.6672 21.6804 6.90351 22.294C7.14745 22.9267 7.47906 23.4604 8.01267 23.994C8.54629 24.5276 9.08372 24.8554 9.71262 25.1031C10.3225 25.3394 11.02 25.5033 12.0453 25.5491C13.0706 25.5948 13.3946 25.6063 16.0055 25.6063C18.6164 25.6063 18.9404 25.5948 19.9657 25.5491C20.9872 25.5033 21.6847 25.3394 22.2983 25.1031C22.9311 24.8592 23.4647 24.5276 23.9983 23.994C24.5319 23.4604 24.8597 22.9229 25.1074 22.294C25.3438 21.6842 25.5077 20.9867 25.5534 19.9614C25.5991 18.9361 25.6106 18.6121 25.6106 16.0012C25.6106 13.3903 25.5991 13.0663 25.5534 12.041C25.5077 11.0195 25.3438 10.322 25.1074 9.70832C24.8635 9.0756 24.5319 8.54199 23.9983 8.00837C23.4647 7.47476 22.9272 7.14696 22.2983 6.89921C21.6885 6.6629 20.991 6.499 19.9657 6.45326C18.9366 6.41134 18.6088 6.3999 16.0017 6.3999Z" fill="white"/>
<path id="Vector_2" d="M16.0024 11.073C13.281 11.073 11.0703 13.2799 11.0703 16.0051C11.0703 18.7304 13.2772 20.9373 16.0024 20.9373C18.7277 20.9373 20.9346 18.7304 20.9346 16.0051C20.9346 13.2799 18.7277 11.073 16.0024 11.073ZM16.0024 19.203C14.2339 19.203 12.8008 17.7699 12.8008 16.0013C12.8008 14.2328 14.2339 12.7996 16.0024 12.7996C17.771 12.7996 19.2041 14.2328 19.2041 16.0013C19.2041 17.7699 17.771 19.203 16.0024 19.203Z" fill="white"/>
<path id="Vector_3" d="M21.1296 12.0258C21.7653 12.0258 22.2807 11.5104 22.2807 10.8747C22.2807 10.239 21.7653 9.72363 21.1296 9.72363C20.4939 9.72363 19.9785 10.239 19.9785 10.8747C19.9785 11.5104 20.4939 12.0258 21.1296 12.0258Z" fill="white"/>
</g>
<defs>
<linearGradient id="paint0_linear_852_27306" x1="16" y1="31.9068" x2="16" y2="0.248538" gradientUnits="userSpaceOnUse">
<stop stop-color="#E09B3D"/>
<stop offset="0.3" stop-color="#C74C4D"/>
<stop offset="0.6" stop-color="#C21975"/>
<stop offset="1" stop-color="#7024C4"/>
</linearGradient>
</defs>
</svg>
