<svg width="100" height="101" viewBox="0 0 100 101" fill="none" xmlns="http://www.w3.org/2000/svg">
<g id="javascript-svgrepo-com 1" clip-path="url(#clip0_796_23281)">
<path id="Vector" d="M85 0.5H15C6.71573 0.5 0 7.21573 0 15.5V85.5C0 93.7843 6.71573 100.5 15 100.5H85C93.2843 100.5 100 93.7843 100 85.5V15.5C100 7.21573 93.2843 0.5 85 0.5Z" fill="#F7DF1E"/>
<path id="Vector_2" d="M63.2812 72.7656C65.2344 76.0859 67.9688 78.4297 72.4609 78.4297C76.3672 78.4297 78.9062 76.4766 78.9062 73.7422C78.9062 70.6172 76.3672 69.4453 72.0703 67.4922L69.7266 66.5156C62.8906 63.5859 58.3984 60.0703 58.3984 52.4531C58.3984 45.4219 63.6719 39.9531 72.0703 39.9531C78.125 39.9531 82.4219 42.1016 85.3516 47.5703L78.125 52.2578C76.5625 49.3281 74.8047 48.1562 72.0703 48.1562C69.3359 48.1562 67.5781 49.9141 67.5781 52.2578C67.5781 54.9922 69.3359 56.1641 73.4375 57.9219L75.7812 58.8984C83.7891 62.4141 88.2812 65.7344 88.2812 73.7422C88.2812 82.1406 81.6406 86.8281 72.6562 86.8281C63.8672 86.8281 58.2031 82.7266 55.4688 77.2578L63.2812 72.7656ZM30.0781 73.5469C31.6406 76.0859 32.8125 78.4297 36.1328 78.4297C39.2578 78.4297 41.2109 77.2578 41.2109 72.5703V40.1484H50.5859V72.1797C50.5859 81.9453 44.9219 86.2422 36.5234 86.2422C28.9062 86.2422 24.6094 82.3359 22.4609 77.6484L30.0781 73.5469Z" fill="black"/>
</g>
<defs>
<clipPath id="clip0_796_23281">
<rect width="100" height="100" fill="white" transform="translate(0 0.5)"/>
</clipPath>
</defs>
</svg>
