<svg width="32" height="32" viewBox="0 0 32 32" fill="none" xmlns="http://www.w3.org/2000/svg">
<g id="LinkedIn">
<rect width="32" height="32" rx="16" fill="#0A66C2"/>
<path id="Vector" d="M23.5 7.19995H8.49844C8.15387 7.19995 7.8234 7.33683 7.57975 7.58048C7.3361 7.82414 7.19922 8.1546 7.19922 8.49917V23.5007C7.19922 23.8453 7.3361 24.1758 7.57975 24.4194C7.8234 24.6631 8.15387 24.8 8.49844 24.8H23.5C23.8446 24.8 24.175 24.6631 24.4187 24.4194C24.6623 24.1758 24.7992 23.8453 24.7992 23.5007V8.49917C24.7992 8.1546 24.6623 7.82414 24.4187 7.58048C24.175 7.33683 23.8446 7.19995 23.5 7.19995ZM12.445 22.193H9.79889V13.7877H12.445V22.193ZM11.1201 12.623C10.82 12.6213 10.527 12.5307 10.2783 12.3627C10.0296 12.1947 9.83617 11.9567 9.72253 11.6789C9.60889 11.4011 9.58009 11.0959 9.63977 10.8017C9.69946 10.5075 9.84494 10.2376 10.0579 10.0261C10.2708 9.81449 10.5416 9.67075 10.8362 9.61296C11.1307 9.55516 11.4358 9.58592 11.7128 9.70134C11.9899 9.81676 12.2266 10.0117 12.393 10.2615C12.5594 10.5113 12.6481 10.8048 12.6479 11.105C12.6507 11.3059 12.6131 11.5054 12.5372 11.6915C12.4613 11.8776 12.3487 12.0465 12.2061 12.1881C12.0635 12.3298 11.8939 12.4413 11.7073 12.516C11.5208 12.5907 11.321 12.6271 11.1201 12.623ZM22.1983 22.2003H19.5534V17.6084C19.5534 16.2542 18.9778 15.8362 18.2347 15.8362C17.45 15.8362 16.68 16.4277 16.68 17.6426V22.2003H14.0339V13.7938H16.5786V14.9586H16.6128C16.8682 14.4416 17.7629 13.558 19.1281 13.558C20.6046 13.558 22.1996 14.4343 22.1996 17.001L22.1983 22.2003Z" fill="white"/>
</g>
</svg>
