<svg width="100" height="101" viewBox="0 0 100 101" fill="none" xmlns="http://www.w3.org/2000/svg">
<g id="Notion" clip-path="url(#clip0_797_23391)">
<g id="Group">
<g id="Vector">
<path d="M36.4326 2.75926C20.8243 3.91419 7.55545 4.97633 6.93159 5.1007C5.18242 5.41263 3.59118 6.59915 2.84295 8.16077L2.1875 9.53484L2.25068 42.2835L2.34346 75.0322L3.34243 77.0617C3.90509 78.185 7.71339 83.4306 11.8652 88.8301C20.0761 99.4752 20.6683 100.069 23.7896 100.381C24.6958 100.474 31.501 100.162 38.8688 99.7259C46.2683 99.258 58.1295 98.5394 65.2486 98.1347C95.6538 96.2888 94.0922 96.4447 95.8394 94.9463C98.0249 93.1359 97.8689 96.1012 97.9617 56.2986C98.0249 22.551 97.9933 20.3359 97.4938 19.3053C96.9016 18.1504 95.8394 17.339 81.9783 7.59811C72.7073 1.10485 72.0518 0.761328 67.898 0.698152C66.1824 0.636951 52.0094 1.57274 36.4326 2.75926ZM71.5208 7.03546C72.8317 7.62773 82.4166 14.3085 83.8203 15.5898C84.1954 15.9649 84.3198 16.2769 84.1322 16.4644C83.6959 16.8395 24.3799 20.3675 22.6643 20.1168C21.8845 19.9924 20.7295 19.5245 20.0741 19.0862C17.3575 17.2442 10.6155 11.7183 10.6155 11.3136C10.6155 10.2515 10.3964 10.2515 36.8393 8.34832C41.8973 8.00481 50.201 7.38095 55.259 6.97425C66.214 6.09967 69.4932 6.13126 71.5208 7.03546ZM90.3767 24.1126C90.813 24.5489 91.1881 25.3919 91.3125 26.2033C91.4053 26.9535 91.4685 40.939 91.4053 57.2344C91.3125 85.2054 91.2809 86.9546 90.7498 87.766C90.4379 88.2655 89.8141 88.7965 89.3442 88.9525C88.0353 89.4836 25.8803 93.0116 24.601 92.6364C24.0088 92.4805 23.1954 91.981 22.7591 91.5447L22.0089 90.7333L21.9161 60.5768C21.8529 39.411 21.9161 30.0452 22.1668 29.2022C22.3543 28.5783 22.8222 27.8281 23.2289 27.5794C23.7916 27.2043 27.4755 26.8923 40.1501 26.1441C49.048 25.6446 62.8144 24.8016 70.7133 24.3337C89.5021 23.1768 89.4409 23.1768 90.3767 24.1126Z" fill="black"/>
<path d="M71.5208 7.03546C72.8317 7.62773 82.4166 14.3085 83.8203 15.5898C84.1954 15.9649 84.3198 16.2769 84.1322 16.4644C83.6959 16.8395 24.3799 20.3675 22.6643 20.1168C21.8845 19.9924 20.7295 19.5245 20.0741 19.0862C17.3575 17.2442 10.6155 11.7183 10.6155 11.3136C10.6155 10.2515 10.3964 10.2515 36.8393 8.34832C41.8973 8.00481 50.201 7.38095 55.259 6.97425C66.214 6.09967 69.4932 6.13126 71.5208 7.03546Z" fill="white"/>
<path d="M90.3767 24.1126C90.813 24.5489 91.1881 25.3919 91.3125 26.2033C91.4053 26.9535 91.4685 40.939 91.4053 57.2344C91.3125 85.2054 91.2809 86.9546 90.7498 87.766C90.4379 88.2655 89.8141 88.7965 89.3442 88.9525C88.0353 89.4836 25.8803 93.0116 24.601 92.6364C24.0088 92.4805 23.1954 91.981 22.7591 91.5447L22.0089 90.7333L21.9161 60.5768C21.8529 39.411 21.9161 30.0452 22.1668 29.2022C22.3543 28.5783 22.8222 27.8281 23.2289 27.5794C23.7916 27.2043 27.4755 26.8923 40.1501 26.1441C49.048 25.6446 62.8144 24.8016 70.7133 24.3337C89.5021 23.1768 89.4409 23.1768 90.3767 24.1126Z" fill="white"/>
</g>
<path id="Vector_2" d="M73.6751 34.4455C70.3031 34.6647 67.3062 34.9766 66.9627 35.1642C65.9321 35.6952 65.3083 36.5698 65.1839 37.5688C65.0911 38.5993 65.403 38.7237 68.7731 39.1304L70.2399 39.318V52.648C70.2399 60.5766 70.1155 65.8221 69.9596 65.6662C69.8036 65.4786 65.3714 58.7366 60.0943 50.6817C54.8191 42.5972 50.4482 35.946 50.385 35.8848C50.3218 35.8216 46.8886 36.0091 42.7684 36.2915C37.7104 36.635 34.9326 36.9469 34.37 37.2588C33.4638 37.7267 32.4648 39.3811 32.4648 40.4749C32.4648 41.1303 33.6514 41.4738 36.1488 41.4738H37.4597V79.8096L35.3374 80.465C33.6829 80.9645 33.1203 81.2765 32.8399 81.9003C32.3405 82.9625 32.3721 83.9298 32.8715 83.9298C33.0591 83.9298 36.5871 83.7107 40.6441 83.4619C48.6674 82.994 49.5716 82.7749 50.4146 81.1205C50.6653 80.621 50.8825 80.0899 50.8825 79.934C50.8825 79.8096 49.7908 79.4345 48.4779 79.1226C47.1354 78.8106 45.7929 78.4987 45.5126 78.4355C44.9815 78.2796 44.9499 77.3122 44.9499 63.8874V49.4952L54.4401 64.3868C64.3981 79.9952 65.6478 81.7759 67.1779 82.5558C69.083 83.5547 73.9219 82.8677 76.3561 81.2765L77.1063 80.8086L77.1695 59.5184L77.2623 38.1966L78.9167 37.8847C80.883 37.5096 81.7892 36.6054 81.7892 35.0437C81.7892 34.0448 81.726 33.9816 80.7902 34.0132C80.2315 34.0389 77.0155 34.2264 73.6751 34.4455Z" fill="black"/>
</g>
</g>
<defs>
<clipPath id="clip0_797_23391">
<rect width="100" height="100" fill="white" transform="translate(0 0.5)"/>
</clipPath>
</defs>
</svg>
