<svg width="100" height="101" viewBox="0 0 100 101" fill="none" xmlns="http://www.w3.org/2000/svg">
<g id="oxygen 1" clip-path="url(#clip0_797_23374)">
<path id="Vector" d="M92.3865 50.0134C92.382 40.8325 89.378 31.9045 83.8316 24.5884C78.2852 17.2723 70.5003 11.9686 61.6618 9.48482C52.8233 7.001 43.4153 7.47301 34.8698 10.829C26.3243 14.185 19.1094 20.2412 14.3231 28.0758C9.53691 35.9103 7.44154 45.0941 8.35599 54.2293C9.27043 63.3645 13.1446 71.9508 19.3888 78.6812C25.633 85.4116 33.9052 89.9175 42.9464 91.5131C51.9875 93.1087 61.3024 91.7065 69.4732 87.52C71.7374 88.914 74.3308 89.6824 76.989 89.7471C79.6471 89.8117 82.2748 89.1702 84.6041 87.8879C86.9334 86.6057 88.8809 84.7286 90.2481 82.4482C91.6153 80.1677 92.3532 77.5654 92.3865 74.9067C92.3904 71.6371 91.3016 68.46 89.2932 65.88C91.342 60.8414 92.3926 55.4527 92.3865 50.0134ZM50.2465 84.9667C31.6399 84.9667 16.5599 69.32 16.5599 50.0134C16.5599 30.7067 31.6399 15.0334 50.2465 15.0334C68.8532 15.0334 83.9332 30.7001 83.9332 50.0134C83.9388 53.6948 83.3789 57.3553 82.2732 60.8667C80.6995 60.332 79.0486 60.0595 77.3865 60.06C73.4289 60.0405 69.6255 61.5936 66.8126 64.3777C63.9997 67.1618 62.4077 70.9491 62.3865 74.9067C62.3835 77.3355 62.9837 79.7271 64.1332 81.8667C59.7902 83.9135 55.0476 84.9722 50.2465 84.9667ZM87.1065 74.9267C87.0952 76.1918 86.8348 77.4423 86.3402 78.6067C85.8456 79.7711 85.1264 80.8267 84.2238 81.7132C83.3212 82.5997 82.2529 83.2998 81.0797 83.7734C79.9066 84.2469 78.6516 84.4848 77.3865 84.4734C76.5592 84.4737 75.735 84.3707 74.9332 84.1667C73.609 83.8314 72.3708 83.2197 71.2999 82.3717C70.2291 81.5238 69.3498 80.4588 68.7199 79.2467C68.0259 77.9126 67.6645 76.4305 67.6665 74.9267C67.6779 73.6616 67.9383 72.4112 68.4329 71.2467C68.9275 70.0823 69.6466 69.0267 70.5492 68.1402C71.4518 67.2537 72.5202 66.5537 73.6934 66.0801C74.8665 65.6065 76.1215 65.3686 77.3865 65.38C78.3737 65.3799 79.3555 65.5259 80.2999 65.8134C81.6945 66.2414 82.9745 66.9786 84.0446 67.9701C85.1146 68.9617 85.9471 70.182 86.4799 71.54C86.8961 72.6205 87.1086 73.7688 87.1065 74.9267Z" fill="white"/>
</g>
<defs>
<clipPath id="clip0_797_23374">
<rect width="100" height="100" fill="white" transform="translate(0 0.5)"/>
</clipPath>
</defs>
</svg>
