<svg width="100" height="100" viewBox="0 0 100 100" fill="none" xmlns="http://www.w3.org/2000/svg">
<g clip-path="url(#clip0_1549_24981)">
<path d="M92.3885 49.5134C92.384 40.3325 89.3799 31.4045 83.8335 24.0884C78.2872 16.7723 70.5023 11.4686 61.6638 8.98482C52.8253 6.501 43.4173 6.97301 34.8718 10.329C26.3263 13.685 19.1113 19.7412 14.3251 27.5758C9.53886 35.4103 7.4435 44.5941 8.35794 53.7293C9.27238 62.8645 13.1465 71.4508 19.3907 78.1812C25.6349 84.9116 33.9072 89.4175 42.9483 91.0131C51.9895 92.6087 61.3044 91.2065 69.4752 87.02C71.7394 88.414 74.3328 89.1824 76.9909 89.2471C79.649 89.3117 82.2767 88.6702 84.606 87.3879C86.9353 86.1057 88.8829 84.2286 90.2501 81.9482C91.6172 79.6677 92.3551 77.0654 92.3885 74.4067C92.3923 71.1371 91.3036 67.96 89.2952 65.38C91.344 60.3414 92.3945 54.9527 92.3885 49.5134ZM50.2485 84.4667C31.6418 84.4667 16.5618 68.82 16.5618 49.5134C16.5618 30.2067 31.6418 14.5334 50.2485 14.5334C68.8552 14.5334 83.9352 30.2001 83.9352 49.5134C83.9407 53.1948 83.3809 56.8553 82.2752 60.3667C80.7014 59.832 79.0506 59.5595 77.3885 59.56C73.4308 59.5405 69.6274 61.0936 66.8146 63.8777C64.0017 66.6618 62.4096 70.4491 62.3885 74.4067C62.3854 76.8355 62.9856 79.2271 64.1351 81.3667C59.7922 83.4135 55.0496 84.4722 50.2485 84.4667ZM87.1085 74.4267C87.0972 75.6918 86.8367 76.9423 86.3421 78.1067C85.8475 79.2711 85.1284 80.3267 84.2258 81.2132C83.3232 82.0997 82.2548 82.7998 81.0817 83.2734C79.9085 83.7469 78.6536 83.9848 77.3885 83.9734C76.5611 83.9737 75.737 83.8707 74.9352 83.6667C73.611 83.3314 72.3728 82.7197 71.3019 81.8717C70.231 81.0238 69.3517 79.9588 68.7218 78.7467C68.0278 77.4126 67.6664 75.9305 67.6685 74.4267C67.6798 73.1616 67.9402 71.9112 68.4348 70.7467C68.9295 69.5823 69.6486 68.5267 70.5512 67.6402C71.4538 66.7537 72.5222 66.0537 73.6953 65.5801C74.8685 65.1065 76.1234 64.8686 77.3885 64.88C78.3757 64.8799 79.3574 65.0259 80.3018 65.3134C81.6965 65.7414 82.9765 66.4786 84.0465 67.4702C85.1166 68.4617 85.949 69.682 86.4818 71.04C86.8981 72.1205 87.1106 73.2688 87.1085 74.4267Z" fill="#7E67EE"/>
</g>
<defs>
<clipPath id="clip0_1549_24981">
<rect width="100" height="100" fill="white"/>
</clipPath>
</defs>
</svg>
