<svg width="100" height="101" viewBox="0 0 100 101" fill="none" xmlns="http://www.w3.org/2000/svg">
<g id="react-svgrepo-com 1">
<g id="Group">
<path id="Vector" d="M82.2201 34.8061C81.1827 34.449 80.1078 34.1112 79.001 33.7917C79.1829 33.0493 79.3498 32.3164 79.4983 31.5961C81.9351 19.7675 80.3418 10.2384 74.9013 7.10097C69.6845 4.09262 61.1529 7.22931 52.5363 14.728C51.7077 15.4491 50.8768 16.2125 50.0463 17.0127C49.4929 16.4833 48.9404 15.9717 48.3893 15.4824C39.3589 7.46427 30.3073 4.08532 24.8721 7.2318C19.6603 10.2489 18.1169 19.2072 20.3104 30.4172C20.5222 31.5 20.7698 32.6057 21.0498 33.7299C19.7687 34.0936 18.532 34.4813 17.3486 34.8937C6.76146 38.5848 0 44.3698 0 50.3703C0 56.5677 7.25843 62.7838 18.2858 66.5529C19.156 66.8503 20.059 67.1316 20.9896 67.3986C20.6875 68.6145 20.4248 69.806 20.2043 70.9681C18.1128 81.9836 19.7461 90.7303 24.944 93.7283C30.313 96.8244 39.3236 93.642 48.0977 85.9724C48.7912 85.3661 49.4872 84.7232 50.1844 84.0493C51.0881 84.9195 51.9904 85.7431 52.8879 86.5156C61.3866 93.829 69.7805 96.7822 74.9736 93.7758C80.3372 90.6708 82.0803 81.2748 79.8173 69.843C79.6444 68.9699 79.4433 68.078 79.2174 67.1702C79.8502 66.9831 80.4714 66.79 81.0771 66.5892C92.5411 62.7909 100 56.6505 100 50.3703C100 44.3481 93.0205 38.5241 82.2201 34.8061ZM79.7336 62.5342C79.1868 62.7152 78.6257 62.8902 78.054 63.0598C76.7884 59.0533 75.0804 54.7929 72.9901 50.3911C74.9848 46.0942 76.6268 41.8883 77.857 37.9077C78.8799 38.2037 79.8728 38.516 80.8295 38.8454C90.0833 42.0311 95.728 46.7411 95.728 50.3703C95.728 54.2361 89.6319 59.2544 79.7336 62.5342ZM75.6265 70.6727C76.6272 75.7276 76.7701 80.2979 76.1072 83.8707C75.5117 87.0811 74.3139 89.2215 72.833 90.0788C69.6815 91.9029 62.9421 89.5318 55.6739 83.2773C54.8407 82.5603 54.0014 81.7947 53.1595 80.9845C55.9772 77.9028 58.7933 74.3202 61.5418 70.3414C66.3761 69.9124 70.9433 69.2111 75.0852 68.2537C75.2892 69.0765 75.4704 69.8836 75.6265 70.6727ZM34.0923 89.7635C31.0132 90.8509 28.561 90.8821 27.0786 90.0273C23.9243 88.208 22.6129 81.1853 24.4017 71.7649C24.6065 70.686 24.8504 69.5778 25.1315 68.445C29.2279 69.3508 33.7617 70.0027 38.6076 70.3955C41.3745 74.2889 44.272 77.8675 47.1919 81.001C46.5539 81.6169 45.9185 82.2032 45.2866 82.7557C41.4068 86.1471 37.5187 88.5533 34.0923 89.7635ZM19.6674 62.5105C14.7913 60.8439 10.7645 58.6779 8.00424 56.3142C5.52401 54.1902 4.27179 52.0814 4.27179 50.3703C4.27179 46.729 9.70057 42.0845 18.7548 38.9277C19.8534 38.5446 21.0035 38.1836 22.197 37.8445C23.4483 41.915 25.0898 46.1708 27.0707 50.4743C25.0642 54.8416 23.3993 59.1652 22.1357 63.2834C21.2849 63.0388 20.4606 62.7814 19.6674 62.5105ZM24.5028 29.5968C22.6235 19.9923 23.8716 12.7471 27.0124 10.929C30.3578 8.99221 37.7556 11.7537 45.5527 18.6769C46.0511 19.1194 46.5515 19.5826 47.0532 20.0618C44.1478 23.1815 41.2768 26.7333 38.5344 30.6037C33.8313 31.0397 29.3294 31.7399 25.1902 32.6776C24.93 31.6308 24.6994 30.6023 24.5028 29.5968ZM67.6382 40.2481C66.6488 38.5389 65.6329 36.8702 64.5973 35.247C67.7879 35.6504 70.8449 36.1858 73.7157 36.841C72.8538 39.6032 71.7796 42.4912 70.5151 45.4519C69.608 43.7297 68.6486 41.9933 67.6382 40.2481ZM50.0477 23.1148C52.0181 25.2495 53.9914 27.6329 55.9323 30.2189C53.9765 30.1265 51.9964 30.0785 50 30.0785C48.0224 30.0785 46.057 30.1255 44.1132 30.2162C46.0561 27.6543 48.0465 25.2741 50.0477 23.1148ZM32.3445 40.2776C31.3561 41.9916 30.4145 43.7185 29.5216 45.4487C28.2776 42.4983 27.2133 39.5971 26.344 36.7958C29.1971 36.1573 32.2397 35.6352 35.41 35.2395C34.3598 36.8777 33.3356 38.559 32.3445 40.2776ZM35.5013 65.8058C32.2258 65.4404 29.1375 64.9452 26.2851 64.3243C27.1683 61.473 28.256 58.5098 29.5264 55.496C30.4216 57.2249 31.3669 58.9525 32.3614 60.6702C33.3744 62.4201 34.424 64.1342 35.5013 65.8058ZM50.1659 77.927C48.1412 75.7424 46.1216 73.3259 44.1492 70.7266C46.0639 70.8017 48.016 70.8402 50 70.8402C52.0383 70.8402 54.0532 70.7942 56.0365 70.7059C54.0892 73.3521 52.123 75.7723 50.1659 77.927ZM70.5558 55.3423C71.8924 58.3888 73.0191 61.3365 73.9138 64.1392C71.0143 64.8007 67.8839 65.3334 64.5856 65.7293C65.6237 64.0842 66.6484 62.3868 67.6553 60.6408C68.674 58.8744 69.6413 57.1052 70.5558 55.3423ZM63.9549 58.5066C62.3917 61.217 60.7869 63.8044 59.1577 66.2467C56.1903 66.4589 53.1246 66.5682 50 66.5682C46.8881 66.5682 43.861 66.4715 40.9461 66.2823C39.2512 63.808 37.6115 61.2129 36.0583 58.5299C34.5091 55.8543 33.0837 53.156 31.7918 50.4728C33.0834 47.7835 34.5054 45.0821 36.0456 42.4113L36.0453 42.4118C37.5896 39.7338 39.2149 37.1514 40.8941 34.6925C43.8681 34.4677 46.9178 34.3504 49.9998 34.3504C53.0958 34.3504 56.1495 34.4686 59.1226 34.6954C60.7762 37.1363 62.3905 39.7103 63.9409 42.3887C65.5088 45.0971 66.9492 47.7804 68.2518 50.4121C66.9531 53.0891 65.516 55.7994 63.9549 58.5066ZM72.7675 10.8019C76.1161 12.733 77.4184 20.5212 75.3144 30.7339C75.1802 31.3855 75.0291 32.0493 74.865 32.7219C70.7162 31.7646 66.211 31.0523 61.4943 30.6098C58.7465 26.6968 55.8991 23.1395 53.0409 20.0598C53.8093 19.3206 54.5767 18.6157 55.3409 17.9505C62.7235 11.5257 69.6236 8.98901 72.7675 10.8019ZM50 41.4407C54.9316 41.4407 58.9297 45.4385 58.9297 50.3703C58.9297 55.3019 54.9316 59.3 50 59.3C45.0684 59.3 41.0703 55.3019 41.0703 50.3703C41.0703 45.4385 45.0684 41.4407 50 41.4407Z" fill="#00D8FF"/>
</g>
</g>
</svg>
