<svg width="100" height="101" viewBox="0 0 100 101" fill="none" xmlns="http://www.w3.org/2000/svg">
<g id="vite-svgrepo-com 1">
<path id="Vector" d="M93.3861 19.7061L52.318 93.1426C51.4699 94.6586 49.2917 94.6676 48.4308 93.1589L6.54861 19.713C5.61111 18.0686 7.01673 16.077 8.87986 16.4098L49.9924 23.7586C50.2546 23.8055 50.5231 23.805 50.7852 23.7573L91.0377 16.4205C92.8945 16.082 94.3074 18.0586 93.3861 19.7061Z" fill="url(#paint0_linear_796_23299)"/>
<path id="Vector_2" d="M69.5767 6.77158L39.1851 12.7266C38.9422 12.7741 38.7221 12.901 38.5592 13.0874C38.3963 13.2737 38.3 13.5089 38.2854 13.7559L36.4161 45.3303C36.3723 46.0741 37.0551 46.6513 37.7807 46.4838L46.2423 44.5313C47.0342 44.3484 47.7495 45.0459 47.5867 45.8419L45.0729 58.1522C44.9036 58.9803 45.6814 59.6891 46.4904 59.4434L51.7167 57.8553C52.527 57.6094 53.3054 58.32 53.1342 59.1491L49.1392 78.4856C48.8892 79.695 50.4979 80.3544 51.1689 79.3175L51.617 78.625L76.3817 29.2025C76.7964 28.375 76.0817 27.4316 75.1723 27.6069L66.4629 29.2878C65.6442 29.4456 64.9479 28.6834 65.1789 27.8825L70.8636 8.17626C71.0948 7.37376 70.3961 6.61095 69.5767 6.77158Z" fill="url(#paint1_linear_796_23299)"/>
</g>
<defs>
<linearGradient id="paint0_linear_796_23299" x1="5.5259" y1="13.785" x2="56.6358" y2="83.1963" gradientUnits="userSpaceOnUse">
<stop stop-color="#41D1FF"/>
<stop offset="1" stop-color="#BD34FE"/>
</linearGradient>
<linearGradient id="paint1_linear_796_23299" x1="47.631" y1="8.38813" x2="56.8765" y2="71.8115" gradientUnits="userSpaceOnUse">
<stop stop-color="#FFEA83"/>
<stop offset="0.0833" stop-color="#FFDD35"/>
<stop offset="1" stop-color="#FFA800"/>
</linearGradient>
</defs>
</svg>
