<svg width="100" height="101" viewBox="0 0 100 101" fill="none" xmlns="http://www.w3.org/2000/svg">
<g id="vscode-svgrepo-com 1">
<path id="Vector" d="M90.6562 16.2186L72.6374 7.54364C71.6198 7.05301 70.4748 6.8911 69.3611 7.08036C68.2474 7.26962 67.2202 7.80067 66.4218 8.59989L7.43741 62.3749C6.72175 63.0243 6.29337 63.9313 6.24648 64.8966C6.1996 65.8618 6.53806 66.8061 7.18741 67.5218C7.26553 67.6061 7.34366 67.6874 7.42803 67.7624L12.2437 72.1374C12.8729 72.7101 13.6829 73.0443 14.5329 73.082C15.3829 73.1197 16.2193 72.8584 16.8968 72.3436L87.9437 18.4686C88.4803 18.0614 89.1199 17.8121 89.7906 17.7487C90.4613 17.6853 91.1363 17.8104 91.7397 18.1098C92.3432 18.4093 92.851 18.8712 93.2062 19.4436C93.5613 20.016 93.7496 20.6762 93.7499 21.3499V21.1405C93.7498 20.1121 93.4595 19.1046 92.9122 18.2338C92.3649 17.3631 91.5829 16.6646 90.6562 16.2186Z" fill="#0065A9"/>
<path id="Vector_2" d="M90.6562 84.7815L72.6374 93.4596C71.6195 93.9488 70.4749 94.11 69.3615 93.9208C68.2481 93.7316 67.2209 93.2014 66.4218 92.4033L7.43741 38.6252C6.72175 37.9758 6.29337 37.0688 6.24648 36.1035C6.1996 35.1383 6.53806 34.194 7.18741 33.4783C7.26553 33.394 7.34366 33.3127 7.42803 33.2377L12.2437 28.8627C12.8736 28.2876 13.6854 27.9519 14.5375 27.9142C15.3896 27.8765 16.2279 28.1392 16.9062 28.6565L87.9437 82.5315C88.4803 82.9387 89.1199 83.188 89.7906 83.2514C90.4613 83.3148 91.1363 83.1897 91.7397 82.8903C92.3432 82.5909 92.851 82.1289 93.2062 81.5565C93.5613 80.9841 93.7496 80.3239 93.7499 79.6502V79.8752C93.7465 80.9009 93.4546 81.905 92.9075 82.7726C92.3604 83.6402 91.5802 84.3363 90.6562 84.7815Z" fill="#007ACC"/>
<path id="Vector_3" d="M72.6383 93.4596C71.6204 93.9488 70.4757 94.11 69.3624 93.9208C68.249 93.7316 67.2218 93.2013 66.4227 92.4033C66.8714 92.8462 67.4409 93.1469 68.0598 93.2675C68.6787 93.3881 69.3194 93.3235 69.9017 93.0815C70.4839 92.8396 70.9818 92.4312 71.333 91.9076C71.6842 91.3839 71.873 90.7682 71.8758 90.1377V10.8627C71.8763 10.2292 71.6888 9.60986 71.337 9.08304C70.9852 8.55622 70.485 8.14566 69.8997 7.90337C69.3144 7.66109 68.6703 7.59797 68.0491 7.72202C67.4279 7.84607 66.8575 8.15171 66.4102 8.60021C67.2087 7.80128 68.2357 7.27019 69.3492 7.08041C70.4627 6.89062 71.6077 7.05152 72.6258 7.54084L90.6414 16.2033C91.571 16.6471 92.3562 17.3446 92.9064 18.2155C93.4566 19.0864 93.7493 20.0951 93.7508 21.1252V79.8752C93.751 80.9045 93.4605 81.9129 92.9125 82.7843C92.3646 83.6556 91.5817 84.3544 90.6539 84.8002L72.6383 93.4596Z" fill="#1F9CF0"/>
</g>
</svg>
