<svg width="398" height="279" viewBox="0 0 398 279" fill="none" xmlns="http://www.w3.org/2000/svg">
<rect width="398" height="279" rx="8" fill="#0F192E"/>
<path fill-rule="evenodd" clip-rule="evenodd" d="M150.711 182.327C151.241 182.352 151.961 182.491 152.353 182.643C152.732 182.782 153.313 183.072 153.654 183.287C153.982 183.489 154.247 183.704 154.247 183.767C154.235 183.818 154.108 184.007 153.679 184.551L152.618 184.007C151.608 183.502 151.519 183.477 150.408 183.477C149.448 183.477 149.145 183.527 148.576 183.793C148.159 183.982 147.642 184.386 147.237 184.803C146.833 185.246 146.492 185.776 146.303 186.256C146.075 186.863 146.025 187.179 146.075 187.836C146.109 188.383 146.24 188.88 146.467 189.327C146.644 189.68 147.01 190.224 147.263 190.502C147.528 190.792 148.02 191.171 148.374 191.361C148.943 191.651 149.145 191.689 150.395 191.689C151.671 191.689 151.835 191.664 152.454 191.348C152.845 191.133 153.111 190.906 153.123 190.78C153.136 190.653 153.148 189.92 153.174 187.772H154.184V191.689L153.3 192.157C152.77 192.435 151.986 192.7 151.342 192.839C150.332 193.041 150.218 193.041 149.321 192.852C148.804 192.725 148.071 192.485 147.692 192.283C147.326 192.094 146.72 191.626 146.353 191.247C146 190.868 145.558 190.274 145.381 189.92C145.204 189.579 144.989 188.948 144.913 188.531C144.812 188 144.812 187.532 144.901 186.989C144.977 186.547 145.128 185.953 145.242 185.663C145.355 185.359 145.608 184.892 145.785 184.614C145.974 184.336 146.341 183.919 146.593 183.704C146.846 183.477 147.326 183.148 147.679 182.971C148.02 182.794 148.639 182.567 149.031 182.466C149.486 182.352 150.13 182.302 150.711 182.327ZM188.792 182.289C189.07 182.276 189.613 182.327 189.992 182.403C190.371 182.479 191.027 182.693 191.444 182.896C191.861 183.098 192.505 183.553 192.859 183.906C193.276 184.311 193.68 184.867 193.932 185.41C194.248 186.079 194.349 186.458 194.387 187.267C194.425 187.975 194.387 188.505 194.223 189.036C194.109 189.453 193.857 190.047 193.654 190.363C193.452 190.678 193.023 191.184 192.682 191.5C192.354 191.803 191.735 192.207 191.318 192.397C190.901 192.586 190.105 192.814 189.55 192.902C188.653 193.041 188.451 193.041 187.718 192.839C187.263 192.713 186.569 192.435 186.152 192.22C185.748 191.992 185.142 191.512 184.8 191.159C184.459 190.792 184.03 190.16 183.828 189.769C183.525 189.112 183.487 188.897 183.487 187.646C183.487 186.332 183.512 186.206 183.904 185.41C184.131 184.917 184.573 184.285 184.939 183.919C185.293 183.578 185.925 183.123 186.367 182.908C186.796 182.706 187.402 182.479 187.718 182.415C188.034 182.352 188.514 182.302 188.792 182.289ZM185.874 184.728C185.255 185.347 185.066 185.637 184.876 186.256C184.75 186.673 184.636 187.242 184.636 187.52C184.636 187.798 184.674 188.253 184.725 188.531C184.788 188.809 184.977 189.314 185.167 189.655C185.356 189.996 185.798 190.514 186.139 190.792C186.493 191.083 187.061 191.424 187.402 191.538C187.756 191.664 188.324 191.765 188.665 191.79C189.019 191.803 189.524 191.765 189.802 191.715C190.08 191.664 190.535 191.512 190.813 191.373C191.09 191.247 191.52 190.944 191.773 190.716C192.013 190.489 192.366 190.072 192.543 189.794C192.72 189.516 192.935 189.061 193.023 188.783C193.124 188.48 193.162 187.899 193.124 187.33C193.086 186.585 192.985 186.231 192.695 185.7C192.492 185.334 192.101 184.816 191.823 184.576C191.545 184.323 191.002 183.982 190.623 183.805C190.181 183.616 189.638 183.477 189.107 183.451C188.514 183.426 188.059 183.489 187.466 183.679C186.796 183.906 186.506 184.096 185.874 184.728Z" fill="white"/>
<path d="M192.087 86.2664C192.718 86.1906 193.362 86.1021 193.539 86.0768C193.716 86.0516 194.575 86.0263 195.472 86.0137C196.356 86.0137 197.631 86.0642 198.301 86.14C198.983 86.2032 200.107 86.3801 200.802 86.5191C201.496 86.658 202.835 87.0244 203.77 87.3277C204.704 87.6309 206.106 88.1868 206.864 88.5659C207.622 88.9449 208.708 89.5261 209.264 89.8673C209.82 90.2084 210.666 90.8022 211.159 91.1686C211.651 91.535 212.523 92.2678 213.104 92.7985C213.697 93.3292 214.581 94.2515 215.061 94.8453C215.554 95.4391 216.085 96.1088 216.527 96.7405L213.596 98.9263C211.98 100.127 210.59 101.15 210.527 101.201C210.464 101.251 210.085 100.872 209.681 100.367C209.289 99.8739 208.38 98.8884 207.66 98.1935C206.953 97.4986 205.879 96.6015 205.285 96.2099C204.692 95.8182 203.669 95.237 203.012 94.9338C202.355 94.6305 201.446 94.2515 200.991 94.0999C200.536 93.9609 199.602 93.7208 198.907 93.5945C198.212 93.4681 197.164 93.3165 196.57 93.266C195.977 93.2281 194.903 93.2533 194.171 93.3292C193.438 93.405 192.301 93.5818 191.645 93.7335C190.988 93.8724 189.939 94.1757 189.308 94.4157C188.676 94.6684 187.78 95.0727 187.287 95.3381C186.794 95.5908 185.898 96.1846 185.266 96.6394C184.635 97.0943 183.649 97.9787 183.043 98.5852C182.449 99.2043 181.629 100.165 181.224 100.72C180.808 101.276 180.227 102.161 179.923 102.679C179.608 103.197 179.178 104.056 178.938 104.574C178.711 105.092 178.357 106.115 178.142 106.848C177.928 107.581 177.663 108.693 177.561 109.312C177.448 109.931 177.309 110.5 177.233 110.576C177.157 110.651 175.541 110.74 173.292 110.79C171.196 110.841 169.465 110.866 169.44 110.853C169.415 110.841 169.491 110.095 169.604 109.186C169.705 108.276 169.907 107.063 170.059 106.469C170.198 105.875 170.514 104.776 170.754 104.005C170.994 103.235 171.562 101.883 172.004 100.973C172.434 100.063 173.254 98.6484 173.81 97.8145C174.366 96.9806 175.376 95.6539 176.058 94.858C176.753 94.062 177.764 93.0133 178.319 92.5332C178.875 92.0531 179.873 91.2697 180.53 90.8022C181.186 90.3347 182.273 89.6525 182.929 89.2861C183.586 88.9196 184.559 88.4395 185.077 88.2121C185.594 87.9847 186.668 87.593 187.451 87.3403C188.222 87.0876 189.333 86.7718 189.901 86.6454C190.482 86.5064 191.455 86.3422 192.087 86.2664Z" fill="white"/>
<path d="M238.883 93.2913C238.567 93.3165 237.998 93.3165 237.62 93.2913C237.241 93.266 237.493 93.2533 238.188 93.2533C238.883 93.2533 239.198 93.266 238.883 93.2913Z" fill="white"/>
<path d="M163.668 111.106C163.39 111.131 162.961 111.131 162.721 111.106C162.481 111.081 162.708 111.056 163.226 111.056C163.744 111.056 163.946 111.081 163.668 111.106Z" fill="white"/>
<path d="M289.973 160.71C290.314 160.533 291.009 160.28 291.489 160.154C292.209 159.952 292.676 159.927 294.015 159.964C295.139 160.002 295.972 160.103 296.667 160.293C297.223 160.432 298.145 160.786 298.726 161.051C299.294 161.329 299.799 161.632 299.837 161.721C299.875 161.797 299.585 162.529 299.193 163.325C298.789 164.121 298.461 164.791 298.448 164.816C298.448 164.829 298.069 164.677 297.614 164.475C297.16 164.26 296.124 163.894 295.316 163.654C294.495 163.401 293.623 163.199 293.383 163.199C293.143 163.199 292.701 163.3 292.423 163.426C292.133 163.54 291.842 163.742 291.792 163.869C291.729 163.982 291.678 164.235 291.678 164.437C291.678 164.652 291.804 164.905 292.019 165.107C292.221 165.296 292.537 165.536 292.752 165.637C292.966 165.739 293.674 165.979 294.33 166.181C294.987 166.37 295.871 166.661 296.288 166.838C296.705 167.002 297.362 167.305 297.741 167.495C298.12 167.697 298.65 168.076 298.903 168.341C299.155 168.607 299.496 169.112 299.661 169.453C299.888 169.959 299.938 170.3 299.938 171.222C299.938 172.119 299.875 172.485 299.648 172.991C299.496 173.345 299.231 173.812 299.054 174.04C298.89 174.254 298.448 174.646 298.094 174.873C297.728 175.113 296.995 175.455 296.478 175.632C295.897 175.821 295.076 175.985 294.33 176.036C293.585 176.086 292.752 176.061 292.12 175.96C291.564 175.884 290.604 175.644 289.973 175.442C289.341 175.252 288.356 174.81 287.775 174.482C287.194 174.153 286.651 173.787 286.575 173.66C286.462 173.496 286.563 173.206 287.093 172.144C287.459 171.437 287.801 170.767 287.851 170.679C287.927 170.54 288.23 170.666 289.152 171.209C289.809 171.601 290.668 172.043 291.047 172.182C291.425 172.334 292.196 172.536 292.752 172.637C293.535 172.789 293.901 172.801 294.394 172.688C294.735 172.624 295.151 172.46 295.316 172.334C295.505 172.182 295.631 171.93 295.682 171.601C295.732 171.209 295.682 171.02 295.48 170.755C295.328 170.552 295.063 170.325 294.861 170.224C294.671 170.123 293.547 169.744 292.373 169.39C291.198 169.024 289.998 168.607 289.72 168.468C289.442 168.329 288.937 167.95 288.609 167.634C288.268 167.318 287.889 166.825 287.75 166.547C287.624 166.269 287.472 165.65 287.434 165.157C287.371 164.5 287.409 164.083 287.573 163.515C287.687 163.098 287.952 162.529 288.142 162.251C288.331 161.973 288.672 161.582 288.912 161.38C289.152 161.177 289.619 160.874 289.973 160.71Z" fill="white"/>
<path d="M137.778 96.2341C135.517 90.6369 133.673 86.0505 133.673 86.0253C133.673 86.0126 135.466 86.0126 141.655 86.0632L142.059 87.0739C142.287 87.6299 144.51 93.0881 146.998 99.2032C149.486 105.318 151.608 110.537 151.722 110.789C151.835 111.055 151.899 111.295 151.861 111.32C151.823 111.345 150.042 111.408 143.967 111.547L142.931 108.982C142.362 107.567 140.051 101.831 137.778 96.2341Z" fill="white"/>
<path d="M164.87 95.4128C166.904 90.4095 168.621 86.2401 168.684 86.1643V86.1516C168.785 86.0379 169.745 86 172.714 86C176.364 86 176.616 86.0126 176.566 86.2148C176.541 86.3411 175 90.1947 173.143 94.7811C171.286 99.3675 169.063 104.851 168.204 106.974C167.346 109.096 166.6 110.865 166.537 110.903C166.487 110.954 164.668 111.029 162.508 111.067C160.336 111.105 158.555 111.105 158.555 111.042C158.555 110.991 159.136 109.501 159.856 107.732C160.576 105.963 162.837 100.416 164.87 95.4128Z" fill="white"/>
<path d="M232.191 86.7202C232.923 86.5433 234.148 86.3159 234.906 86.2148C235.677 86.1263 237.167 86.0379 238.228 86.0253C239.302 86.0126 240.792 86.1011 241.638 86.2022C242.447 86.3159 243.798 86.5559 244.632 86.7581C245.465 86.9602 246.716 87.3393 247.41 87.592C248.105 87.8573 249.267 88.3627 250 88.7417C250.732 89.1081 251.806 89.7272 252.399 90.1315C252.993 90.5232 253.991 91.256 254.61 91.7614C255.241 92.2668 256.315 93.2649 257.01 93.9851C257.704 94.7053 258.639 95.7792 259.094 96.3731C259.536 96.9669 260.192 97.9019 260.533 98.4578C260.874 99.0137 261.455 100.062 262.491 102.122L262.15 102.198C261.961 102.248 260.091 102.286 257.995 102.299C255.885 102.299 254.041 102.261 253.89 102.198C253.726 102.147 253.195 101.528 252.715 100.846C252.235 100.163 251.263 99.0264 250.568 98.3315C249.873 97.6239 248.8 96.7142 248.168 96.2973C247.549 95.8803 246.577 95.3244 246.021 95.0591C245.465 94.7937 244.531 94.4147 243.937 94.2125C243.343 94.023 242.27 93.7324 241.537 93.5808C240.527 93.366 239.756 93.3028 238.316 93.2902C237.23 93.2902 236.018 93.3534 235.475 93.4545C234.957 93.5429 233.984 93.7956 233.327 93.9978C232.671 94.2125 231.471 94.7179 230.675 95.1222C229.879 95.5266 228.629 96.3099 227.896 96.8658C227.164 97.4091 226.052 98.3946 225.433 99.039C224.802 99.696 223.918 100.795 223.45 101.49C222.983 102.185 222.364 103.272 222.074 103.891C221.783 104.51 221.354 105.622 221.126 106.354C220.899 107.087 220.621 108.123 220.318 109.639L217.956 109.703L217.847 109.706C216.544 109.743 214.793 109.794 212.361 109.892V109.324C212.361 109.008 212.512 108.06 212.689 107.214C212.866 106.354 213.232 105.003 213.497 104.207C213.763 103.411 214.23 102.16 214.558 101.427C214.874 100.694 215.493 99.5065 215.935 98.7737C216.365 98.0409 217.072 96.9922 217.489 96.4363C217.905 95.8803 218.764 94.8948 219.383 94.2378C220.002 93.5934 221.076 92.5953 221.77 92.0394C222.465 91.4708 223.551 90.6875 224.17 90.2832C224.802 89.8788 226.014 89.1839 226.886 88.7417C227.757 88.2995 229.008 87.731 229.664 87.4909C230.321 87.2508 231.458 86.8971 232.191 86.7202Z" fill="white"/>
<path d="M101.073 168.138C99.4062 163.868 98.0547 160.292 98.0547 160.204C98.0547 160.077 98.5346 160.052 102.387 160.115L104.332 165.738C105.406 168.833 106.302 171.385 106.328 171.423C106.353 171.461 106.454 171.284 106.555 171.044C106.643 170.804 107.54 168.227 110.369 160.052H112.428C113.552 160.052 114.474 160.077 114.474 160.115C114.474 160.153 113.843 161.871 113.072 163.943C112.302 166.003 111.19 168.921 110.609 170.412C110.016 171.903 109.271 173.773 108.349 175.984L104.079 175.908L101.073 168.138Z" fill="white"/>
<path fill-rule="evenodd" clip-rule="evenodd" d="M166.883 182.277H168.02V191.753H172.693V192.89H166.883V182.277ZM206.29 182.277H208.665C210.294 182.277 211.304 182.341 211.911 182.467C212.403 182.581 212.972 182.77 213.174 182.896C213.376 183.035 213.691 183.389 213.856 183.692C214.083 184.084 214.171 184.425 214.159 184.931C214.159 185.31 214.07 185.802 213.969 186.005C213.856 186.207 213.628 186.51 213.464 186.649C213.313 186.801 212.997 187.003 212.416 187.293L213.11 187.609C213.489 187.773 213.931 188.077 214.07 188.291C214.222 188.494 214.411 188.885 214.5 189.163C214.601 189.479 214.626 189.934 214.588 190.364C214.525 190.869 214.399 191.197 214.121 191.564C213.906 191.842 213.414 192.233 212.302 192.827L206.29 192.89V182.277ZM207.616 186.763C211.241 186.826 211.595 186.801 211.961 186.611C212.201 186.485 212.517 186.219 212.656 186.03C212.833 185.79 212.921 185.474 212.921 185.12C212.921 184.766 212.833 184.451 212.656 184.21C212.504 184.008 212.138 183.768 211.772 183.642C211.304 183.478 210.711 183.427 209.347 183.414H207.54L207.616 186.763ZM207.54 189.947L207.553 191.753C211.797 191.69 211.948 191.678 212.466 191.374C212.757 191.197 213.085 190.882 213.186 190.679C213.287 190.477 213.376 190.123 213.376 189.921C213.376 189.719 213.287 189.34 213.186 189.1C213.098 188.86 212.845 188.569 212.656 188.443C212.454 188.329 211.948 188.178 211.532 188.102C211.115 188.039 210.092 187.976 209.258 187.963C208.412 187.963 207.679 188.001 207.629 188.039C207.566 188.089 207.528 188.948 207.54 189.947ZM230.023 182.277H231.235L233.496 187.293C234.734 190.06 235.77 192.448 235.807 192.6C235.845 192.865 235.807 192.89 234.645 192.89L233.509 190.3L227.699 190.237L227.13 191.513C226.827 192.221 226.511 192.827 226.436 192.853C226.372 192.878 226.107 192.89 225.375 192.827L225.893 191.564C226.17 190.869 226.903 189.163 227.522 187.773C228.128 186.384 228.949 184.577 229.328 183.756L230.023 182.277ZM229.846 185.385C229.745 185.588 229.353 186.472 228.974 187.344C228.595 188.203 228.292 188.936 228.305 188.948C228.318 188.974 229.101 188.986 230.035 188.986C230.97 188.986 231.98 188.986 232.284 188.986C232.801 188.986 232.814 188.974 232.738 188.633C232.688 188.443 232.549 188.089 232.422 187.849C232.284 187.597 232.183 187.356 232.183 187.306C232.183 187.255 231.98 186.775 231.74 186.232C231.488 185.689 231.172 185.044 231.046 184.779C230.907 184.514 230.806 184.223 230.806 184.122C230.818 184.021 230.755 183.907 230.692 183.857C230.616 183.819 230.439 184.046 230.288 184.387C230.149 184.728 229.947 185.171 229.846 185.385ZM247.213 182.277L248.476 182.29V191.766H253.023V192.903H250.181C247.769 192.903 247.326 192.865 247.276 192.714C247.238 192.6 247.213 190.212 247.213 187.407V182.277Z" fill="white"/>
<path fill-rule="evenodd" clip-rule="evenodd" d="M237.71 113.419C237.735 113.937 237.735 114.822 237.71 115.378C237.697 115.933 237.672 115.504 237.672 114.43C237.672 113.356 237.697 112.901 237.71 113.419ZM177.437 117.475C177.576 117.475 177.753 117.513 177.841 117.563C177.917 117.614 178.195 118.246 178.447 118.978C178.7 119.711 179.231 120.924 179.622 121.67C180.014 122.428 180.771 123.628 181.302 124.323C181.832 125.03 182.742 126.066 183.323 126.622C183.916 127.178 184.876 127.987 185.457 128.404C186.051 128.833 187.099 129.465 187.794 129.819C188.489 130.173 189.487 130.602 190.004 130.779C190.522 130.956 191.621 131.209 192.429 131.36C193.427 131.525 194.476 131.613 195.587 131.613C196.509 131.613 197.747 131.537 198.341 131.436C198.934 131.348 199.894 131.133 200.488 130.969C201.081 130.804 202.269 130.324 203.14 129.895C204.012 129.465 205.186 128.758 205.755 128.341C206.336 127.911 207.22 127.178 207.712 126.698C208.218 126.231 209.001 125.372 209.455 124.803C209.91 124.234 210.314 123.78 210.365 123.78C210.428 123.78 210.819 124.02 211.249 124.31C211.691 124.601 212.891 125.473 213.939 126.256C214.975 127.039 215.998 127.81 216.554 128.265L215.809 129.213C215.392 129.731 214.482 130.716 213.8 131.411C213.118 132.093 211.918 133.129 211.16 133.71C210.39 134.292 209.316 135.024 208.761 135.34C208.205 135.656 207.296 136.136 206.74 136.402C206.184 136.667 204.984 137.147 204.087 137.463C203.178 137.766 202.016 138.12 201.498 138.234C200.98 138.36 199.439 138.562 198.088 138.701C196.459 138.865 195.259 138.929 194.551 138.878C193.958 138.828 192.796 138.714 191.962 138.625C191.129 138.524 189.903 138.309 189.247 138.133C188.59 137.968 187.478 137.615 186.784 137.362C186.089 137.097 185.003 136.629 184.384 136.326C183.752 136.01 182.843 135.517 182.363 135.239C181.87 134.961 180.91 134.33 180.228 133.837C179.534 133.344 178.321 132.321 177.525 131.55C176.73 130.779 175.694 129.68 175.227 129.086C174.759 128.492 174.039 127.494 173.635 126.875C173.231 126.256 172.524 124.942 172.056 123.969C171.589 122.996 170.97 121.493 170.692 120.621C170.402 119.749 170.137 118.839 169.985 118.119L170.869 118.043C171.349 118.006 172.89 117.879 174.279 117.778C175.669 117.664 176.894 117.563 176.995 117.538C177.096 117.513 177.298 117.488 177.437 117.475ZM267.707 130.628C268.351 130.767 269.539 131.007 270.334 131.184C271.13 131.36 272.898 131.803 274.25 132.182C275.601 132.548 277.256 133.053 277.913 133.294C278.569 133.534 279.593 133.925 280.186 134.178C280.78 134.418 281.74 134.898 282.333 135.252C282.927 135.593 283.748 136.187 284.152 136.553C284.569 136.932 284.998 137.463 285.125 137.741C285.251 138.019 285.365 138.486 285.365 138.79C285.365 139.08 285.302 139.472 285.226 139.674C285.15 139.864 284.885 140.268 284.632 140.571C284.379 140.874 283.824 141.367 283.407 141.67C282.99 141.961 282.131 142.454 281.512 142.77C280.881 143.085 279.694 143.603 278.86 143.932C278.026 144.26 276.372 144.804 275.197 145.132C274.01 145.473 272.57 145.865 271.976 146.017C271.383 146.168 269.564 146.56 267.935 146.901C266.305 147.23 264.259 147.634 263.388 147.773C262.516 147.924 260.558 148.24 259.03 148.48C257.502 148.72 254.887 149.087 253.22 149.289C251.553 149.504 248.231 149.87 245.831 150.11C243.431 150.363 239.743 150.704 237.621 150.868C235.499 151.045 232.493 151.247 230.927 151.323C229.361 151.399 227.29 151.513 226.317 151.589C225.345 151.652 222.048 151.791 218.991 151.904C215.935 152.005 208.546 152.144 202.572 152.195C196.598 152.258 189.663 152.258 187.163 152.195C184.662 152.132 181.075 152.031 179.205 151.955C177.323 151.879 174.14 151.74 172.132 151.639C170.111 151.525 167.08 151.361 165.375 151.26C163.67 151.146 160.916 150.957 159.249 150.805C157.582 150.666 154.904 150.414 153.313 150.249C151.709 150.072 149.271 149.82 147.882 149.681C146.492 149.529 144.017 149.226 142.387 148.986C140.758 148.746 138.257 148.379 136.83 148.165C135.403 147.95 132.675 147.457 130.767 147.078C128.86 146.686 126.612 146.206 125.778 146.004C124.945 145.789 123.328 145.334 122.179 144.993C121.029 144.639 119.236 144.02 118.2 143.616C116.962 143.123 115.901 142.593 115.131 142.1C114.499 141.683 113.729 141.102 113.451 140.811C113.16 140.508 112.819 140.04 112.693 139.762C112.567 139.485 112.453 139.042 112.453 138.79C112.453 138.524 112.542 138.107 112.643 137.867C112.744 137.627 113.097 137.134 113.426 136.781C113.767 136.427 114.373 135.922 114.79 135.669C115.207 135.404 115.964 134.974 116.457 134.721C116.962 134.469 118.187 133.963 119.173 133.584C120.17 133.205 121.8 132.674 122.81 132.396C123.821 132.118 125.235 131.727 125.968 131.55C126.7 131.36 128.09 131.045 129.062 130.842C130.241 130.607 130.873 130.531 130.957 130.615C131.041 130.699 131.028 130.813 130.919 130.956C130.831 131.07 130.616 131.461 130.452 131.803C130.275 132.156 130.136 132.662 130.136 132.94C130.136 133.23 130.262 133.723 130.439 134.077C130.616 134.431 130.995 134.961 131.298 135.277C131.601 135.593 132.207 136.098 132.662 136.414C133.117 136.718 134.19 137.311 135.062 137.728C135.933 138.133 137.752 138.84 139.103 139.295C140.455 139.737 142.931 140.432 144.598 140.849C146.265 141.253 148.4 141.721 149.334 141.898C150.269 142.075 152.858 142.492 155.081 142.845C157.304 143.199 160.575 143.654 162.344 143.856C164.112 144.071 166.752 144.349 168.217 144.488C169.669 144.627 172.056 144.829 173.522 144.943C174.974 145.044 177.74 145.221 179.647 145.322C181.555 145.423 184.763 145.574 186.784 145.65C188.792 145.726 194.286 145.789 198.972 145.789C203.658 145.789 209.114 145.726 211.097 145.65C213.08 145.562 216.718 145.385 219.181 145.259C221.644 145.12 224.713 144.917 226.001 144.816C227.29 144.703 230.637 144.362 233.453 144.058C236.27 143.742 239.39 143.376 240.4 143.224C241.411 143.085 243.57 142.744 245.2 142.466C246.829 142.188 249.052 141.771 250.126 141.531C251.199 141.304 253.043 140.874 254.23 140.584C255.405 140.293 257.375 139.725 258.588 139.32C259.801 138.916 261.48 138.272 262.314 137.905C263.148 137.526 264.259 136.945 264.777 136.604C265.295 136.25 266.002 135.694 266.356 135.34C266.709 134.999 267.114 134.456 267.278 134.14C267.442 133.799 267.556 133.331 267.556 132.978C267.556 132.637 267.467 132.156 267.354 131.904C267.253 131.638 266.987 131.221 266.785 130.981C266.596 130.741 266.457 130.501 266.482 130.463C266.507 130.413 267.063 130.489 267.707 130.628ZM151.671 160.079C151.911 160.104 151.923 160.205 151.936 163.389L151.898 161.785C151.86 160.37 151.835 160.155 151.633 160.117C151.481 160.075 151.494 160.062 151.671 160.079ZM165.88 160.092C167.03 160.092 167.509 160.117 166.954 160.13C166.398 160.155 165.463 160.155 164.87 160.13C164.276 160.117 164.731 160.092 165.88 160.092ZM189.878 160.092C191.027 160.092 191.507 160.117 190.952 160.13C190.396 160.155 189.461 160.155 188.868 160.13C188.274 160.117 188.729 160.092 189.878 160.092ZM208.319 160.079C209.822 160.117 210.137 160.167 210.971 160.483C211.489 160.673 212.259 161.039 212.676 161.292C213.093 161.532 213.649 161.936 213.914 162.189C214.179 162.429 214.394 162.657 214.394 162.694C214.381 162.732 213.901 163.339 213.308 164.059C212.714 164.767 212.209 165.348 212.171 165.348C212.133 165.348 211.779 165.082 211.375 164.754C210.984 164.438 210.34 164.034 209.961 163.857C209.392 163.592 209.064 163.528 208.129 163.528C207.245 163.516 206.866 163.566 206.424 163.781C206.108 163.92 205.603 164.261 205.287 164.552C204.972 164.83 204.593 165.31 204.441 165.613C204.289 165.916 204.062 166.535 203.948 166.99C203.772 167.673 203.772 167.95 203.885 168.633C203.961 169.088 204.151 169.745 204.315 170.086C204.479 170.439 204.858 170.97 205.161 171.273C205.477 171.577 206.045 171.968 206.424 172.145C206.992 172.411 207.308 172.461 208.129 172.461C208.786 172.461 209.342 172.373 209.708 172.234C210.024 172.107 210.706 171.728 212.171 170.743L213.282 171.93C213.889 172.587 214.381 173.156 214.381 173.219C214.381 173.27 214.192 173.484 213.964 173.699C213.75 173.914 213.194 174.331 212.739 174.622C212.285 174.925 211.552 175.316 211.097 175.493C210.643 175.67 209.961 175.885 209.582 175.961C209.203 176.024 208.407 176.087 207.813 176.087C207.144 176.087 206.361 175.999 205.729 175.835C205.174 175.683 204.353 175.392 203.898 175.178C203.317 174.9 202.786 174.495 202.067 173.762C201.473 173.169 200.879 172.423 200.652 171.981C200.425 171.564 200.134 170.768 199.982 170.212C199.814 169.538 199.73 168.801 199.73 168.001C199.73 167.201 199.814 166.464 199.982 165.79C200.134 165.234 200.425 164.463 200.639 164.084C200.867 163.705 201.473 162.96 201.991 162.442C202.61 161.823 203.266 161.317 203.835 161.027C204.315 160.761 205.148 160.445 205.666 160.294C206.449 160.079 206.904 160.054 208.319 160.079ZM218.65 160.079C219.876 160.104 220.229 160.142 220.318 160.294C220.393 160.395 220.444 161.835 220.444 166.611L226.822 166.548L226.885 163.427C226.923 161.722 226.999 160.269 227.05 160.205C227.113 160.155 227.909 160.104 228.818 160.104C229.74 160.104 230.586 160.142 230.7 160.205C230.915 160.294 230.927 160.774 230.864 175.898L228.969 175.936C227.555 175.948 227.05 175.923 226.986 175.809C226.936 175.721 226.885 174.356 226.885 169.896L226.595 169.833C226.443 169.795 225.18 169.77 223.791 169.77C222.402 169.77 221.075 169.808 220.444 169.959V172.777C220.444 174.318 220.419 175.67 220.381 175.771C220.33 175.923 219.989 175.961 218.36 175.961C216.731 175.961 216.39 175.923 216.339 175.771C216.301 175.67 216.276 172.183 216.276 168.026C216.276 163.882 216.326 160.42 216.39 160.344C216.453 160.256 216.629 160.168 216.794 160.13C216.958 160.092 217.791 160.066 218.65 160.079ZM241.411 160.104C242.762 160.104 243.191 160.142 243.368 160.294C243.495 160.395 243.709 160.736 243.836 161.052C243.975 161.368 244.417 162.416 244.821 163.389C245.225 164.362 245.831 165.84 246.185 166.674C246.526 167.508 247.334 169.441 247.978 170.97C248.623 172.499 249.342 174.23 249.582 174.824C249.81 175.418 249.999 175.91 249.999 175.923C249.999 175.948 249.052 175.948 247.89 175.923C245.781 175.898 245.781 175.898 245.616 175.582C245.528 175.405 245.288 174.798 244.694 173.181L237.697 173.244L237.217 174.445C236.939 175.102 236.661 175.721 236.573 175.809C236.459 175.923 235.916 175.973 232.569 175.961L232.632 175.67C232.658 175.519 234.135 172.006 235.904 167.875C238.442 161.924 239.175 160.332 239.402 160.231C239.566 160.155 240.463 160.104 241.411 160.104ZM240.552 165.979C240.198 166.851 239.743 168.014 239.541 168.57C239.326 169.125 239.124 169.681 239.087 169.795C239.011 170.01 239.175 170.023 241.221 170.023H243.431C242.977 168.797 242.573 167.736 242.244 166.864C241.916 165.992 241.537 165.082 241.423 164.842L241.196 164.4L240.552 165.979ZM254.003 160.079C255.62 160.104 255.822 160.13 256.037 160.357C256.176 160.496 256.807 161.772 257.451 163.2C258.095 164.628 258.891 166.384 259.22 167.117C259.548 167.849 259.914 168.645 260.028 168.885C260.167 169.151 260.293 169.277 260.356 169.201C260.407 169.138 260.874 168.165 261.367 167.053C261.872 165.942 262.554 164.438 262.882 163.705C263.211 162.972 263.703 161.898 263.981 161.305C264.348 160.496 264.55 160.205 264.79 160.142C264.954 160.092 265.749 160.041 266.545 160.041C267.341 160.041 268.212 160.092 268.945 160.231V175.961L265.472 175.898L265.434 170.995C265.421 168.304 265.371 166.106 265.307 166.106C265.257 166.093 264.865 166.914 264.436 167.9C264.007 168.898 263.211 170.717 262.668 171.968C261.973 173.56 261.607 174.243 261.43 174.318C261.291 174.369 260.71 174.394 260.142 174.394C259.573 174.382 259.043 174.318 258.98 174.255C258.904 174.192 258.411 173.131 257.881 171.918C257.35 170.705 256.656 169.075 256.327 168.317C255.986 167.559 255.607 166.7 255.19 165.916L255.178 170.781C255.178 173.459 255.127 175.721 255.077 175.809C255.014 175.923 254.559 175.948 251.704 175.898L251.591 160.281L251.894 160.18C252.071 160.117 253.018 160.079 254.003 160.079ZM276.435 160.167C279.833 160.167 280.767 160.205 281.386 160.37C281.803 160.471 282.422 160.711 282.775 160.9C283.116 161.09 283.647 161.482 283.937 161.772C284.241 162.075 284.607 162.555 284.746 162.846C284.897 163.149 285.099 163.667 285.188 164.021C285.289 164.362 285.365 165.095 285.365 165.626C285.365 166.169 285.302 166.914 285.226 167.268C285.137 167.635 284.923 168.254 284.733 168.633C284.544 169.012 284.076 169.606 283.71 169.959C283.331 170.301 282.687 170.73 282.27 170.92C281.853 171.109 281.171 171.324 280.755 171.4C280.338 171.476 279.125 171.539 276.144 171.539L276.081 175.898L274.187 175.936C272.772 175.948 272.267 175.923 272.204 175.809C272.141 175.721 272.103 172.246 272.103 168.089C272.103 163.945 272.141 160.458 272.178 160.357C272.242 160.193 272.835 160.167 276.435 160.167ZM276.182 165.916L276.208 168.191C279.605 168.254 279.782 168.241 280.312 167.976C280.729 167.761 280.957 167.534 281.159 167.117C281.373 166.712 281.449 166.333 281.449 165.752C281.449 165.221 281.361 164.804 281.197 164.463C281.02 164.122 280.767 163.869 280.401 163.68C279.946 163.44 279.618 163.389 278.077 163.351C276.637 163.314 276.283 163.326 276.233 163.478C276.195 163.566 276.17 164.678 276.182 165.916ZM167.989 162.694C168.015 164.046 168.015 166.207 167.989 167.496C167.977 168.784 167.952 167.673 167.952 165.032C167.952 162.391 167.977 161.343 167.989 162.694ZM191.987 163.642C192.013 165.234 192.013 167.887 191.987 169.517C191.975 171.147 191.949 169.846 191.949 166.611C191.949 163.377 191.975 162.05 191.987 163.642ZM123.277 164.906C123.303 166.093 123.303 167.988 123.277 169.138C123.265 170.288 123.24 169.315 123.24 166.99C123.24 164.665 123.265 163.718 123.277 164.906ZM140.682 163.503C141.996 163.503 142.564 163.528 141.945 163.541C141.314 163.566 140.24 163.566 139.546 163.541C138.851 163.528 139.356 163.503 140.682 163.503ZM187.819 165.221C187.845 166.232 187.845 167.9 187.819 168.949C187.807 169.985 187.781 169.163 187.781 167.117C187.781 165.07 187.807 164.211 187.819 165.221ZM120.246 166.674C120.271 168.064 120.271 170.364 120.246 171.791C120.234 173.219 120.208 172.082 120.208 169.264C120.208 166.447 120.234 165.285 120.246 166.674ZM127.357 171.539L130.452 171.589L127.483 171.665L127.408 175.645L127.357 171.539ZM198.694 173.308C198.719 173.826 198.719 174.647 198.694 175.14C198.669 175.632 198.644 175.203 198.644 174.192C198.644 173.181 198.669 172.79 198.694 173.308ZM177.475 173.206C179.37 173.194 180.936 173.219 180.961 173.27C180.999 173.333 179.988 173.358 178.725 173.333C177.462 173.32 175.896 173.295 175.227 173.27C174.57 173.244 175.58 173.219 177.475 173.206ZM168.128 184.679C168.141 186.031 168.141 188.191 168.128 189.48C168.103 190.769 168.09 189.657 168.09 187.016C168.09 184.376 168.103 183.327 168.128 184.679ZM170.427 191.678C171.652 191.678 172.132 191.704 171.501 191.716C170.882 191.742 169.884 191.742 169.29 191.716C168.709 191.704 169.215 191.678 170.427 191.678ZM250.82 191.678C252.071 191.678 252.563 191.704 251.894 191.716C251.237 191.742 250.214 191.742 249.62 191.716C249.039 191.704 249.57 191.678 250.82 191.678Z" fill="white"/>
<path fill-rule="evenodd" clip-rule="evenodd" d="M264.058 110.398C264.336 110.385 264.412 110.449 264.45 110.739C264.475 110.929 264.5 111.902 264.5 112.912C264.5 113.923 264.437 115.174 264.374 115.692C264.311 116.21 264.147 117.208 264.008 117.903C263.869 118.598 263.515 119.874 263.237 120.746C262.959 121.618 262.391 123.033 261.974 123.904C261.57 124.776 260.964 125.913 260.648 126.431C260.32 126.949 259.675 127.897 259.208 128.516C258.741 129.135 257.92 130.133 257.364 130.715C256.821 131.296 255.836 132.231 255.179 132.787C254.522 133.33 253.436 134.139 252.779 134.581C252.122 135.023 250.897 135.718 250.064 136.135C249.23 136.552 247.778 137.158 246.843 137.474C245.908 137.803 244.481 138.194 243.685 138.359C242.89 138.535 241.412 138.738 240.401 138.813C239.391 138.889 238.002 138.927 237.307 138.877C236.612 138.839 235.766 138.775 235.412 138.738C235.071 138.7 234.44 138.611 234.023 138.548C233.606 138.472 232.722 138.283 232.065 138.118C231.408 137.954 230.36 137.638 229.729 137.411C229.097 137.196 228.087 136.779 227.455 136.489C226.824 136.198 225.699 135.579 224.929 135.111C224.171 134.657 223.199 134.012 222.782 133.696C222.365 133.38 221.557 132.711 220.976 132.205C220.395 131.713 219.574 130.904 219.132 130.411C218.702 129.919 218.058 129.16 217.704 128.706C217.351 128.251 216.757 127.404 216.365 126.81C215.987 126.217 215.292 124.966 214.837 124.031C214.37 123.096 213.751 121.554 213.448 120.619C213.145 119.684 212.778 118.257 212.639 117.461C212.501 116.665 212.349 115.705 212.235 114.681L212.715 114.618C212.968 114.593 214.724 114.428 216.618 114.277C218.5 114.113 220.079 114.012 220.117 114.049C220.155 114.087 220.268 114.706 220.382 115.439C220.496 116.172 220.685 117.195 220.824 117.713C220.95 118.231 221.253 119.141 221.493 119.735C221.733 120.329 222.074 121.1 222.239 121.441C222.415 121.794 222.984 122.692 223.489 123.462C224.095 124.385 224.891 125.332 225.813 126.255C226.571 127.025 227.632 127.948 228.15 128.314C228.668 128.68 229.501 129.198 229.981 129.464C230.461 129.729 231.32 130.133 231.876 130.348C232.431 130.563 233.568 130.917 234.402 131.119C235.235 131.321 236.536 131.536 237.307 131.586C238.077 131.65 239.29 131.637 240.022 131.586C240.755 131.523 241.892 131.346 242.548 131.182C243.205 131.005 244.039 130.765 244.38 130.626C244.734 130.487 245.441 130.171 245.959 129.906C246.477 129.641 247.386 129.097 247.98 128.706C248.573 128.301 249.533 127.556 250.127 127.038C250.72 126.52 251.466 125.787 251.781 125.408C252.11 125.029 252.678 124.296 253.044 123.778C253.423 123.26 253.992 122.312 254.307 121.693C254.636 121.074 255.04 120.165 255.217 119.672C255.394 119.179 255.659 118.396 255.798 117.903C255.937 117.423 256.076 116.867 256.189 116.324H237.749V114.428C237.749 113.001 237.787 112.533 237.913 112.533C237.989 112.533 240.881 112.306 244.317 112.028C247.752 111.737 253.524 111.27 257.137 110.967C260.749 110.663 263.856 110.411 264.058 110.398ZM163.267 118.611C163.381 118.611 163.469 118.648 163.456 118.699C163.431 118.762 161.574 123.361 159.313 128.933C157.053 134.505 155.171 139.016 155.12 138.965C155.082 138.914 153.327 134.657 151.243 129.489C149.146 124.334 147.441 120.064 147.441 120.013C147.441 119.95 148.274 119.836 149.298 119.76C150.333 119.672 151.647 119.571 152.24 119.533C152.834 119.482 155.499 119.268 158.177 119.04C160.854 118.813 163.141 118.623 163.267 118.611ZM116.13 160.027L120.096 160.103L120.159 175.959H116.117L116.13 160.027ZM127.851 160.065C132.196 160.115 132.234 160.115 133.232 160.444C133.787 160.634 134.532 160.975 134.873 161.215C135.227 161.442 135.694 161.859 135.909 162.124C136.137 162.402 136.427 162.882 136.566 163.198C136.705 163.502 136.856 163.956 136.907 164.209C136.945 164.449 136.983 165.157 136.983 165.788C136.983 166.572 136.907 167.166 136.73 167.747C136.591 168.189 136.238 168.884 135.96 169.288C135.682 169.693 135.404 170.021 135.353 170.021C135.303 170.021 135.038 170.198 134.28 170.842L135.808 173.268C136.654 174.607 137.336 175.757 137.336 175.833C137.336 175.909 136.515 175.959 132.853 175.947L131.931 174.153C131.413 173.167 130.857 172.169 130.39 171.537H127.358V175.959L123.38 175.896L123.354 168.126C123.329 163.843 123.354 160.267 123.392 160.179C123.456 160.04 124.276 160.014 127.851 160.065ZM127.485 163.451V168.252C130.087 168.24 131.059 168.189 131.337 168.126C131.615 168.05 131.994 167.898 132.158 167.759C132.335 167.633 132.613 167.33 132.764 167.102C132.992 166.761 133.055 166.496 133.055 165.877C133.055 165.447 132.979 164.904 132.878 164.677C132.789 164.449 132.549 164.133 132.347 163.982C132.145 163.817 131.779 163.628 131.526 163.565C131.286 163.502 130.465 163.426 129.695 163.388C128.937 163.363 128.129 163.363 127.901 163.388L127.485 163.451ZM145.609 160.065C148.729 160.052 151.419 160.078 151.571 160.115C151.849 160.166 151.862 160.217 151.862 163.451H147.188V175.959H143.02V163.451H138.347V160.166L139.13 160.128C139.572 160.115 142.477 160.078 145.609 160.065ZM153.377 160.04H155.398C157.078 160.04 157.432 160.078 157.482 160.229C157.52 160.343 157.545 162.605 157.545 165.258C157.545 168.05 157.596 170.286 157.672 170.564C157.747 170.83 158.038 171.297 158.328 171.613C158.644 171.954 159.111 172.27 159.44 172.396C159.756 172.523 160.324 172.611 160.703 172.611C161.082 172.599 161.65 172.51 161.966 172.396C162.294 172.283 162.736 171.967 163.002 171.676C163.305 171.36 163.557 170.906 163.671 170.501C163.823 169.958 163.86 168.934 163.86 160.166H167.902V165.321C167.902 169.528 167.864 170.602 167.713 171.221C167.599 171.638 167.359 172.321 167.157 172.738C166.955 173.154 166.5 173.786 166.159 174.127C165.818 174.481 165.199 174.949 164.795 175.163C164.378 175.378 163.734 175.656 163.355 175.77C162.976 175.884 162.231 176.035 161.713 176.098C161.082 176.187 160.4 176.187 159.655 176.098C159.048 176.023 158.139 175.82 157.634 175.631C157.141 175.454 156.408 175.1 156.042 174.848C155.663 174.595 155.12 174.102 154.855 173.748C154.577 173.407 154.223 172.851 154.059 172.523C153.895 172.194 153.668 171.563 153.567 171.133C153.415 170.501 153.377 169.301 153.377 165.195V160.04ZM175.531 160.04H177.653C179.244 160.04 179.788 160.078 179.825 160.191C179.851 160.28 181.328 163.843 183.109 168.088C184.89 172.346 186.343 175.858 186.343 175.896C186.343 175.934 185.37 175.947 181.998 175.896L180.962 173.243H174.053L172.891 175.972L170.845 175.959C168.951 175.959 168.799 175.947 168.85 175.732C168.887 175.618 170.416 172.03 172.222 167.772L175.531 160.04ZM176.643 166.673C176.289 167.583 175.859 168.682 175.683 169.111C175.506 169.541 175.367 169.933 175.367 169.958C175.367 169.996 176.327 170.021 177.514 170.021C179.497 170.021 179.649 170.008 179.573 169.806C179.535 169.68 179.257 168.934 178.967 168.126C178.663 167.33 178.221 166.167 177.969 165.536C177.565 164.5 177.514 164.424 177.4 164.715C177.337 164.891 176.996 165.776 176.643 166.673ZM187.858 160.166H191.913V172.422H198.607V175.959L187.934 175.896L187.858 160.166Z" fill="white"/>
<path d="M230.932 189.063C230.553 189.089 229.96 189.089 229.606 189.063C229.252 189.038 229.568 189.025 230.301 189.025C231.033 189.025 231.311 189.038 230.932 189.063Z" fill="white"/>
</svg>
